<svg width="49" height="49" viewBox="0 0 49 49" fill="none" xmlns="http://www.w3.org/2000/svg">
<rect x="0.883057" y="0.369141" width="48" height="48" rx="8" fill="black"/>
<path d="M30.3377 25.0049C30.3476 24.2383 30.5512 23.4868 30.9297 22.82C31.3081 22.1533 31.849 21.593 32.5022 21.1915C32.0872 20.599 31.5399 20.1113 30.9035 19.7673C30.2672 19.4233 29.5595 19.2324 28.8365 19.2098C27.2942 19.0479 25.799 20.1327 25.0131 20.1327C24.2119 20.1327 23.0019 19.2259 21.6989 19.2527C20.856 19.2799 20.0346 19.525 19.3147 19.9641C18.5947 20.4032 18.0007 21.0212 17.5908 21.7581C15.8145 24.8334 17.1394 29.3531 18.8409 31.839C19.6922 33.0563 20.6872 34.416 21.989 34.3677C23.263 34.3149 23.7387 33.5554 25.2765 33.5554C26.8 33.5554 27.2464 34.3677 28.5746 34.3371C29.9416 34.3149 30.8028 33.1144 31.6243 31.8856C32.236 31.0183 32.7067 30.0597 33.0189 29.0454C32.2247 28.7094 31.547 28.1472 31.0702 27.4287C30.5934 26.7102 30.3387 25.8673 30.3377 25.0049Z" fill="white"/>
<path d="M27.8302 17.5751C28.5757 16.6803 28.9428 15.5303 28.8538 14.3691C27.7152 14.4887 26.6634 15.033 25.9079 15.8934C25.5385 16.3138 25.2557 16.8027 25.0755 17.3325C24.8952 17.8623 24.8211 18.4222 24.8575 18.9806C25.427 18.9865 25.9905 18.8631 26.5055 18.6196C27.0204 18.3761 27.4733 18.0189 27.8302 17.5751Z" fill="white"/>
</svg>
