<svg width="80" height="81" viewBox="0 0 80 81" fill="none" xmlns="http://www.w3.org/2000/svg">
<path d="M63.5396 24.7917V1.56668C63.5397 1.15081 63.3529 0.756922 63.0308 0.493869C62.7087 0.230816 62.2854 0.126456 61.8779 0.20963C42.9221 4.49681 40.3229 18.2335 40.0404 20.3605C40.0127 20.5405 39.9989 20.6374 39.9989 20.6374C39.9989 20.6374 39.985 20.5405 39.9574 20.3605C39.6804 18.2335 37.0757 4.49681 18.1226 0.20963C17.7152 0.126456 17.2919 0.230816 16.9698 0.493869C16.6477 0.756922 16.4609 1.15081 16.4609 1.56668V24.7917H63.5396Z" fill="#B19046"/>
<path d="M3.13867 11.6645L7.1309 6.67936C7.75932 5.89002 8.76727 5.50488 9.76192 5.67403C26.9743 8.75233 40.0007 17.9512 40.0007 20.6376C40.0007 17.9512 53.027 8.75233 70.2367 5.67403C71.2313 5.50488 72.2393 5.89002 72.8677 6.67936L76.8599 11.6645V35.8699H3.13867V11.6645Z" fill="#E4C05C"/>
<path d="M78.2186 11.0629L46.3694 25.0765C45.8654 25.2965 45.5393 25.7937 45.5385 26.3436V26.176C45.5385 25.4112 44.9185 24.7913 44.1538 24.7913H35.8453C35.0805 24.7913 34.4605 25.4112 34.4605 26.176V26.3436C34.4597 25.7937 34.1336 25.2965 33.6297 25.0765L1.78044 11.0629C1.35291 10.8763 0.860152 10.9175 0.469542 11.1725C0.0789323 11.4275 -0.15703 11.8621 -0.158203 12.3285V64.6942C-0.15737 65.244 0.168704 65.7413 0.672646 65.9612L32.5219 79.9749C32.9496 80.1616 33.4427 80.1202 33.8333 79.8649C34.224 79.6095 34.4598 79.1746 34.4605 78.7078V78.7965C34.4605 79.5612 35.0805 80.1812 35.8453 80.1812H44.1538C44.9185 80.1812 45.5385 79.5612 45.5385 78.7965V78.7078C45.5392 79.1746 45.775 79.6095 46.1657 79.8649C46.5564 80.1202 47.0494 80.1616 47.4772 79.9749L79.3264 65.9612C79.8303 65.7413 80.1564 65.244 80.1572 64.6942V12.3285C80.1561 11.8621 79.9201 11.4275 79.5295 11.1725C79.1389 10.9175 78.6461 10.8763 78.2186 11.0629Z" fill="#C03A2B"/>
<path d="M44.1522 24.791H35.8437C35.079 24.791 34.459 25.411 34.459 26.1758V78.7962C34.459 79.561 35.079 80.181 35.8437 80.181H44.1522C44.917 80.181 45.537 79.561 45.537 78.7962V26.1758C45.537 25.411 44.917 24.791 44.1522 24.791Z" fill="#E64C3C"/>
<path d="M44.1522 33.0996H35.8437C35.079 33.0996 34.459 33.7196 34.459 34.4844V37.2539C34.459 38.0186 35.079 38.6386 35.8437 38.6386H44.1522C44.917 38.6386 45.537 38.0186 45.537 37.2539V34.4844C45.537 33.7196 44.917 33.0996 44.1522 33.0996Z" fill="#F0C419"/>
<path d="M44.1522 66.334H35.8437C35.079 66.334 34.459 66.954 34.459 67.7187V70.4882C34.459 71.253 35.079 71.873 35.8437 71.873H44.1522C44.917 71.873 45.537 71.253 45.537 70.4882V67.7187C45.537 66.954 44.917 66.334 44.1522 66.334Z" fill="#F0C419"/>
<path d="M73.824 37.6282L53.0528 47.4032C52.6238 47.6052 52.1212 47.5736 51.7209 47.3195C51.3205 47.0655 51.078 46.6242 51.0781 46.15V35.3642C51.078 34.8278 51.3877 34.3395 51.873 34.111L72.6442 24.336C73.0732 24.134 73.5757 24.1656 73.9761 24.4197C74.3765 24.6738 74.619 25.1151 74.6189 25.5892V36.375C74.619 36.9115 74.3093 37.3997 73.824 37.6282Z" fill="#FB7B76"/>
<path d="M6.17766 37.6282L26.9489 47.4032C27.3779 47.6052 27.8804 47.5736 28.2808 47.3195C28.6812 47.0655 28.9237 46.6242 28.9235 46.15V35.3642C28.9237 34.8278 28.614 34.3395 28.1287 34.111L7.35746 24.336C6.92846 24.134 6.42592 24.1656 6.02556 24.4197C5.62519 24.6738 5.38268 25.1151 5.38281 25.5892V36.375C5.38266 36.9115 5.69234 37.3997 6.17766 37.6282Z" fill="#FB7B76"/>
<path d="M44.1522 33.0996H35.8437C35.079 33.0996 34.459 33.7196 34.459 34.4844V37.2539C34.459 38.0186 35.079 38.6386 35.8437 38.6386H44.1522C44.917 38.6386 45.537 38.0186 45.537 37.2539V34.4844C45.537 33.7196 44.917 33.0996 44.1522 33.0996Z" fill="#F0C419"/>
<path d="M44.1522 66.334H35.8437C35.079 66.334 34.459 66.954 34.459 67.7187V70.4882C34.459 71.253 35.079 71.873 35.8437 71.873H44.1522C44.917 71.873 45.537 71.253 45.537 70.4882V67.7187C45.537 66.954 44.917 66.334 44.1522 66.334Z" fill="#F0C419"/>
<path d="M28.9219 56.6408C28.718 56.6412 28.5165 56.5963 28.332 56.5093L4.7913 45.4313C4.34358 45.2205 4.0423 44.7869 4.00095 44.2938C3.9596 43.8007 4.18447 43.323 4.59085 43.0406C4.99723 42.7582 5.52338 42.7141 5.97111 42.9249L29.5118 54.0029C30.0989 54.2788 30.4157 54.9252 30.2741 55.5583C30.1326 56.1913 29.5706 56.6412 28.9219 56.6408Z" fill="#F29C1F"/>
<path d="M26.1191 62.2462C25.9151 62.2466 25.7136 62.2017 25.5292 62.1146L7.59532 53.6718C7.13305 53.4704 6.81681 53.0336 6.76974 52.5316C6.72266 52.0296 6.9522 51.5416 7.36897 51.2578C7.78573 50.974 8.32384 50.9391 8.77374 51.1668L26.7132 59.6138C27.2919 59.894 27.6016 60.5357 27.4609 61.1631C27.3202 61.7905 26.7662 62.2385 26.1233 62.2448L26.1191 62.2462Z" fill="#F29C1F"/>
<path d="M51.0771 56.6411C50.4285 56.6415 49.8665 56.1916 49.7249 55.5586C49.5834 54.9256 49.9002 54.2791 50.4872 54.0032L74.0279 42.9252C74.7201 42.5994 75.5452 42.8964 75.871 43.5885C76.1968 44.2806 75.8999 45.1058 75.2077 45.4316L51.667 56.5096C51.4825 56.5963 51.281 56.6413 51.0771 56.6411Z" fill="#F29C1F"/>
<path d="M53.8772 62.2467C53.2342 62.2405 52.6802 61.7924 52.5395 61.165C52.3989 60.5376 52.7086 59.8959 53.2873 59.6157L71.2267 51.1688C71.6766 50.9411 72.2147 50.9759 72.6315 51.2598C73.0482 51.5436 73.2778 52.0315 73.2307 52.5336C73.1836 53.0356 72.8674 53.4724 72.4051 53.6738L54.4671 62.1207C54.2821 62.2056 54.0807 62.2486 53.8772 62.2467Z" fill="#F29C1F"/>
</svg>
