<svg width="40" height="41" viewBox="0 0 40 41" fill="none" xmlns="http://www.w3.org/2000/svg">
<path d="M29.1758 3.54589C21.3815 4.90557 20 12.6813 20 12.6813V36.848C20 36.848 21.4778 28.7267 30.0007 27.7793C30.9155 27.6777 31.6667 26.944 31.6667 26.0243V5.83647C31.6667 4.45699 30.536 3.30862 29.1758 3.54589Z" stroke="#74767C" stroke-width="2.5" stroke-linecap="round" stroke-linejoin="round"/>
<path d="M8.88758 8.51466C12.9883 8.50893 16.9462 9.99313 19.9987 12.6813V36.848C16.9462 34.1598 12.9883 32.6756 8.88758 32.6813C6.28423 32.6813 4.98256 32.6813 4.40746 32.3133C4.0622 32.0923 3.92113 31.9511 3.70013 31.6058C3.33203 31.0308 3.33203 30.0048 3.33203 27.9528V14.1867C3.33203 11.807 3.33203 10.6172 4.2466 9.65275C5.16116 8.68828 6.09741 8.63851 7.9699 8.53898C8.2737 8.52283 8.57966 8.51466 8.88758 8.51466Z" stroke="#74767C" stroke-width="2.5" stroke-linecap="round" stroke-linejoin="round"/>
<path d="M20 36.8496C23.0525 34.1615 27.0103 32.6773 31.1112 32.683C33.7145 32.683 35.0162 32.683 35.5912 32.315C35.9365 32.094 36.0775 31.9528 36.2985 31.6076C36.6667 31.0325 36.6667 30.0065 36.6667 27.9545V14.1884C36.6667 11.8087 36.6667 10.6189 35.7522 9.65445C34.8375 8.68998 33.5392 8.61418 31.6667 8.51465" stroke="#74767C" stroke-width="2.5" stroke-linecap="round" stroke-linejoin="round"/>
</svg>
