<svg width="21" height="21" viewBox="0 0 21 21" fill="none" xmlns="http://www.w3.org/2000/svg">
<path d="M11.7754 2.75195C15.4573 2.75195 18.4421 5.73672 18.4421 9.41862M12.1921 5.66862C14.033 5.66862 15.5254 7.161 15.5254 9.00195" stroke="#141B34" stroke-linecap="round" stroke-linejoin="round"/>
<path d="M8.57328 5.01214L8.23774 4.25716C8.01834 3.76352 7.90864 3.51669 7.74457 3.32779C7.53897 3.09107 7.27097 2.9169 6.97113 2.82516C6.73189 2.75195 6.46179 2.75195 5.92158 2.75195C5.13133 2.75195 4.7362 2.75195 4.40452 2.90386C4.0138 3.0828 3.66093 3.47135 3.52035 3.87745C3.401 4.22219 3.43518 4.57648 3.50356 5.28504C4.23133 12.8271 8.36625 16.962 15.9083 17.6898C16.6169 17.7582 16.9712 17.7924 17.3159 17.673C17.722 17.5325 18.1106 17.1795 18.2895 16.7889C18.4414 16.4571 18.4414 16.062 18.4414 15.2718C18.4414 14.7315 18.4414 14.4615 18.3682 14.2222C18.2765 13.9224 18.1023 13.6544 17.8656 13.4488C17.6767 13.2847 17.4298 13.175 16.9362 12.9556L16.1812 12.62C15.6466 12.3825 15.3793 12.2637 15.1077 12.2379C14.8477 12.2131 14.5857 12.2496 14.3423 12.3444C14.0881 12.4434 13.8633 12.6306 13.4139 13.0051C12.9665 13.378 12.7428 13.5644 12.4695 13.6642C12.2272 13.7527 11.9069 13.7855 11.6517 13.7479C11.3638 13.7055 11.1433 13.5877 10.7025 13.352C9.33074 12.619 8.57435 11.8626 7.84129 10.4909C7.60569 10.05 7.48789 9.82954 7.44547 9.5417C7.40786 9.28645 7.44064 8.96612 7.52916 8.72387C7.62901 8.45052 7.81542 8.22684 8.18823 7.77945C8.56276 7.33002 8.75002 7.1053 8.84903 6.85104C8.94378 6.60774 8.98025 6.34562 8.95552 6.08569C8.92969 5.81405 8.81089 5.54675 8.57328 5.01214Z" fill="#141B34"/>
</svg>
