<svg width="21" height="21" viewBox="0 0 21 21" fill="none" xmlns="http://www.w3.org/2000/svg">
<path d="M12.6055 17.7533H14.2721M12.6055 17.7533C11.9151 17.7533 11.3555 17.1936 11.3555 16.5033V14.4199H10.9388M12.6055 17.7533H9.27214M10.9388 14.4199H10.5221V16.5033C10.5221 17.1936 9.96247 17.7533 9.27214 17.7533M10.9388 14.4199V17.7533M9.27214 17.7533H7.60547" stroke="white" stroke-width="1.25" stroke-linecap="round" stroke-linejoin="round"/>
<path d="M14.2721 2.75195H7.60547C5.24844 2.75195 4.06994 2.75195 3.3377 3.48419C2.60547 4.21642 2.60547 5.39493 2.60547 7.75195V9.41862C2.60547 11.7756 2.60547 12.9541 3.3377 13.6864C4.06994 14.4186 5.24844 14.4186 7.60547 14.4186H14.2721C16.6291 14.4186 17.8076 14.4186 18.5399 13.6864C19.2721 12.9541 19.2721 11.7756 19.2721 9.41862V7.75195C19.2721 5.39493 19.2721 4.21642 18.5399 3.48419C17.8076 2.75195 16.6291 2.75195 14.2721 2.75195Z" stroke="white" stroke-width="1.25" stroke-linecap="round" stroke-linejoin="round"/>
<path d="M13.0907 7.94648L10.2682 6.18242C10.1653 6.11809 10.0463 6.08398 9.92493 6.08398C9.56726 6.08398 9.27734 6.37393 9.27734 6.73158V10.4364C9.27734 10.7941 9.56726 11.084 9.92493 11.084C10.0463 11.084 10.1653 11.0499 10.2682 10.9856L13.0907 9.22148C13.3105 9.08407 13.444 8.84315 13.444 8.58398C13.444 8.32478 13.3105 8.08386 13.0907 7.94648Z" stroke="white" stroke-width="1.25" stroke-linecap="round" stroke-linejoin="round"/>
</svg>
