<svg width="33" height="33" viewBox="0 0 33 33" fill="none" xmlns="http://www.w3.org/2000/svg">
<g clip-path="url(#clip0_263_971)">
<path d="M22.7853 13.8664L23.3252 12.2205C23.3252 12.2205 24.2749 11.9692 24.7759 12.943C25.2768 13.9166 23.9659 15.9173 22.8351 16.0854C22.5217 15.3238 22.7853 13.8664 22.7853 13.8664Z" fill="#FFDBBD"/>
<path d="M10.8953 13.8664L10.3555 12.2205C10.3555 12.2205 9.40569 11.9692 8.90477 12.943C8.40385 13.9167 9.71469 15.9173 10.8455 16.0854C11.159 15.3238 10.8953 13.8664 10.8953 13.8664Z" fill="#FFDBBD"/>
<path d="M29.3473 29.6716C29.3473 29.6716 29.0906 28.6874 28.8338 27.746C28.1064 24.7933 27.1863 24.5794 26.0309 24.2585C24.8755 23.9375 21.0885 22.718 20.1256 22.5254H13.7548C12.792 22.718 9.00491 23.9375 7.84953 24.2585C6.69415 24.5794 5.77415 24.7933 5.04671 27.746C4.78995 28.6874 4.5332 29.6716 4.5332 29.6716C4.5332 29.6716 7.16985 32.707 16.6033 32.7934C16.6895 32.7946 17.1911 32.7946 17.2772 32.7934C26.7107 32.707 29.3473 29.6716 29.3473 29.6716Z" fill="#F4F4F4"/>
<path d="M20.3015 21.7084C19.9227 20.7436 19.8356 19.7041 19.8356 19.7041H14.0049C14.0049 19.7041 13.9178 20.7436 13.5391 21.7084C13.8605 22.3058 16.6296 23.8519 16.8945 24.0951H16.921C17.186 23.8519 19.9801 22.3058 20.3015 21.7084Z" fill="#FFDBBD"/>
<path d="M19.9533 20.4681C19.8657 20.0216 19.839 19.7041 19.839 19.7041H14.0083C14.0083 19.7041 13.9755 20.0939 13.8633 20.6174C14.3944 21.0544 15.7247 22.0309 17.0084 22.0309C18.3137 22.0309 19.508 20.9314 19.9533 20.4681Z" fill="#EABEA0"/>
<path d="M16.8701 5.80696L16.8699 5.80664C16.8654 5.80664 16.8469 5.80664 16.8424 5.80664L16.8422 5.80696C14.5207 5.82076 9.66771 7.58432 10.2491 13.4664C10.5627 16.8387 12.9726 21.3604 16.8418 21.3823C16.842 21.3825 16.8421 21.3826 16.8423 21.3828H16.8698C16.87 21.3826 16.8702 21.3825 16.8704 21.3823C20.7395 21.3604 23.1495 16.8387 23.463 13.4664C24.0446 7.58432 19.1916 5.82076 16.8701 5.80696Z" fill="#FFDBBD"/>
<path d="M10.5725 15.2011C10.7127 13.3119 10.9236 10.6848 13.5398 10.3318C16.156 9.97877 19.1134 8.45977 19.4937 7.50754C19.59 8.47036 20.2961 10.0109 21.4194 11.0379C22.5427 12.0649 23.1929 12.8813 23.1406 15.2011C23.386 14.0732 24.4254 11.1662 22.6817 8.40617C20.938 5.6461 16.2523 3.78465 12.1764 7.02614C10.9247 8.21361 9.22536 11.3729 10.5725 15.2011Z" fill="#513E36"/>
<path d="M18.1722 25.0139C18.1722 25.0139 17.1009 24.0781 16.9291 24.0781L16.9288 24.0785L16.9286 24.0781C16.7568 24.0781 15.6855 25.0139 15.6855 25.0139L15.4746 26.0219C15.4746 26.0219 16.228 27.2378 16.9286 27.2378C16.9287 27.2378 16.9288 27.2376 16.9288 27.2376C16.9288 27.2376 16.929 27.2378 16.9291 27.2378C17.6298 27.2378 18.3832 26.0219 18.3832 26.0219L18.1722 25.0139Z" fill="#2B3841"/>
<path d="M16.9279 26.5703H16.9276H16.9274C16.4677 26.5704 16.1987 26.6738 16.1404 26.9578C16.0935 27.1865 14.9971 31.1696 14.5723 32.7105C15.2119 32.7485 15.8882 32.7722 16.6044 32.7787C16.6906 32.78 17.1922 32.78 17.2784 32.7787C17.9482 32.7727 18.5826 32.7511 19.1854 32.7175C18.8229 31.3103 17.7635 27.1936 17.7152 26.9583C17.657 26.6744 17.3875 26.5705 16.9279 26.5703Z" fill="#2B3841"/>
<path d="M13.5803 21.5957L12.5566 22.8431L14.8641 26.8431L16.9287 24.083L13.5803 21.5957Z" fill="white"/>
<path d="M20.2907 21.5957L21.3143 22.8431L19.007 26.8431L16.9355 24.083L20.2907 21.5957Z" fill="white"/>
<path d="M28.8339 27.747C28.1065 24.7944 27.1864 24.5804 26.031 24.2595C25.315 24.0606 23.5888 23.5168 22.1499 23.0859C21.3921 24.6603 19.4103 28.2944 16.9408 29.0659C16.9406 29.0668 16.9405 29.0677 16.9403 29.0686C16.939 29.0682 16.9378 29.0677 16.9366 29.0673C16.9353 29.0677 16.9341 29.0681 16.9328 29.0686C16.9326 29.0677 16.9325 29.0668 16.9323 29.0659C14.4638 28.2947 12.4826 24.6634 11.7242 23.0879C10.2866 23.5184 8.56452 24.0608 7.84959 24.2594C6.69421 24.5804 5.77421 24.7943 5.04671 27.7469C4.78995 28.6884 4.5332 29.6726 4.5332 29.6726C4.5332 29.6726 7.16985 32.7079 16.6033 32.7943C16.6895 32.7956 17.1911 32.7956 17.2772 32.7943C26.7107 32.7079 29.3473 29.6726 29.3473 29.6726C29.3473 29.6726 29.0907 28.6884 28.8339 27.747Z" fill="#333841"/>
<path d="M26.283 28.0371C26.2758 28.8063 26.2017 30.7952 26.0332 31.5183C26.2815 31.4294 26.4393 31.3701 26.4393 31.3701C26.4857 30.7838 26.6013 29.4134 26.283 28.0371Z" fill="#3D454E"/>
<path d="M7.58455 28.0371C7.59168 28.8063 7.66581 30.7952 7.83431 31.5183C7.58603 31.4294 7.42819 31.3701 7.42819 31.3701C7.38178 30.7838 7.26618 29.4134 7.58455 28.0371Z" fill="#3D454E"/>
<path d="M6.61719 5.15332H7.07196V10.7153H6.61719V5.15332Z" fill="#FBB342"/>
<path d="M7.70235 11.0123C7.70235 10.539 7.31864 10.1553 6.84532 10.1553C6.372 10.1553 5.98828 10.539 5.98828 11.0123V17.0019H7.70235V11.0123Z" fill="#FDD148"/>
<path d="M6.84512 9.76611C7.33345 9.76611 7.72931 9.3561 7.72931 8.85034C7.72931 8.34457 7.33345 7.93457 6.84512 7.93457C6.3568 7.93457 5.96094 8.34457 5.96094 8.85034C5.96094 9.3561 6.3568 9.76611 6.84512 9.76611Z" fill="#FDD148"/>
<path d="M16.9336 8.64824L29.0977 4.80326L16.9278 0.794922L4.75781 4.80326L16.9219 8.64824L16.9243 8.65119L16.9278 8.6501L16.9312 8.65119L16.9336 8.64824Z" fill="#333841"/>
<path d="M16.9768 3.62513C16.9745 3.62513 16.9722 3.625 16.9699 3.625C16.9687 3.625 16.9677 3.625 16.9666 3.625C16.9655 3.625 16.9643 3.625 16.9632 3.625C16.9609 3.625 16.9587 3.62506 16.9564 3.62513C14.0971 3.62718 11.8366 4.27959 10.2969 5.25749V10.0616C10.2969 10.0616 13.1804 8.89752 16.9608 10.338C16.9616 10.3392 16.9624 10.3403 16.9632 10.3414C16.9644 10.341 16.9655 10.3406 16.9666 10.3402C16.9677 10.3406 16.9688 10.341 16.9699 10.3414C16.9707 10.3403 16.9715 10.3392 16.9723 10.338C20.7528 8.89752 23.6363 10.0616 23.6363 10.0616V5.25749C22.0966 4.27959 19.8361 3.62725 16.9768 3.62513Z" fill="#3D454E"/>
</g>
<defs>
<clipPath id="clip0_263_971">
<rect width="32" height="32" fill="white" transform="translate(0.941406 0.794922)"/>
</clipPath>
</defs>
</svg>
