<svg width="25" height="24" viewBox="0 0 25 24" fill="none" xmlns="http://www.w3.org/2000/svg">
<path d="M20.1171 15C20.1171 16.8638 20.1171 17.7956 19.8126 18.5307C19.4066 19.5108 18.6279 20.2895 17.6478 20.6955C16.9127 21 15.9808 21 14.1171 21H11.1171C7.34593 21 5.46029 21 4.28872 19.8284C3.11714 18.6568 3.11716 16.7712 3.11719 12.9999L3.11725 6.99983C3.11727 4.79078 4.90807 3 7.11712 3" stroke="#0047FF" stroke-width="2.5" stroke-linecap="round" stroke-linejoin="round"/>
<path d="M10.1171 8.5L10.5508 12.4689C10.5922 12.8007 10.7961 13.0899 11.1033 13.2219C11.7893 13.5165 13.0741 14 14.1171 14C15.1602 14 16.445 13.5165 17.131 13.2219C17.4382 13.0899 17.6421 12.8007 17.6835 12.4689L18.1171 8.5M20.6171 7.5V11.2692M14.1171 4L7.11719 7L14.1171 10L21.1171 7L14.1171 4Z" stroke="#0047FF" stroke-width="2.5" stroke-linecap="round" stroke-linejoin="round"/>
</svg>
