<svg width="20" height="21" viewBox="0 0 20 21" fill="none" xmlns="http://www.w3.org/2000/svg">
<path d="M2.08398 10.2516C2.08398 6.51968 2.08398 4.6537 3.24335 3.49433C4.40273 2.33496 6.2687 2.33496 10.0007 2.33496C13.7326 2.33496 15.5986 2.33496 16.758 3.49433C17.9173 4.6537 17.9173 6.51968 17.9173 10.2516C17.9173 13.9835 17.9173 15.8495 16.758 17.009C15.5986 18.1683 13.7326 18.1683 10.0007 18.1683C6.2687 18.1683 4.40273 18.1683 3.24335 17.009C2.08398 15.8495 2.08398 13.9835 2.08398 10.2516Z" stroke="#141B34" stroke-width="1.25" stroke-linecap="round" stroke-linejoin="round"/>
<path d="M13.3327 10.6686C13.3327 10.6686 10.8777 14.002 9.99932 14.002C9.12091 14.002 6.66602 10.6686 6.66602 10.6686M9.99932 13.5853V6.50195" stroke="#141B34" stroke-width="1.25" stroke-linecap="round" stroke-linejoin="round"/>
</svg>
