<svg width="21" height="21" viewBox="0 0 21 21" fill="none" xmlns="http://www.w3.org/2000/svg">
<path d="M2.20117 10.5C2.20117 6.76809 2.20117 4.90212 3.36054 3.74274C4.51991 2.58337 6.38589 2.58337 10.1178 2.58337C13.8498 2.58337 15.7158 2.58337 16.8752 3.74274C18.0345 4.90212 18.0345 6.76809 18.0345 10.5C18.0345 14.232 18.0345 16.098 16.8752 17.2574C15.7158 18.4167 13.8498 18.4167 10.1178 18.4167C6.38589 18.4167 4.51991 18.4167 3.36054 17.2574C2.20117 16.098 2.20117 14.232 2.20117 10.5Z" stroke="#141B34" stroke-width="1.25" stroke-linecap="round" stroke-linejoin="round"/>
<path d="M13.4498 10.9167C13.4498 10.9167 10.9949 14.25 10.1165 14.25C9.2381 14.25 6.7832 10.9167 6.7832 10.9167M10.1165 13.8333V6.75" stroke="#141B34" stroke-width="1.25" stroke-linecap="round" stroke-linejoin="round"/>
</svg>
