<svg width="330" height="239" viewBox="0 0 330 239" fill="none" xmlns="http://www.w3.org/2000/svg">
<rect x="0.710815" y="0.188477" width="328.34" height="238.18" rx="16" fill="white"/>
<g clip-path="url(#clip0_205_3042)">
<path d="M190.287 84.7026C186.955 87.0926 182.278 90.271 180.168 90.271C179.75 90.271 179.616 90.145 179.519 90.0265C178.657 88.9646 178.89 85.241 180.213 78.9636C180.344 78.3419 180.016 77.7168 179.433 77.471C178.85 77.2238 178.172 77.4263 177.819 77.9518C173.267 84.7385 171.183 86.1621 170.238 86.1621C168.897 86.1621 167.536 82.3072 166.184 74.7031C166.076 74.0962 165.564 73.654 164.956 73.6188V73.6113C164.943 73.6113 164.931 73.614 164.918 73.614C164.905 73.614 164.891 73.6113 164.879 73.6113V73.6188C164.273 73.654 163.762 74.0962 163.652 74.7031C162.299 82.3072 160.936 86.1621 159.597 86.1621C158.651 86.1621 156.568 84.7378 152.017 77.9518C151.664 77.4263 150.987 77.2238 150.402 77.471C149.819 77.7168 149.491 78.3419 149.622 78.9636C150.944 85.241 151.179 88.9646 150.316 90.0265C150.22 90.1457 150.084 90.271 149.667 90.271C147.557 90.271 142.88 87.0933 139.547 84.7026C139.02 84.324 138.297 84.3857 137.84 84.8442C137.382 85.3006 137.322 86.0233 137.7 86.5508C145.321 96.2978 143.887 107.485 143.887 107.485C143.859 107.64 143.844 107.798 143.844 107.965C143.844 110.713 147.692 111.801 151.044 112.441C154.737 113.149 159.601 113.543 164.769 113.557V113.558C164.818 113.558 164.869 113.558 164.918 113.557C164.967 113.558 165.017 113.558 165.068 113.558V113.557C170.234 113.543 175.099 113.148 178.791 112.441C182.143 111.801 185.992 110.711 185.992 107.965C185.992 107.798 185.977 107.64 185.949 107.485C185.949 107.485 184.515 96.2958 192.135 86.5508C192.514 86.0239 192.454 85.3006 191.996 84.8442C191.537 84.387 190.815 84.3247 190.287 84.7026ZM165.066 109.765H165.056C165.009 109.765 164.963 109.767 164.917 109.767C164.869 109.767 164.825 109.765 164.778 109.765H164.768C156.555 109.741 151.125 108.786 148.729 107.965C151.125 107.144 156.555 106.188 164.768 106.165H164.787C164.83 106.165 164.873 106.165 164.916 106.165C164.959 106.165 165 106.165 165.045 106.165H165.065C173.277 106.188 178.706 107.144 181.103 107.965C178.707 108.786 173.279 109.741 165.066 109.765Z" fill="#001C99"/>
<path d="M164.918 72.0076C167.13 72.0076 168.923 70.2144 168.923 68.0023C168.923 65.7903 167.13 63.9971 164.918 63.9971C162.706 63.9971 160.913 65.7903 160.913 68.0023C160.913 70.2144 162.706 72.0076 164.918 72.0076Z" fill="#001C99"/>
<path d="M148.009 76.1789C149.853 76.1789 151.347 74.6846 151.347 72.8414C151.347 70.9981 149.853 69.5039 148.009 69.5039C146.166 69.5039 144.672 70.9981 144.672 72.8414C144.672 74.6846 146.166 76.1789 148.009 76.1789Z" fill="#001C99"/>
<path d="M181.546 76.1789C183.39 76.1789 184.884 74.6846 184.884 72.8414C184.884 70.9981 183.39 69.5039 181.546 69.5039C179.703 69.5039 178.209 70.9981 178.209 72.8414C178.209 74.6846 179.703 76.1789 181.546 76.1789Z" fill="#001C99"/>
<path d="M135.131 84.6002C136.373 84.6002 137.38 83.5929 137.38 82.3504C137.38 81.1079 136.373 80.1006 135.131 80.1006C133.888 80.1006 132.881 81.1079 132.881 82.3504C132.881 83.5929 133.888 84.6002 135.131 84.6002Z" fill="#001C99"/>
<path d="M194.631 84.6002C195.873 84.6002 196.88 83.5929 196.88 82.3504C196.88 81.1079 195.873 80.1006 194.631 80.1006C193.388 80.1006 192.381 81.1079 192.381 82.3504C192.381 83.5929 193.388 84.6002 194.631 84.6002Z" fill="#001C99"/>
</g>
<path d="M79.2329 141.826V143.586H77.6969V151.778H75.5849V143.586H74.0489V141.826H75.6009C75.4303 141.634 75.2436 141.416 75.0409 141.17C74.8489 140.925 74.6783 140.701 74.5289 140.498C75.0623 139.634 75.5849 138.957 76.0969 138.466C76.6196 137.976 77.1689 137.629 77.7449 137.426C78.3209 137.213 78.9556 137.106 79.6489 137.106C80.1609 137.106 80.6463 137.149 81.1049 137.234C81.5743 137.32 82.0596 137.469 82.5609 137.682C83.0729 137.885 83.6383 138.162 84.2569 138.514C84.8756 138.856 85.5956 139.282 86.4169 139.794L85.3289 141.218C84.4649 140.664 83.7289 140.216 83.1209 139.874C82.5129 139.522 81.9583 139.266 81.4569 139.106C80.9556 138.946 80.4276 138.866 79.8729 138.866C79.3716 138.866 78.9343 138.962 78.5609 139.154C78.1876 139.346 77.8623 139.586 77.5849 139.874C77.3183 140.162 77.0836 140.461 76.8809 140.77C76.9769 140.941 77.0889 141.122 77.2169 141.314C77.3449 141.506 77.4783 141.677 77.6169 141.826H79.2329ZM91.0843 141.826V143.586H85.5163V145.65C85.5163 145.81 85.543 145.949 85.5963 146.066C85.6496 146.173 85.7616 146.226 85.9323 146.226C86.071 146.226 86.2203 146.178 86.3803 146.082C86.5403 145.976 86.7003 145.832 86.8603 145.65C87.031 145.458 87.2016 145.245 87.3723 145.01L89.2443 144.658C89.607 145.181 89.879 145.709 90.0603 146.242C90.2416 146.765 90.3323 147.33 90.3323 147.938C90.3323 148.61 90.167 149.213 89.8363 149.746C89.5163 150.269 89.031 150.685 88.3803 150.994C87.7403 151.304 86.9456 151.458 85.9963 151.458C85.2923 151.458 84.615 151.357 83.9643 151.154C83.3136 150.952 82.7003 150.61 82.1243 150.13C81.559 149.64 81.0363 148.973 80.5563 148.13C80.087 147.277 79.6763 146.21 79.3243 144.93L81.3243 144.37C81.6763 145.64 82.0763 146.664 82.5243 147.442C82.9723 148.21 83.4683 148.77 84.0123 149.122C84.567 149.464 85.1696 149.634 85.8203 149.634C86.5883 149.634 87.1803 149.464 87.5963 149.122C88.023 148.77 88.2363 148.285 88.2363 147.666C88.2363 147.25 88.1616 146.909 88.0123 146.642C87.863 146.376 87.6923 146.125 87.5003 145.89L89.1323 145.762C88.7483 146.274 88.359 146.696 87.9643 147.026C87.5696 147.357 87.1696 147.602 86.7643 147.762C86.3696 147.922 85.959 148.002 85.5323 148.002C85.191 148.002 84.887 147.954 84.6203 147.858C84.3536 147.752 84.1296 147.597 83.9483 147.394C83.767 147.192 83.6283 146.93 83.5323 146.61C83.447 146.29 83.4043 145.88 83.4043 145.378V143.586H78.9083V141.826H91.0843ZM97.9677 151.298C97.1997 151.298 96.4797 151.197 95.8077 150.994C95.1357 150.781 94.5117 150.434 93.9357 149.954C93.3704 149.474 92.853 148.824 92.3837 148.002C91.925 147.181 91.525 146.157 91.1837 144.93L93.1837 144.37C93.557 145.661 93.9624 146.68 94.3997 147.426C94.8477 148.162 95.3544 148.685 95.9197 148.994C96.485 149.304 97.1304 149.458 97.8557 149.458C98.613 149.458 99.1517 149.325 99.4717 149.058C99.8024 148.781 99.9677 148.429 99.9677 148.002C99.9677 147.64 99.925 147.341 99.8397 147.106C99.765 146.872 99.685 146.674 99.5997 146.514L101.072 146.594C100.741 146.893 100.41 147.16 100.08 147.394C99.749 147.618 99.3864 147.8 98.9917 147.938C98.6077 148.066 98.149 148.13 97.6157 148.13C97.157 148.13 96.7464 148.056 96.3837 147.906C96.021 147.757 95.733 147.528 95.5197 147.218C95.317 146.898 95.2157 146.493 95.2157 146.002C95.2157 145.576 95.333 145.16 95.5677 144.754C95.8024 144.338 96.2397 143.944 96.8797 143.57C96.677 143.581 96.4904 143.586 96.3197 143.586C96.1597 143.586 95.973 143.586 95.7597 143.586H90.7677V141.826H107.04V143.586H102.304C102.016 143.586 101.68 143.581 101.296 143.57C100.922 143.549 100.597 143.533 100.32 143.522C99.6904 143.736 99.1517 143.97 98.7037 144.226C98.2557 144.472 97.9144 144.728 97.6797 144.994C97.445 145.25 97.3277 145.501 97.3277 145.746C97.3277 145.96 97.3864 146.12 97.5037 146.226C97.621 146.322 97.7597 146.37 97.9197 146.37C98.2077 146.37 98.4637 146.312 98.6877 146.194C98.9117 146.077 99.1677 145.912 99.4557 145.698L101.792 146.386C101.866 146.6 101.925 146.845 101.968 147.122C102.021 147.4 102.048 147.693 102.048 148.002C102.048 148.536 101.914 149.058 101.648 149.57C101.381 150.072 100.949 150.488 100.352 150.818C99.7544 151.138 98.9597 151.298 97.9677 151.298ZM105.312 148.626C105.312 149.053 105.354 149.512 105.44 150.002C105.536 150.493 105.669 151 105.84 151.522L103.776 151.954C103.573 151.378 103.424 150.824 103.328 150.29C103.232 149.757 103.184 149.165 103.184 148.514C103.184 148.12 103.21 147.736 103.264 147.362C103.328 146.978 103.418 146.621 103.536 146.29C102.736 146.173 102.048 145.992 101.472 145.746C100.896 145.501 100.41 145.202 100.016 144.85C99.6317 144.488 99.3117 144.082 99.0557 143.634L101.264 143.426C101.392 143.618 101.573 143.805 101.808 143.986C102.053 144.157 102.368 144.301 102.752 144.418C103.146 144.525 103.632 144.578 104.208 144.578C104.325 144.578 104.437 144.573 104.544 144.562C104.661 144.552 104.805 144.541 104.976 144.53L105.952 146.114C105.749 146.477 105.589 146.861 105.472 147.266C105.365 147.672 105.312 148.125 105.312 148.626ZM102.266 156.034C101.903 156.034 101.53 155.965 101.146 155.826C100.751 155.698 100.421 155.49 100.154 155.202C99.8874 154.914 99.7541 154.53 99.7541 154.05C99.7541 153.464 99.9781 152.994 100.426 152.642C100.863 152.29 101.503 152.114 102.346 152.114C103.114 152.114 103.829 152.21 104.49 152.402C105.151 152.605 105.813 152.904 106.474 153.298C107.135 153.693 107.85 154.189 108.618 154.786L107.482 156.114C106.863 155.549 106.271 155.074 105.706 154.69C105.141 154.306 104.602 154.018 104.09 153.826C103.578 153.634 103.093 153.538 102.634 153.538C102.303 153.538 102.069 153.592 101.93 153.698C101.781 153.805 101.706 153.944 101.706 154.114C101.706 154.306 101.77 154.445 101.898 154.53C102.026 154.616 102.202 154.658 102.426 154.658C102.693 154.658 102.911 154.594 103.082 154.466C103.242 154.338 103.365 154.173 103.45 153.97C103.535 153.778 103.594 153.57 103.626 153.346C103.658 153.133 103.674 152.93 103.674 152.738V151.522H105.786V152.306C105.786 152.648 105.749 153.032 105.674 153.458C105.589 153.885 105.429 154.29 105.194 154.674C104.949 155.069 104.591 155.394 104.122 155.65C103.653 155.906 103.034 156.034 102.266 156.034ZM111.905 141.826V143.586H110.369V151.778H108.257V143.586H106.721V141.826H108.273C108.102 141.634 107.915 141.416 107.713 141.17C107.521 140.925 107.35 140.701 107.201 140.498C107.734 139.634 108.257 138.957 108.769 138.466C109.291 137.976 109.841 137.629 110.417 137.426C110.993 137.213 111.627 137.106 112.321 137.106C112.833 137.106 113.318 137.149 113.777 137.234C114.246 137.32 114.731 137.469 115.233 137.682C115.745 137.885 116.31 138.162 116.929 138.514C117.547 138.856 118.267 139.282 119.089 139.794L118.001 141.218C117.137 140.664 116.401 140.216 115.793 139.874C115.185 139.522 114.63 139.266 114.129 139.106C113.627 138.946 113.099 138.866 112.545 138.866C112.043 138.866 111.606 138.962 111.233 139.154C110.859 139.346 110.534 139.586 110.257 139.874C109.99 140.162 109.755 140.461 109.553 140.77C109.649 140.941 109.761 141.122 109.889 141.314C110.017 141.506 110.15 141.677 110.289 141.826H111.905ZM121.964 141.826V143.586H120.428V151.778H118.316C117.922 151.202 117.442 150.696 116.876 150.258C116.322 149.821 115.703 149.458 115.02 149.17C114.338 148.872 113.596 148.658 112.796 148.53L111.996 146.642C112.978 146.098 114.05 145.576 115.212 145.074C116.386 144.562 117.538 144.157 118.668 143.858L118.38 144.386V143.586H111.58V141.826H121.964ZM118.316 145.394L118.652 145.746C117.948 145.949 117.282 146.184 116.652 146.45C116.034 146.706 115.378 147 114.684 147.33C115.122 147.416 115.575 147.565 116.044 147.778C116.524 147.981 116.988 148.248 117.436 148.578C117.895 148.909 118.306 149.293 118.668 149.73L118.364 149.906C118.354 149.661 118.343 149.416 118.332 149.17C118.322 148.925 118.316 148.685 118.316 148.45V145.394ZM114.46 151.97C114.13 151.97 113.852 151.858 113.628 151.634C113.404 151.4 113.292 151.112 113.292 150.77C113.292 150.429 113.404 150.146 113.628 149.922C113.852 149.688 114.13 149.57 114.46 149.57C114.802 149.57 115.079 149.688 115.292 149.922C115.516 150.146 115.628 150.429 115.628 150.77C115.628 151.112 115.516 151.4 115.292 151.634C115.079 151.858 114.802 151.97 114.46 151.97ZM135.22 141.826V143.586H133.684V151.778H131.572V149.698L131.844 150.546C131.45 150.002 131.071 149.538 130.708 149.154C130.346 148.76 129.983 148.461 129.62 148.258C129.258 148.045 128.874 147.938 128.468 147.938C128.223 147.938 128.01 148.002 127.828 148.13C127.647 148.258 127.556 148.45 127.556 148.706C127.556 148.984 127.658 149.202 127.86 149.362C128.074 149.512 128.362 149.65 128.724 149.778L128.116 151.618C127.476 151.437 126.954 151.192 126.548 150.882C126.154 150.562 125.86 150.21 125.668 149.826C125.476 149.442 125.38 149.048 125.38 148.642C125.38 148.077 125.514 147.613 125.78 147.25C126.047 146.888 126.388 146.621 126.804 146.45C127.231 146.28 127.668 146.194 128.116 146.194C128.639 146.194 129.119 146.264 129.556 146.402C130.004 146.541 130.42 146.76 130.804 147.058C131.188 147.346 131.562 147.725 131.924 148.194L131.604 148.434C131.594 148.178 131.583 147.922 131.572 147.666C131.572 147.4 131.572 147.138 131.572 146.882V143.586H124.58V141.826H135.22ZM129.876 146.642C129.876 146.696 129.871 146.776 129.86 146.882C129.86 146.978 129.85 147.074 129.828 147.17L127.764 146.642C127.743 146.141 127.652 145.746 127.492 145.458C127.332 145.17 127.066 144.952 126.692 144.802C126.319 144.653 125.786 144.546 125.092 144.482L125.508 142.866L126.404 143.122C127.044 143.197 127.583 143.325 128.02 143.506C128.468 143.688 128.826 143.922 129.092 144.21C129.37 144.488 129.567 144.829 129.684 145.234C129.812 145.64 129.876 146.109 129.876 146.642ZM140.077 141.826V143.586H138.541V151.778H136.429V144.674C136.301 144.344 136.119 144.082 135.885 143.89C135.65 143.688 135.346 143.586 134.973 143.586H134.893V141.826H135.213C135.458 141.826 135.687 141.89 135.901 142.018C136.114 142.146 136.311 142.418 136.493 142.834C136.482 142.781 136.466 142.658 136.445 142.466C136.434 142.274 136.429 142.109 136.429 141.97V140.77H138.157L138.525 141.826H140.077ZM146.456 141.826V143.586H145.544C145.181 143.768 144.829 143.992 144.488 144.258C144.157 144.514 143.859 144.813 143.592 145.154C143.336 145.485 143.128 145.853 142.968 146.258C142.819 146.664 142.744 147.101 142.744 147.57C142.744 148.21 142.84 148.712 143.032 149.074C143.224 149.437 143.464 149.693 143.752 149.842C144.04 149.981 144.328 150.05 144.616 150.05C144.808 150.05 144.995 150.034 145.176 150.002C145.357 149.96 145.565 149.88 145.8 149.762L146.6 151.346C146.248 151.549 145.901 151.688 145.56 151.762C145.219 151.826 144.861 151.858 144.488 151.858C143.699 151.858 143.011 151.698 142.424 151.378C141.837 151.048 141.384 150.568 141.064 149.938C140.755 149.298 140.6 148.525 140.6 147.618C140.6 146.882 140.733 146.2 141 145.57C141.267 144.941 141.64 144.392 142.12 143.922C142.611 143.442 143.187 143.08 143.848 142.834L142.824 143.522C142.653 143.544 142.456 143.56 142.232 143.57C142.019 143.581 141.741 143.586 141.4 143.586H139.752V141.826H146.456ZM156.607 141.826V143.586H155.071V151.778H152.959V148.418L153.279 149.25C152.948 148.824 152.591 148.434 152.207 148.082C151.823 147.73 151.433 147.448 151.039 147.234C150.655 147.021 150.276 146.914 149.903 146.914C149.636 146.914 149.407 146.978 149.215 147.106C149.033 147.224 148.943 147.416 148.943 147.682C148.943 147.917 149.028 148.114 149.199 148.274C149.369 148.434 149.641 148.589 150.015 148.738L149.071 150.498C148.356 150.221 147.791 149.826 147.375 149.314C146.969 148.792 146.767 148.221 146.767 147.602C146.767 147.026 146.9 146.557 147.167 146.194C147.433 145.821 147.775 145.549 148.191 145.378C148.617 145.197 149.055 145.106 149.503 145.106C149.993 145.106 150.457 145.181 150.895 145.33C151.332 145.48 151.748 145.693 152.143 145.97C152.548 146.237 152.943 146.568 153.327 146.962L153.007 147.122C152.985 146.866 152.969 146.605 152.959 146.338C152.959 146.061 152.959 145.805 152.959 145.57V143.586H146.143V141.826H156.607ZM167.029 141.714C167.455 141.714 167.823 141.816 168.133 142.018C168.442 142.21 168.714 142.498 168.949 142.882L169.669 142.018L171.269 141.778C171.685 142.098 172.015 142.461 172.261 142.866C172.517 143.272 172.645 143.768 172.645 144.354C172.645 144.92 172.495 145.432 172.197 145.89C171.909 146.349 171.509 146.754 170.997 147.106C170.495 147.448 169.925 147.736 169.285 147.97L168.565 146.242C169.13 146.029 169.599 145.789 169.973 145.522C170.357 145.245 170.549 144.877 170.549 144.418C170.549 144.152 170.474 143.922 170.325 143.73C170.175 143.528 169.962 143.341 169.685 143.17L170.821 142.866L169.605 144.482L168.053 144.578C168.01 144.269 167.914 144.008 167.765 143.794C167.615 143.581 167.407 143.474 167.141 143.474C166.981 143.474 166.847 143.512 166.741 143.586C166.634 143.65 166.554 143.741 166.501 143.858C166.447 143.976 166.421 144.104 166.421 144.242C166.421 144.594 166.57 144.856 166.869 145.026C167.167 145.186 167.594 145.282 168.149 145.314L167.941 147.17C167.205 147.128 166.618 146.973 166.181 146.706C165.743 146.44 165.429 146.093 165.237 145.666C165.045 145.24 164.949 144.781 164.949 144.29C164.949 143.768 165.039 143.314 165.221 142.93C165.402 142.546 165.647 142.248 165.957 142.034C166.277 141.821 166.634 141.714 167.029 141.714ZM163.445 141.714C163.882 141.714 164.282 141.826 164.645 142.05C165.018 142.264 165.317 142.578 165.541 142.994C165.765 143.4 165.877 143.901 165.877 144.498C165.877 144.893 165.786 145.298 165.605 145.714C165.434 146.13 165.151 146.477 164.757 146.754C164.362 147.032 163.834 147.17 163.173 147.17L162.981 145.33C163.525 145.277 163.893 145.17 164.085 145.01C164.277 144.84 164.373 144.621 164.373 144.354C164.373 144.056 164.282 143.837 164.101 143.698C163.93 143.549 163.685 143.474 163.365 143.474C163.162 143.474 162.975 143.49 162.805 143.522C162.645 143.544 162.474 143.581 162.293 143.634L162.101 141.858C162.346 141.805 162.575 141.768 162.789 141.746C163.013 141.725 163.231 141.714 163.445 141.714ZM168.005 151.49C166.789 151.49 165.663 151.304 164.629 150.93C163.594 150.557 162.655 149.944 161.813 149.09C160.981 148.226 160.25 147.069 159.621 145.618L161.525 144.866C162.037 146.04 162.607 146.984 163.237 147.698C163.877 148.402 164.586 148.909 165.365 149.218C166.154 149.528 167.029 149.682 167.989 149.682C168.735 149.682 169.365 149.554 169.877 149.298C170.389 149.042 170.645 148.685 170.645 148.226C170.645 147.864 170.517 147.57 170.261 147.346C170.005 147.112 169.701 146.936 169.349 146.818L171.253 145.986C171.701 146.274 172.069 146.626 172.357 147.042C172.655 147.448 172.805 147.917 172.805 148.45C172.805 149.058 172.613 149.592 172.229 150.05C171.845 150.498 171.295 150.85 170.581 151.106C169.866 151.362 169.007 151.49 168.005 151.49ZM183.792 141.826V143.586H182.256V151.778H180.144C179.75 151.202 179.27 150.696 178.704 150.258C178.15 149.821 177.531 149.458 176.848 149.17C176.166 148.872 175.424 148.658 174.624 148.53L173.824 146.642C174.806 146.098 175.878 145.576 177.04 145.074C178.214 144.562 179.366 144.157 180.496 143.858L180.144 144.386V141.826H183.792ZM180.144 145.394L180.48 145.746C179.776 145.949 179.11 146.184 178.48 146.45C177.862 146.706 177.206 147 176.512 147.33C176.95 147.416 177.403 147.565 177.872 147.778C178.352 147.981 178.816 148.248 179.264 148.578C179.723 148.909 180.134 149.293 180.496 149.73L180.192 149.906C180.182 149.661 180.171 149.41 180.16 149.154C180.15 148.888 180.144 148.589 180.144 148.258V145.394ZM177.36 141.714C177.531 141.714 177.696 141.725 177.856 141.746C178.027 141.757 178.192 141.773 178.352 141.794L178.224 143.41C178.182 143.4 178.123 143.394 178.048 143.394C177.984 143.384 177.899 143.378 177.792 143.378C177.515 143.378 177.312 143.437 177.184 143.554C177.067 143.661 177.008 143.789 177.008 143.938C177.008 144.205 177.131 144.424 177.376 144.594C177.622 144.765 177.984 144.898 178.464 144.994L177.232 146.226C176.774 145.992 176.374 145.752 176.032 145.506C175.702 145.261 175.446 144.989 175.264 144.69C175.094 144.392 175.008 144.045 175.008 143.65C175.008 143.352 175.078 143.053 175.216 142.754C175.355 142.456 175.595 142.21 175.936 142.018C176.288 141.816 176.763 141.714 177.36 141.714ZM178.735 156.034C178.372 156.034 177.999 155.965 177.615 155.826C177.22 155.698 176.889 155.49 176.623 155.202C176.356 154.914 176.223 154.53 176.223 154.05C176.223 153.464 176.447 152.994 176.895 152.642C177.332 152.29 177.972 152.114 178.815 152.114C179.583 152.114 180.297 152.21 180.959 152.402C181.62 152.605 182.281 152.904 182.943 153.298C183.604 153.693 184.319 154.189 185.087 154.786L183.951 156.114C183.332 155.549 182.74 155.074 182.175 154.69C181.609 154.306 181.071 154.018 180.559 153.826C180.047 153.634 179.561 153.538 179.103 153.538C178.772 153.538 178.537 153.592 178.399 153.698C178.249 153.805 178.175 153.944 178.175 154.114C178.175 154.306 178.239 154.445 178.367 154.53C178.495 154.616 178.671 154.658 178.895 154.658C179.161 154.658 179.38 154.594 179.551 154.466C179.711 154.338 179.833 154.173 179.919 153.97C180.004 153.778 180.063 153.57 180.095 153.346C180.127 153.133 180.143 152.93 180.143 152.738V151.522H182.255V152.306C182.255 152.648 182.217 153.032 182.143 153.458C182.057 153.885 181.897 154.29 181.663 154.674C181.417 155.069 181.06 155.394 180.591 155.65C180.121 155.906 179.503 156.034 178.735 156.034ZM199.784 141.826V143.586H198.248V149.154H196.136V145.506L196.232 146.322C195.902 145.874 195.571 145.474 195.24 145.122C194.91 144.77 194.574 144.472 194.232 144.226C193.902 143.981 193.566 143.794 193.224 143.666C192.894 143.538 192.552 143.474 192.2 143.474C191.774 143.474 191.384 143.554 191.032 143.714C190.691 143.874 190.371 144.093 190.072 144.37C189.784 144.648 189.491 144.973 189.192 145.346L189.144 144.978C189.358 144.84 189.587 144.717 189.832 144.61C190.088 144.493 190.387 144.434 190.728 144.434C191.262 144.434 191.646 144.584 191.88 144.882C192.126 145.17 192.248 145.496 192.248 145.858C192.248 146.029 192.243 146.189 192.232 146.338C192.232 146.488 192.222 146.589 192.2 146.642L191.704 146.498C191.811 146.37 191.934 146.237 192.072 146.098C192.222 145.949 192.376 145.8 192.536 145.65C192.696 145.501 192.851 145.362 193 145.234L194.92 143.57L196.184 144.834L191.448 149.138L189.992 147.778L191.496 146.402L190.888 147.218L190.232 147.602C190.414 147.421 190.552 147.234 190.648 147.042C190.744 146.85 190.792 146.669 190.792 146.498C190.792 146.242 190.723 146.061 190.584 145.954C190.446 145.837 190.27 145.778 190.056 145.778C189.918 145.778 189.774 145.805 189.624 145.858C189.486 145.901 189.336 145.97 189.176 146.066L187.592 144.61C188.083 144.002 188.552 143.485 189 143.058C189.459 142.621 189.939 142.29 190.44 142.066C190.952 141.832 191.518 141.714 192.136 141.714C192.68 141.714 193.176 141.805 193.624 141.986C194.072 142.168 194.51 142.429 194.936 142.77C195.374 143.112 195.827 143.522 196.296 144.002L196.232 144.338C196.211 144.125 196.19 143.88 196.168 143.602C196.147 143.325 196.136 143.053 196.136 142.786V140.77H197.864L198.232 141.826H199.784ZM198.248 152.466H196.168C196.083 152.253 195.955 152.077 195.784 151.938C195.624 151.81 195.422 151.714 195.176 151.65C194.942 151.586 194.659 151.554 194.328 151.554C193.848 151.554 193.315 151.602 192.728 151.698C192.152 151.784 191.523 151.826 190.84 151.826C190.435 151.826 190.014 151.789 189.576 151.714C189.139 151.64 188.728 151.496 188.344 151.282C187.96 151.069 187.651 150.754 187.416 150.338C187.182 149.912 187.064 149.346 187.064 148.642C187.064 148.408 187.08 148.152 187.112 147.874C187.155 147.597 187.198 147.357 187.24 147.154L189.256 147.426C189.214 147.565 189.176 147.73 189.144 147.922C189.123 148.114 189.112 148.306 189.112 148.498C189.112 148.936 189.198 149.266 189.368 149.49C189.55 149.714 189.784 149.864 190.072 149.938C190.371 150.013 190.702 150.05 191.064 150.05C191.651 150.05 192.179 150.008 192.648 149.922C193.118 149.826 193.63 149.778 194.184 149.778C194.579 149.778 194.942 149.853 195.272 150.002C195.614 150.141 195.902 150.354 196.136 150.642V148.514H198.248V152.466ZM208.239 147.346C207.492 147.346 206.831 147.192 206.255 146.882C205.689 146.562 205.268 146.125 204.991 145.57L205.247 145.538C205.161 145.858 205.023 146.173 204.831 146.482C204.639 146.781 204.383 147.032 204.063 147.234C203.753 147.426 203.369 147.522 202.911 147.522C202.591 147.522 202.276 147.474 201.967 147.378C201.668 147.282 201.375 147.101 201.087 146.834C200.799 146.557 200.5 146.157 200.191 145.634L201.663 144.722C201.897 145.117 202.095 145.373 202.255 145.49C202.415 145.608 202.585 145.666 202.767 145.666C203.001 145.666 203.199 145.602 203.359 145.474C203.529 145.346 203.663 145.122 203.759 144.802C203.855 144.482 203.908 144.029 203.919 143.442H205.967C206.02 143.773 206.1 144.082 206.207 144.37C206.324 144.648 206.468 144.893 206.639 145.106C206.809 145.32 207.001 145.485 207.215 145.602C207.439 145.709 207.684 145.762 207.951 145.762C208.239 145.762 208.457 145.682 208.607 145.522C208.756 145.352 208.831 145.117 208.831 144.818C208.831 144.477 208.724 144.157 208.511 143.858C208.297 143.549 208.036 143.282 207.727 143.058L209.887 142.786C210.057 142.946 210.223 143.149 210.383 143.394C210.553 143.629 210.692 143.901 210.799 144.21C210.916 144.52 210.975 144.856 210.975 145.218C210.975 145.826 210.724 146.333 210.223 146.738C209.721 147.144 209.06 147.346 208.239 147.346ZM212.479 141.826V143.586H199.471V141.826H212.479ZM208.479 145.922C209.321 145.922 209.993 146.082 210.495 146.402C210.996 146.712 211.247 147.165 211.247 147.762C211.247 148.21 211.124 148.621 210.879 148.994C210.633 149.357 210.292 149.677 209.855 149.954C209.417 150.232 208.911 150.472 208.335 150.674L207.583 148.994C208.02 148.877 208.399 148.733 208.719 148.562C209.039 148.381 209.199 148.146 209.199 147.858C209.199 147.709 209.135 147.592 209.007 147.506C208.889 147.421 208.692 147.378 208.415 147.378C208.063 147.378 207.727 147.442 207.407 147.57C207.097 147.688 206.841 147.832 206.639 148.002C206.447 148.162 206.351 148.306 206.351 148.434C206.351 148.53 206.383 148.616 206.447 148.69C206.521 148.754 206.692 148.797 206.959 148.818L206.511 150.61C205.743 150.525 205.172 150.301 204.799 149.938C204.436 149.576 204.255 149.149 204.255 148.658C204.255 148.221 204.377 147.837 204.623 147.506C204.868 147.165 205.193 146.877 205.599 146.642C206.004 146.408 206.457 146.232 206.959 146.114C207.46 145.986 207.967 145.922 208.479 145.922ZM207.375 153.57C206.191 153.57 205.151 153.368 204.255 152.962C203.369 152.557 202.607 151.965 201.967 151.186C201.327 150.397 200.783 149.437 200.335 148.306L202.287 147.666C202.713 148.722 203.167 149.549 203.647 150.146C204.137 150.733 204.681 151.149 205.279 151.394C205.876 151.64 206.548 151.762 207.295 151.762C207.657 151.762 207.988 151.725 208.287 151.65C208.596 151.565 208.841 151.442 209.023 151.282C209.215 151.112 209.311 150.909 209.311 150.674C209.311 150.397 209.177 150.168 208.911 149.986C208.655 149.805 208.351 149.666 207.999 149.57L209.839 148.738C210.287 148.994 210.66 149.304 210.959 149.666C211.257 150.029 211.407 150.445 211.407 150.914C211.407 151.714 211.044 152.354 210.319 152.834C209.604 153.325 208.623 153.57 207.375 153.57ZM217.342 141.826V143.586H215.806V151.778H213.694V143.586H212.158V141.826H213.71C213.54 141.634 213.353 141.416 213.15 141.17C212.958 140.925 212.788 140.701 212.638 140.498C213.172 139.634 213.694 138.957 214.206 138.466C214.729 137.976 215.278 137.629 215.854 137.426C216.43 137.213 217.065 137.106 217.758 137.106C218.27 137.106 218.756 137.149 219.214 137.234C219.684 137.32 220.169 137.469 220.67 137.682C221.182 137.885 221.748 138.162 222.366 138.514C222.985 138.856 223.705 139.282 224.526 139.794L223.438 141.218C222.574 140.664 221.838 140.216 221.23 139.874C220.622 139.522 220.068 139.266 219.566 139.106C219.065 138.946 218.537 138.866 217.982 138.866C217.481 138.866 217.044 138.962 216.67 139.154C216.297 139.346 215.972 139.586 215.694 139.874C215.428 140.162 215.193 140.461 214.99 140.77C215.086 140.941 215.198 141.122 215.326 141.314C215.454 141.506 215.588 141.677 215.726 141.826H217.342ZM224.058 151.25C223.055 151.25 222.132 151.058 221.29 150.674C220.458 150.28 219.716 149.624 219.066 148.706C218.426 147.778 217.882 146.52 217.434 144.93L219.434 144.37C219.764 145.522 220.127 146.472 220.522 147.218C220.927 147.965 221.396 148.52 221.93 148.882C222.463 149.234 223.087 149.41 223.802 149.41C224.218 149.41 224.575 149.373 224.874 149.298C225.183 149.213 225.434 149.09 225.626 148.93C225.828 148.77 225.978 148.573 226.074 148.338C226.17 148.093 226.218 147.816 226.218 147.506C226.218 147.144 226.148 146.845 226.01 146.61C225.882 146.365 225.711 146.184 225.498 146.066C225.284 145.938 225.055 145.874 224.81 145.874C224.564 145.874 224.356 145.938 224.186 146.066C224.026 146.194 223.946 146.386 223.946 146.642C223.946 146.76 223.956 146.877 223.978 146.994C223.999 147.112 224.031 147.224 224.074 147.33L222.074 147.634C221.967 147.389 221.892 147.16 221.85 146.946C221.807 146.733 221.786 146.546 221.786 146.386C221.786 145.853 221.919 145.426 222.186 145.106C222.452 144.776 222.799 144.536 223.226 144.386C223.663 144.237 224.127 144.162 224.618 144.162C225.418 144.162 226.095 144.317 226.65 144.626C227.204 144.936 227.626 145.357 227.914 145.89C228.202 146.413 228.346 147.016 228.346 147.698C228.346 148.328 228.196 148.914 227.898 149.458C227.61 150.002 227.151 150.44 226.522 150.77C225.892 151.09 225.071 151.25 224.058 151.25ZM229.05 141.826V143.586H217.018V141.826H229.05ZM242.138 141.826V143.586H240.602V151.778H238.49V148.418L238.81 149.25C238.479 148.824 238.122 148.434 237.738 148.082C237.354 147.73 236.965 147.448 236.57 147.234C236.186 147.021 235.807 146.914 235.434 146.914C235.167 146.914 234.938 146.978 234.746 147.106C234.565 147.224 234.474 147.416 234.474 147.682C234.474 147.917 234.559 148.114 234.73 148.274C234.901 148.434 235.173 148.589 235.546 148.738L234.602 150.498C233.887 150.221 233.322 149.826 232.906 149.314C232.501 148.792 232.298 148.221 232.298 147.602C232.298 147.026 232.431 146.557 232.698 146.194C232.965 145.821 233.306 145.549 233.722 145.378C234.149 145.197 234.586 145.106 235.034 145.106C235.525 145.106 235.989 145.181 236.426 145.33C236.863 145.48 237.279 145.693 237.674 145.97C238.079 146.237 238.474 146.568 238.858 146.962L238.538 147.122C238.517 146.866 238.501 146.605 238.49 146.338C238.49 146.061 238.49 145.805 238.49 145.57V143.586H231.674V141.826H242.138ZM252.775 141.826V143.586H251.239V151.778H249.127C248.7 151.245 248.199 150.797 247.623 150.434C247.047 150.072 246.396 149.778 245.671 149.554C244.945 149.32 244.129 149.144 243.223 149.026L242.471 147.218C242.769 147.037 243.079 146.856 243.399 146.674C243.729 146.493 244.071 146.312 244.423 146.13C244.775 145.938 245.127 145.757 245.479 145.586C245.031 145.33 244.545 145.106 244.023 144.914C243.511 144.722 242.951 144.578 242.343 144.482L242.935 143.154L243.543 143.586H241.815V141.826H252.775ZM249.127 143.586H244.551L244.759 143.474C245.132 143.581 245.479 143.72 245.799 143.89C246.129 144.061 246.433 144.253 246.711 144.466C246.999 144.669 247.26 144.877 247.495 145.09L247.687 146.498C247.388 146.616 247.084 146.744 246.775 146.882C246.465 147.021 246.161 147.165 245.863 147.314C245.564 147.464 245.276 147.618 244.999 147.778L244.983 147.682C245.463 147.746 245.991 147.885 246.567 148.098C247.153 148.301 247.713 148.573 248.247 148.914C248.791 149.256 249.228 149.656 249.559 150.114L249.239 150.242C249.185 149.965 249.153 149.688 249.143 149.41C249.132 149.133 249.127 148.84 249.127 148.53V143.586ZM244.727 152.21C244.396 152.21 244.119 152.093 243.895 151.858C243.671 151.634 243.559 151.352 243.559 151.01C243.559 150.669 243.671 150.386 243.895 150.162C244.119 149.928 244.396 149.81 244.727 149.81C245.068 149.81 245.345 149.928 245.559 150.162C245.783 150.386 245.895 150.669 245.895 151.01C245.895 151.352 245.783 151.634 245.559 151.858C245.345 152.093 245.068 152.21 244.727 152.21ZM46.8303 165.73C47.2676 165.73 47.6303 165.778 47.9183 165.874C48.2169 165.96 48.4676 166.093 48.6703 166.274C48.8729 166.445 49.0329 166.658 49.1503 166.914C49.2676 167.16 49.3263 167.501 49.3263 167.938V175.778H48.1263C48.0409 175.458 47.9183 175.197 47.7583 174.994C47.5983 174.792 47.4009 174.642 47.1663 174.546C46.9423 174.44 46.6703 174.386 46.3503 174.386C45.9663 174.386 45.6089 174.408 45.2783 174.45C44.9476 174.493 44.6009 174.541 44.2383 174.594C43.8863 174.637 43.4756 174.658 43.0063 174.658C42.6436 174.658 42.2543 174.621 41.8383 174.546C41.4223 174.461 41.0276 174.306 40.6543 174.082C40.2809 173.858 39.9769 173.528 39.7423 173.09C39.5076 172.642 39.3903 172.056 39.3903 171.33C39.3903 171.074 39.4116 170.808 39.4543 170.53C39.4969 170.242 39.5396 169.981 39.5823 169.746L40.8143 169.922C40.7716 170.082 40.7289 170.274 40.6863 170.498C40.6543 170.722 40.6383 170.989 40.6383 171.298C40.6383 171.768 40.7076 172.146 40.8463 172.434C40.9849 172.722 41.1716 172.941 41.4063 173.09C41.6409 173.24 41.9023 173.341 42.1903 173.394C42.4783 173.448 42.7716 173.474 43.0703 173.474C43.6036 173.474 44.0889 173.432 44.5263 173.346C44.9743 173.25 45.4756 173.202 46.0303 173.202C46.4889 173.202 46.8889 173.272 47.2303 173.41C47.5716 173.538 47.8596 173.762 48.0943 174.082V168.37C48.0943 167.976 48.0676 167.693 48.0143 167.522C47.9609 167.352 47.8756 167.213 47.7583 167.106C47.5663 166.946 47.2729 166.866 46.8783 166.866C46.4943 166.866 46.1263 166.952 45.7743 167.122C45.4329 167.293 45.1236 167.512 44.8463 167.778C44.5796 168.045 44.3663 168.333 44.2063 168.642C44.0569 168.941 43.9823 169.224 43.9823 169.49C43.9823 169.597 44.0036 169.709 44.0463 169.826C44.0889 169.944 44.1796 170.045 44.3183 170.13C44.4569 170.216 44.6596 170.258 44.9263 170.258C45.0436 170.258 45.1556 170.253 45.2623 170.242C45.3689 170.232 45.4809 170.221 45.5983 170.21L45.7103 171.33C45.6036 171.373 45.4596 171.405 45.2783 171.426C45.1076 171.448 44.9049 171.458 44.6703 171.458C44.1476 171.458 43.6889 171.298 43.2943 170.978C42.9103 170.658 42.7183 170.168 42.7183 169.506C42.7183 169.08 42.8249 168.648 43.0383 168.21C43.2623 167.762 43.5663 167.352 43.9503 166.978C44.3343 166.605 44.7716 166.306 45.2623 166.082C45.7636 165.848 46.2863 165.73 46.8303 165.73ZM64.2673 165.826V166.962H57.7873V172.498C57.7873 172.968 57.8139 173.298 57.8673 173.49C57.9206 173.682 57.9846 173.821 58.0593 173.906C58.2513 174.13 58.5446 174.242 58.9393 174.242C59.3553 174.242 59.7499 174.141 60.1233 173.938C60.4966 173.736 60.8219 173.485 61.0993 173.186C61.4086 172.856 61.6433 172.504 61.8033 172.13C61.9739 171.757 62.0593 171.378 62.0593 170.994C62.0593 170.653 61.9739 170.397 61.8033 170.226C61.6326 170.045 61.3499 169.954 60.9553 169.954C60.8273 169.954 60.6886 169.965 60.5393 169.986C60.3899 170.008 60.2459 170.034 60.1073 170.066L59.9313 168.93C60.1339 168.877 60.3419 168.834 60.5553 168.802C60.7793 168.77 61.0139 168.754 61.2593 168.754C61.6539 168.754 62.0059 168.829 62.3153 168.978C62.6246 169.128 62.8646 169.362 63.0353 169.682C63.2166 170.002 63.3073 170.418 63.3073 170.93C63.3073 171.56 63.1526 172.173 62.8433 172.77C62.5339 173.357 62.1446 173.853 61.6753 174.258C61.2806 174.6 60.8486 174.877 60.3793 175.09C59.9206 175.293 59.4139 175.394 58.8593 175.394C58.4646 175.394 58.1233 175.336 57.8353 175.218C57.5579 175.101 57.3286 174.952 57.1473 174.77C56.9766 174.568 56.8326 174.322 56.7153 174.034C56.6086 173.746 56.5553 173.309 56.5553 172.722V166.962H54.8753V165.826H64.2673ZM61.3553 165.826C61.3446 165.389 61.2219 165.085 60.9873 164.914C60.7633 164.744 60.4166 164.658 59.9473 164.658H58.5713C57.8779 164.658 57.3393 164.61 56.9553 164.514C56.5819 164.418 56.2619 164.269 55.9953 164.066C55.7073 163.853 55.4886 163.581 55.3393 163.25C55.2006 162.909 55.1313 162.525 55.1313 162.098C55.1313 161.96 55.1366 161.821 55.1473 161.682C55.1686 161.544 55.1899 161.394 55.2113 161.234L56.3953 161.314C56.3739 161.432 56.3579 161.544 56.3473 161.65C56.3366 161.746 56.3313 161.848 56.3313 161.954C56.3313 162.189 56.3526 162.397 56.3953 162.578C56.4486 162.76 56.5286 162.909 56.6353 163.026C56.7846 163.197 56.9979 163.33 57.2753 163.426C57.5633 163.512 57.9686 163.554 58.4913 163.554H58.9393C59.1206 163.554 59.3339 163.565 59.5793 163.586C59.8246 163.608 60.1339 163.656 60.5073 163.73C60.8806 163.794 61.3446 163.896 61.8993 164.034C62.0806 164.205 62.2246 164.44 62.3313 164.738C62.4379 165.026 62.4966 165.389 62.5073 165.826H61.3553ZM55.1953 165.826V166.962H53.5153V175.778H52.2833V166.962H50.6193V165.826H52.0913C51.9206 165.624 51.7446 165.41 51.5633 165.186C51.3926 164.962 51.2379 164.738 51.0993 164.514C51.4619 163.885 51.8513 163.314 52.2673 162.802C52.6833 162.28 53.1739 161.869 53.7393 161.57C54.3046 161.261 54.9873 161.106 55.7873 161.106C56.5446 161.106 57.2433 161.224 57.8833 161.458C58.5339 161.693 59.1793 162.029 59.8193 162.466C60.4699 162.904 61.1633 163.426 61.8993 164.034L61.2593 164.77C60.7046 164.333 60.1926 163.96 59.7233 163.65C59.2646 163.33 58.8326 163.069 58.4273 162.866C58.0219 162.653 57.6219 162.498 57.2273 162.402C56.8326 162.296 56.4166 162.242 55.9793 162.242C55.3926 162.242 54.8859 162.349 54.4593 162.562C54.0326 162.765 53.6593 163.053 53.3393 163.426C53.0299 163.789 52.7419 164.21 52.4753 164.69C52.5606 164.85 52.6779 165.026 52.8273 165.218C52.9766 165.41 53.1473 165.613 53.3393 165.826H55.1953ZM73.7969 175.09C73.1035 175.09 72.4529 174.978 71.8449 174.754C71.2369 174.53 70.6662 174.157 70.1329 173.634C69.6102 173.112 69.1302 172.418 68.6929 171.554C68.2555 170.69 67.8609 169.618 67.5089 168.338L68.7249 168.018C69.1089 169.426 69.5409 170.562 70.0209 171.426C70.5115 172.28 71.0609 172.904 71.6689 173.298C72.2875 173.682 72.9862 173.874 73.7649 173.874C74.3302 173.874 74.8102 173.773 75.2049 173.57C75.6102 173.368 75.9195 173.09 76.1329 172.738C76.3462 172.376 76.4529 171.965 76.4529 171.506C76.4529 171.186 76.4209 170.898 76.3569 170.642C76.2929 170.386 76.2022 170.157 76.0849 169.954C75.9782 169.741 75.8555 169.56 75.7169 169.41L76.4849 168.162C76.8902 168.749 77.1889 169.32 77.3809 169.874C77.5729 170.429 77.6689 170.978 77.6689 171.522C77.6689 172.194 77.5195 172.802 77.2209 173.346C76.9222 173.88 76.4849 174.306 75.9089 174.626C75.3435 174.936 74.6395 175.09 73.7969 175.09ZM73.1889 171.234C72.5169 171.234 71.9889 171.069 71.6049 170.738C71.2209 170.397 71.0289 169.933 71.0289 169.346C71.0289 169.101 71.0662 168.861 71.1409 168.626C71.2155 168.381 71.2955 168.173 71.3809 168.002L72.6609 168.386C72.5862 168.493 72.5169 168.626 72.4529 168.786C72.3889 168.946 72.3569 169.112 72.3569 169.282C72.3569 169.57 72.4369 169.778 72.5969 169.906C72.7569 170.034 72.9649 170.098 73.2209 170.098C73.4449 170.098 73.6689 170.056 73.8929 169.97C74.1169 169.885 74.3569 169.72 74.6129 169.474C74.8795 169.218 75.1675 168.834 75.4769 168.322L76.4849 168.162L76.3569 169.026C76.0689 169.506 75.7649 169.912 75.4449 170.242C75.1355 170.562 74.7942 170.808 74.4209 170.978C74.0582 171.149 73.6475 171.234 73.1889 171.234ZM78.7409 165.826V166.962H66.8849V165.826H78.7409ZM82.9921 165.826V166.962H81.3121V175.778H80.0801V166.962H78.4161V165.826H79.8881C79.7175 165.624 79.5415 165.41 79.3601 165.186C79.1895 164.962 79.0348 164.738 78.8961 164.514C79.2588 163.885 79.6481 163.314 80.0641 162.802C80.4801 162.28 80.9708 161.869 81.5361 161.57C82.1015 161.261 82.7841 161.106 83.5841 161.106C84.1495 161.106 84.6881 161.176 85.2001 161.314C85.7228 161.453 86.2348 161.656 86.7361 161.922C87.2375 162.178 87.7441 162.493 88.2561 162.866C88.7681 163.229 89.3015 163.634 89.8561 164.082L89.1841 164.946C88.4481 164.349 87.7815 163.853 87.1841 163.458C86.5975 163.064 86.0321 162.77 85.4881 162.578C84.9548 162.376 84.3841 162.274 83.7761 162.274C83.1895 162.274 82.6775 162.376 82.2401 162.578C81.8135 162.781 81.4401 163.064 81.1201 163.426C80.8108 163.789 80.5281 164.21 80.2721 164.69C80.3575 164.85 80.4748 165.026 80.6241 165.218C80.7735 165.41 80.9441 165.613 81.1361 165.826H82.9921ZM92.5221 165.826V166.962H90.8421V175.778H89.6101C89.2901 175.138 88.8475 174.552 88.2821 174.018C87.7275 173.474 87.0875 173.016 86.3621 172.642C85.6368 172.269 84.8635 172.018 84.0421 171.89L83.4181 170.354C84.4421 169.736 85.4981 169.176 86.5861 168.674C87.6848 168.173 88.8155 167.746 89.9781 167.394L89.6101 168.066V166.962H82.6661V165.826H92.5221ZM89.6101 168.194L89.9461 168.642C89.1355 168.909 88.2821 169.24 87.3861 169.634C86.4901 170.018 85.6635 170.445 84.9061 170.914C85.4821 171.042 86.0955 171.261 86.7461 171.57C87.3968 171.88 87.9995 172.269 88.5541 172.738C89.1088 173.208 89.5355 173.752 89.8341 174.37H89.6901C89.6688 174.125 89.6475 173.88 89.6261 173.634C89.6155 173.389 89.6101 173.096 89.6101 172.754V168.194ZM102.645 165.826V166.962H100.965V175.778H99.7334C99.2107 175.16 98.672 174.626 98.1174 174.178C97.5627 173.72 96.9334 173.341 96.2294 173.042C95.5254 172.744 94.6827 172.525 93.7014 172.386L93.1254 170.93C93.6587 170.589 94.24 170.253 94.8694 169.922C95.4987 169.581 96.1547 169.266 96.8374 168.978L97.7814 168.866L97.8134 169.762C97.28 169.997 96.7254 170.258 96.1494 170.546C95.5734 170.824 95.0667 171.101 94.6294 171.378C95.408 171.528 96.1014 171.741 96.7094 172.018C97.328 172.285 97.8827 172.605 98.3734 172.978C98.8747 173.352 99.3387 173.757 99.7654 174.194C99.7654 174.013 99.76 173.826 99.7494 173.634C99.7387 173.442 99.7334 173.245 99.7334 173.042V170.786L99.7974 170.434C99.7867 170.178 99.7707 169.917 99.7494 169.65C99.7387 169.373 99.7334 169.101 99.7334 168.834V166.962H92.1974V165.826H102.645ZM93.5894 166.674L94.2454 166.898C94.9067 167.08 95.5734 167.336 96.2454 167.666C96.928 167.986 97.5787 168.36 98.1974 168.786C98.816 169.202 99.3654 169.64 99.8454 170.098L99.8294 171.554C99.424 171.106 98.9547 170.68 98.4214 170.274C97.8987 169.869 97.3387 169.501 96.7414 169.17C96.144 168.829 95.536 168.536 94.9174 168.29C94.2987 168.045 93.7014 167.864 93.1254 167.746L93.5894 166.674ZM106.722 165.826V166.962H105.602L106.562 166.61C106.125 166.962 105.794 167.282 105.57 167.57C105.346 167.848 105.197 168.13 105.122 168.418C105.048 168.706 105.01 169.053 105.01 169.458C105.01 169.81 105.053 170.184 105.138 170.578C105.224 170.973 105.309 171.384 105.394 171.81C105.49 172.226 105.538 172.664 105.538 173.122C105.538 173.506 105.496 173.88 105.41 174.242C105.325 174.594 105.165 174.925 104.93 175.234C104.706 175.533 104.381 175.8 103.954 176.034C103.538 176.269 102.994 176.461 102.322 176.61L101.986 175.506C102.669 175.346 103.17 175.149 103.49 174.914C103.821 174.669 104.034 174.392 104.13 174.082C104.237 173.773 104.29 173.442 104.29 173.09C104.29 172.664 104.248 172.248 104.162 171.842C104.077 171.437 103.986 171.037 103.89 170.642C103.805 170.248 103.762 169.864 103.762 169.49C103.762 169.085 103.8 168.733 103.874 168.434C103.949 168.125 104.077 167.832 104.258 167.554C104.44 167.266 104.685 166.957 104.994 166.626L105.234 166.962H102.322V165.826H106.722ZM111.009 165.714C111.659 165.714 112.187 165.821 112.593 166.034C113.009 166.248 113.313 166.525 113.505 166.866C113.697 167.208 113.793 167.581 113.793 167.986C113.793 168.701 113.579 169.256 113.153 169.65C112.726 170.045 112.102 170.242 111.281 170.242C110.854 170.242 110.422 170.184 109.985 170.066C109.547 169.938 109.147 169.778 108.785 169.586L109.201 168.514C109.531 168.685 109.862 168.824 110.193 168.93C110.523 169.026 110.854 169.074 111.185 169.074C111.483 169.074 111.734 169.037 111.937 168.962C112.139 168.877 112.289 168.76 112.385 168.61C112.491 168.45 112.545 168.253 112.545 168.018C112.545 167.677 112.417 167.4 112.161 167.186C111.905 166.962 111.526 166.85 111.025 166.85C110.513 166.85 110.075 166.946 109.713 167.138C109.35 167.33 109.067 167.586 108.865 167.906C108.673 168.226 108.577 168.589 108.577 168.994C108.577 169.432 108.667 169.821 108.849 170.162C109.041 170.493 109.371 170.818 109.841 171.138C110.321 171.448 110.993 171.794 111.857 172.178C112.539 172.477 113.094 172.754 113.521 173.01C113.958 173.266 114.305 173.528 114.561 173.794C114.817 174.05 115.003 174.333 115.121 174.642C115.249 174.941 115.339 175.293 115.393 175.698L114.241 175.938C114.177 175.629 114.091 175.368 113.985 175.154C113.889 174.93 113.739 174.722 113.537 174.53C113.334 174.338 113.046 174.141 112.673 173.938C112.299 173.725 111.803 173.485 111.185 173.218C110.299 172.824 109.574 172.429 109.009 172.034C108.443 171.629 108.027 171.181 107.761 170.69C107.494 170.189 107.361 169.613 107.361 168.962C107.361 168.376 107.505 167.837 107.793 167.346C108.091 166.856 108.513 166.461 109.057 166.162C109.601 165.864 110.251 165.714 111.009 165.714ZM125.648 175.778V168.978L125.984 169.986C125.611 169.453 125.259 168.994 124.928 168.61C124.608 168.216 124.299 167.89 124 167.634C123.702 167.378 123.398 167.192 123.088 167.074C122.779 166.946 122.454 166.882 122.112 166.882C121.547 166.882 121.088 167.032 120.736 167.33C120.395 167.618 120.091 167.954 119.824 168.338L119.6 168.466C119.75 168.328 119.979 168.216 120.288 168.13C120.598 168.034 120.955 167.986 121.36 167.986C121.851 167.986 122.246 168.082 122.544 168.274C122.854 168.466 123.078 168.712 123.216 169.01C123.366 169.298 123.44 169.586 123.44 169.874C123.44 170.504 123.227 171.069 122.8 171.57C122.374 172.061 121.712 172.546 120.816 173.026L120 171.858C120.587 171.613 121.094 171.341 121.52 171.042C121.947 170.733 122.16 170.365 122.16 169.938C122.16 169.704 122.07 169.506 121.888 169.346C121.707 169.186 121.446 169.106 121.104 169.106C120.827 169.106 120.566 169.138 120.32 169.202C120.086 169.266 119.83 169.368 119.552 169.506L118.256 168.45C118.587 167.896 118.939 167.416 119.312 167.01C119.686 166.594 120.091 166.274 120.528 166.05C120.976 165.826 121.462 165.714 121.984 165.714C122.518 165.714 123.003 165.81 123.44 166.002C123.888 166.184 124.32 166.461 124.736 166.834C125.163 167.208 125.59 167.672 126.016 168.226L125.728 168.05C125.707 167.901 125.686 167.672 125.664 167.362C125.654 167.053 125.648 166.738 125.648 166.418V164.77H126.496L126.864 165.826H128.56V166.962H126.88V175.778H125.648ZM139.956 165.826V166.962H134.1V169.826C134.1 170.136 134.148 170.365 134.244 170.514C134.34 170.653 134.49 170.722 134.692 170.722C134.895 170.722 135.103 170.658 135.316 170.53C135.54 170.402 135.78 170.2 136.036 169.922C136.292 169.645 136.57 169.288 136.868 168.85L137.828 168.706C138.17 169.208 138.431 169.725 138.612 170.258C138.804 170.792 138.9 171.325 138.9 171.858C138.9 172.53 138.751 173.133 138.452 173.666C138.164 174.2 137.732 174.621 137.156 174.93C136.591 175.24 135.898 175.394 135.076 175.394C134.372 175.394 133.716 175.272 133.108 175.026C132.5 174.781 131.94 174.386 131.428 173.842C130.916 173.288 130.447 172.562 130.02 171.666C129.594 170.76 129.21 169.65 128.868 168.338L130.084 168.018C130.468 169.501 130.89 170.696 131.348 171.602C131.818 172.498 132.351 173.154 132.948 173.57C133.546 173.976 134.234 174.178 135.012 174.178C135.866 174.178 136.522 173.965 136.98 173.538C137.45 173.112 137.684 172.562 137.684 171.89C137.684 171.41 137.615 171 137.476 170.658C137.348 170.317 137.178 170.034 136.964 169.81L137.7 169.506C137.38 170.05 137.05 170.498 136.708 170.85C136.378 171.202 136.042 171.469 135.7 171.65C135.37 171.821 135.039 171.906 134.708 171.906C134.463 171.906 134.234 171.874 134.02 171.81C133.807 171.736 133.626 171.629 133.476 171.49C133.306 171.341 133.162 171.133 133.044 170.866C132.927 170.589 132.868 170.13 132.868 169.49V166.962H128.244V165.826H139.956ZM134.212 178.162C133.946 178.162 133.716 178.077 133.524 177.906C133.343 177.736 133.252 177.512 133.252 177.234C133.252 176.957 133.343 176.728 133.524 176.546C133.716 176.365 133.946 176.274 134.212 176.274C134.479 176.274 134.703 176.365 134.884 176.546C135.076 176.728 135.172 176.957 135.172 177.234C135.172 177.512 135.076 177.736 134.884 177.906C134.703 178.077 134.479 178.162 134.212 178.162ZM144.211 165.826V166.962H142.531V175.778H141.299V168.274C141.171 167.912 140.979 167.602 140.723 167.346C140.478 167.09 140.158 166.962 139.763 166.962H139.635V165.826H139.875C140.131 165.826 140.398 165.912 140.675 166.082C140.952 166.242 141.176 166.493 141.347 166.834C141.336 166.781 141.326 166.658 141.315 166.466C141.304 166.274 141.299 166.109 141.299 165.97V164.77H142.163L142.515 165.826H144.211ZM153.741 165.826V166.962H152.061V175.778H150.829C150.509 175.138 150.066 174.552 149.501 174.018C148.946 173.474 148.306 173.016 147.581 172.642C146.856 172.269 146.082 172.018 145.261 171.89L144.637 170.354C145.661 169.736 146.717 169.176 147.805 168.674C148.904 168.173 150.034 167.746 151.197 167.394L150.829 168.066V166.962H143.885V165.826H153.741ZM150.829 168.194L151.165 168.642C150.354 168.909 149.501 169.24 148.605 169.634C147.709 170.018 146.882 170.445 146.125 170.914C146.701 171.042 147.314 171.261 147.965 171.57C148.616 171.88 149.218 172.269 149.773 172.738C150.328 173.208 150.754 173.752 151.053 174.37H150.909C150.888 174.125 150.866 173.88 150.845 173.634C150.834 173.389 150.829 173.096 150.829 172.754V168.194ZM147.005 175.874C146.738 175.874 146.509 175.789 146.317 175.618C146.136 175.448 146.045 175.224 146.045 174.946C146.045 174.669 146.136 174.44 146.317 174.258C146.509 174.077 146.738 173.986 147.005 173.986C147.272 173.986 147.496 174.077 147.677 174.258C147.869 174.44 147.965 174.669 147.965 174.946C147.965 175.224 147.869 175.448 147.677 175.618C147.496 175.789 147.272 175.874 147.005 175.874ZM164.69 165.73C165.127 165.73 165.49 165.778 165.778 165.874C166.076 165.96 166.327 166.093 166.53 166.274C166.732 166.445 166.892 166.658 167.01 166.914C167.127 167.16 167.186 167.501 167.186 167.938V175.778H165.986C165.9 175.458 165.778 175.197 165.618 174.994C165.458 174.792 165.26 174.642 165.026 174.546C164.802 174.44 164.53 174.386 164.21 174.386C163.826 174.386 163.468 174.408 163.138 174.45C162.807 174.493 162.46 174.541 162.098 174.594C161.746 174.637 161.335 174.658 160.866 174.658C160.503 174.658 160.114 174.621 159.698 174.546C159.282 174.461 158.887 174.306 158.514 174.082C158.14 173.858 157.836 173.528 157.602 173.09C157.367 172.642 157.25 172.056 157.25 171.33C157.25 171.074 157.271 170.808 157.314 170.53C157.356 170.242 157.399 169.981 157.442 169.746L158.674 169.922C158.631 170.082 158.588 170.274 158.546 170.498C158.514 170.722 158.498 170.989 158.498 171.298C158.498 171.768 158.567 172.146 158.706 172.434C158.844 172.722 159.031 172.941 159.266 173.09C159.5 173.24 159.762 173.341 160.05 173.394C160.338 173.448 160.631 173.474 160.93 173.474C161.463 173.474 161.948 173.432 162.386 173.346C162.834 173.25 163.335 173.202 163.89 173.202C164.348 173.202 164.748 173.272 165.09 173.41C165.431 173.538 165.719 173.762 165.954 174.082V168.37C165.954 167.976 165.927 167.693 165.874 167.522C165.82 167.352 165.735 167.213 165.618 167.106C165.426 166.946 165.132 166.866 164.738 166.866C164.354 166.866 163.986 166.952 163.634 167.122C163.292 167.293 162.983 167.512 162.706 167.778C162.439 168.045 162.226 168.333 162.066 168.642C161.916 168.941 161.842 169.224 161.842 169.49C161.842 169.597 161.863 169.709 161.906 169.826C161.948 169.944 162.039 170.045 162.178 170.13C162.316 170.216 162.519 170.258 162.786 170.258C162.903 170.258 163.015 170.253 163.122 170.242C163.228 170.232 163.34 170.221 163.458 170.21L163.57 171.33C163.463 171.373 163.319 171.405 163.138 171.426C162.967 171.448 162.764 171.458 162.53 171.458C162.007 171.458 161.548 171.298 161.154 170.978C160.77 170.658 160.578 170.168 160.578 169.506C160.578 169.08 160.684 168.648 160.898 168.21C161.122 167.762 161.426 167.352 161.81 166.978C162.194 166.605 162.631 166.306 163.122 166.082C163.623 165.848 164.146 165.73 164.69 165.73ZM181.711 165.826V166.962H176.511V167.954V168.21V175.778H175.279C174.969 175.149 174.537 174.557 173.983 174.002C173.428 173.448 172.793 172.984 172.079 172.61C171.375 172.226 170.633 171.986 169.855 171.89L169.231 170.354C170.265 169.757 171.3 169.224 172.335 168.754C173.369 168.285 174.468 167.869 175.631 167.506L175.279 168.178V166.962H168.479V165.826H181.711ZM175.279 168.306L175.615 168.77C175.071 168.92 174.505 169.117 173.919 169.362C173.343 169.608 172.777 169.864 172.223 170.13C171.679 170.397 171.177 170.658 170.719 170.914C171.316 171.032 171.929 171.256 172.559 171.586C173.199 171.917 173.78 172.322 174.303 172.802C174.836 173.272 175.231 173.784 175.487 174.338L175.359 174.37C175.337 174.125 175.316 173.88 175.295 173.634C175.284 173.389 175.279 173.096 175.279 172.754V168.306ZM180.815 171.17C180.815 171.522 180.745 171.858 180.607 172.178C180.468 172.488 180.239 172.744 179.919 172.946C179.599 173.149 179.172 173.25 178.639 173.25C178.468 173.25 178.303 173.245 178.143 173.234C177.993 173.224 177.844 173.202 177.695 173.17L177.791 172.018C177.855 172.029 177.929 172.04 178.015 172.05C178.111 172.05 178.217 172.05 178.335 172.05C178.847 172.05 179.177 171.954 179.327 171.762C179.487 171.56 179.567 171.32 179.567 171.042C179.567 170.477 179.289 169.997 178.735 169.602C178.191 169.197 177.38 168.92 176.303 168.77L176.351 167.57C177.172 167.656 177.919 167.864 178.591 168.194C179.263 168.514 179.801 168.93 180.207 169.442C180.612 169.944 180.815 170.52 180.815 171.17ZM196.098 165.826V166.962H194.418V175.778H193.186V169.442L193.538 170.466C193.101 169.826 192.701 169.282 192.338 168.834C191.976 168.376 191.629 168.002 191.298 167.714C190.978 167.426 190.653 167.218 190.322 167.09C189.992 166.952 189.634 166.882 189.25 166.882C188.824 166.882 188.434 166.962 188.082 167.122C187.741 167.282 187.426 167.496 187.138 167.762C186.85 168.029 186.584 168.317 186.338 168.626L186.21 168.658C186.381 168.552 186.546 168.472 186.706 168.418C186.877 168.365 187.064 168.338 187.266 168.338C187.885 168.338 188.338 168.509 188.626 168.85C188.914 169.181 189.058 169.592 189.058 170.082C189.058 170.2 189.053 170.312 189.042 170.418C189.032 170.525 189.016 170.605 188.994 170.658L188.722 170.562C188.85 170.424 188.973 170.29 189.09 170.162C189.208 170.034 189.33 169.906 189.458 169.778C189.597 169.65 189.736 169.517 189.874 169.378L191.858 167.522L192.642 168.37L188.098 172.658L187.154 171.778L188.466 170.53L187.89 171.218L187.41 171.586C187.57 171.405 187.704 171.213 187.81 171.01C187.928 170.797 187.986 170.557 187.986 170.29C187.986 170.024 187.906 169.81 187.746 169.65C187.586 169.49 187.352 169.41 187.042 169.41C186.872 169.41 186.706 169.432 186.546 169.474C186.386 169.517 186.221 169.592 186.05 169.698L184.834 168.546C185.261 167.981 185.698 167.49 186.146 167.074C186.594 166.648 187.064 166.317 187.554 166.082C188.045 165.837 188.573 165.714 189.138 165.714C189.736 165.714 190.274 165.826 190.754 166.05C191.234 166.274 191.698 166.61 192.146 167.058C192.594 167.496 193.064 168.05 193.554 168.722L193.266 168.642C193.234 168.386 193.213 168.109 193.202 167.81C193.192 167.512 193.186 167.192 193.186 166.85V164.77H194.034L194.402 165.826H196.098ZM200.352 165.826V166.962H198.672V175.778H197.44V166.962H195.776V165.826H197.248C197.077 165.624 196.901 165.41 196.72 165.186C196.549 164.962 196.394 164.738 196.256 164.514C196.618 163.885 197.008 163.314 197.424 162.802C197.84 162.28 198.33 161.869 198.896 161.57C199.461 161.261 200.144 161.106 200.944 161.106C201.509 161.106 202.048 161.176 202.56 161.314C203.082 161.453 203.594 161.656 204.096 161.922C204.597 162.178 205.104 162.493 205.616 162.866C206.128 163.229 206.661 163.634 207.216 164.082L206.544 164.946C205.808 164.349 205.141 163.853 204.544 163.458C203.957 163.064 203.392 162.77 202.848 162.578C202.314 162.376 201.744 162.274 201.136 162.274C200.549 162.274 200.037 162.376 199.6 162.578C199.173 162.781 198.8 163.064 198.48 163.426C198.17 163.789 197.888 164.21 197.632 164.69C197.717 164.85 197.834 165.026 197.984 165.218C198.133 165.41 198.304 165.613 198.496 165.826H200.352ZM209.882 165.826V166.962H208.202V175.778H206.97C206.65 175.138 206.207 174.552 205.642 174.018C205.087 173.474 204.447 173.016 203.722 172.642C202.996 172.269 202.223 172.018 201.402 171.89L200.778 170.354C201.802 169.736 202.858 169.176 203.946 168.674C205.044 168.173 206.175 167.746 207.338 167.394L206.97 168.066V166.962H200.026V165.826H209.882ZM206.97 168.194L207.306 168.642C206.495 168.909 205.642 169.24 204.746 169.634C203.85 170.018 203.023 170.445 202.266 170.914C202.842 171.042 203.455 171.261 204.106 171.57C204.756 171.88 205.359 172.269 205.914 172.738C206.468 173.208 206.895 173.752 207.194 174.37H207.05C207.028 174.125 207.007 173.88 206.986 173.634C206.975 173.389 206.97 173.096 206.97 172.754V168.194ZM203.146 175.874C202.879 175.874 202.65 175.789 202.458 175.618C202.276 175.448 202.186 175.224 202.186 174.946C202.186 174.669 202.276 174.44 202.458 174.258C202.65 174.077 202.879 173.986 203.146 173.986C203.412 173.986 203.636 174.077 203.818 174.258C204.01 174.44 204.106 174.669 204.106 174.946C204.106 175.224 204.01 175.448 203.818 175.618C203.636 175.789 203.412 175.874 203.146 175.874ZM219.413 165.826V166.962H217.733V175.778H216.501C216.181 175.138 215.738 174.552 215.173 174.018C214.618 173.474 213.978 173.016 213.253 172.642C212.527 172.269 211.754 172.018 210.933 171.89L210.309 170.354C211.333 169.736 212.389 169.176 213.477 168.674C214.575 168.173 215.706 167.746 216.869 167.394L216.501 168.066V166.962H209.557V165.826H219.413ZM216.501 168.194L216.837 168.642C216.026 168.909 215.173 169.24 214.277 169.634C213.381 170.018 212.554 170.445 211.797 170.914C212.373 171.042 212.986 171.261 213.637 171.57C214.287 171.88 214.89 172.269 215.445 172.738C215.999 173.208 216.426 173.752 216.725 174.37H216.581C216.559 174.125 216.538 173.88 216.517 173.634C216.506 173.389 216.501 173.096 216.501 172.754V168.194ZM225.76 174.978C224.885 174.978 224.069 174.765 223.312 174.338C222.555 173.901 221.872 173.197 221.264 172.226C220.667 171.256 220.149 169.954 219.712 168.322L220.928 168.002C221.301 169.325 221.707 170.413 222.144 171.266C222.592 172.12 223.104 172.749 223.68 173.154C224.267 173.56 224.949 173.762 225.728 173.762C226.229 173.762 226.651 173.704 226.992 173.586C227.333 173.458 227.605 173.282 227.808 173.058C228.021 172.834 228.176 172.578 228.272 172.29C228.368 171.992 228.416 171.672 228.416 171.33C228.416 170.882 228.331 170.477 228.16 170.114C227.989 169.741 227.749 169.448 227.44 169.234C227.131 169.021 226.768 168.914 226.352 168.914C225.925 168.914 225.616 169.005 225.424 169.186C225.243 169.368 225.152 169.608 225.152 169.906C225.152 170.013 225.163 170.125 225.184 170.242C225.205 170.36 225.243 170.493 225.296 170.642L224.064 170.882C224 170.68 223.947 170.482 223.904 170.29C223.872 170.098 223.856 169.901 223.856 169.698C223.856 169.282 223.957 168.936 224.16 168.658C224.373 168.37 224.661 168.152 225.024 168.002C225.397 167.853 225.819 167.778 226.288 167.778C226.949 167.778 227.531 167.933 228.032 168.242C228.533 168.541 228.928 168.962 229.216 169.506C229.504 170.05 229.648 170.68 229.648 171.394C229.648 172.066 229.504 172.674 229.216 173.218C228.939 173.752 228.512 174.178 227.936 174.498C227.36 174.818 226.635 174.978 225.76 174.978ZM230.72 165.826V166.962H219.088V165.826H230.72ZM223.981 164.466L229.197 161.106L229.805 162.018L224.701 165.474L223.981 164.466ZM236.257 165.826V166.962H235.937C235.606 167.037 235.249 167.202 234.865 167.458C234.481 167.704 234.118 168.029 233.777 168.434C233.435 168.829 233.153 169.293 232.929 169.826C232.715 170.36 232.609 170.946 232.609 171.586C232.609 172.354 232.721 172.968 232.945 173.426C233.179 173.874 233.467 174.194 233.809 174.386C234.15 174.578 234.491 174.674 234.833 174.674C235.099 174.674 235.323 174.648 235.505 174.594C235.686 174.541 235.894 174.445 236.129 174.306L236.689 175.282C236.411 175.496 236.107 175.645 235.777 175.73C235.446 175.816 235.115 175.858 234.785 175.858C234.113 175.858 233.515 175.682 232.993 175.33C232.481 174.978 232.075 174.488 231.777 173.858C231.489 173.218 231.345 172.472 231.345 171.618C231.345 170.744 231.51 169.954 231.841 169.25C232.171 168.536 232.614 167.933 233.169 167.442C233.734 166.952 234.358 166.594 235.041 166.37L234.017 166.898C233.825 166.92 233.617 166.936 233.393 166.946C233.169 166.957 232.918 166.962 232.641 166.962H230.401V165.826H236.257ZM245.916 165.826V166.962H244.236V175.778H243.004V171.89L243.26 172.786C242.908 172.296 242.524 171.853 242.108 171.458C241.692 171.064 241.265 170.749 240.828 170.514C240.39 170.28 239.964 170.162 239.548 170.162C239.153 170.162 238.817 170.269 238.54 170.482C238.273 170.685 238.14 170.989 238.14 171.394C238.14 171.714 238.252 171.992 238.476 172.226C238.7 172.45 239.046 172.653 239.516 172.834L238.908 173.97C238.257 173.704 237.745 173.346 237.372 172.898C237.009 172.44 236.828 171.922 236.828 171.346C236.828 170.824 236.95 170.392 237.196 170.05C237.452 169.698 237.772 169.437 238.156 169.266C238.55 169.096 238.95 169.01 239.356 169.01C239.91 169.01 240.417 169.106 240.876 169.298C241.334 169.49 241.761 169.752 242.156 170.082C242.561 170.413 242.945 170.797 243.308 171.234L243.084 171.298C243.052 171.053 243.03 170.813 243.02 170.578C243.009 170.333 243.004 170.088 243.004 169.842V166.962H235.932V165.826H245.916ZM255.444 165.826V166.962H253.764V175.778H252.532C252.212 175.138 251.769 174.552 251.204 174.018C250.649 173.474 250.009 173.016 249.284 172.642C248.559 172.269 247.785 172.018 246.964 171.89L246.34 170.354C247.364 169.736 248.42 169.176 249.508 168.674C250.607 168.173 251.737 167.746 252.9 167.394L252.532 168.066V166.962H245.588V165.826H255.444ZM252.532 168.194L252.868 168.642C252.057 168.909 251.204 169.24 250.308 169.634C249.412 170.018 248.585 170.445 247.828 170.914C248.404 171.042 249.017 171.261 249.668 171.57C250.319 171.88 250.921 172.269 251.476 172.738C252.031 173.208 252.457 173.752 252.756 174.37H252.612C252.591 174.125 252.569 173.88 252.548 173.634C252.537 173.389 252.532 173.096 252.532 172.754V168.194ZM248.708 175.874C248.441 175.874 248.212 175.789 248.02 175.618C247.839 175.448 247.748 175.224 247.748 174.946C247.748 174.669 247.839 174.44 248.02 174.258C248.212 174.077 248.441 173.986 248.708 173.986C248.975 173.986 249.199 174.077 249.38 174.258C249.572 174.44 249.668 174.669 249.668 174.946C249.668 175.224 249.572 175.448 249.38 175.618C249.199 175.789 248.975 175.874 248.708 175.874ZM268.393 165.826V166.962H266.713V175.778H265.481C265.033 175.181 264.537 174.658 263.993 174.21C263.449 173.752 262.819 173.368 262.105 173.058C261.39 172.749 260.542 172.525 259.561 172.386L258.985 170.93C259.315 170.706 259.662 170.493 260.025 170.29C260.387 170.088 260.755 169.89 261.129 169.698C261.513 169.506 261.886 169.325 262.249 169.154C261.843 168.845 261.374 168.573 260.841 168.338C260.318 168.093 259.699 167.896 258.985 167.746L259.481 166.658L259.513 166.962H258.057V165.826H268.393ZM265.481 166.962H260.377L260.041 166.818C260.489 166.925 260.937 167.096 261.385 167.33C261.843 167.565 262.265 167.821 262.649 168.098C263.043 168.365 263.358 168.621 263.593 168.866L263.673 169.762C263.289 169.933 262.883 170.12 262.457 170.322C262.041 170.525 261.635 170.728 261.241 170.93C260.857 171.133 260.515 171.336 260.217 171.538L260.025 171.298C260.942 171.426 261.742 171.64 262.425 171.938C263.118 172.237 263.731 172.6 264.265 173.026C264.798 173.453 265.289 173.928 265.737 174.45L265.529 174.514C265.518 174.29 265.507 174.05 265.497 173.794C265.486 173.528 265.481 173.277 265.481 173.042V166.962ZM272.648 165.826V166.962H270.968V175.778H269.736V168.274C269.608 167.912 269.416 167.602 269.16 167.346C268.915 167.09 268.595 166.962 268.2 166.962H268.072V165.826H268.312C268.568 165.826 268.835 165.912 269.112 166.082C269.39 166.242 269.614 166.493 269.784 166.834C269.774 166.781 269.763 166.658 269.752 166.466C269.742 166.274 269.736 166.109 269.736 165.97V164.77H270.6L270.952 165.826H272.648ZM280.018 167.33C280.424 167.33 280.76 167.368 281.026 167.442C281.293 167.517 281.522 167.629 281.714 167.778C281.938 167.949 282.109 168.168 282.226 168.434C282.344 168.69 282.402 169.064 282.402 169.554V175.778H281.17C281.074 175.298 280.904 174.946 280.658 174.722C280.413 174.498 280.088 174.386 279.682 174.386C279.32 174.386 278.984 174.408 278.674 174.45C278.365 174.493 278.04 174.541 277.698 174.594C277.368 174.637 276.973 174.658 276.514 174.658C276.184 174.658 275.826 174.621 275.442 174.546C275.058 174.472 274.696 174.333 274.354 174.13C274.024 173.917 273.752 173.608 273.538 173.202C273.325 172.797 273.218 172.258 273.218 171.586C273.218 171.352 273.234 171.101 273.266 170.834C273.298 170.568 273.336 170.333 273.378 170.13L274.61 170.322C274.568 170.493 274.53 170.669 274.498 170.85C274.477 171.032 274.466 171.261 274.466 171.538C274.466 172.114 274.573 172.541 274.786 172.818C275 173.096 275.261 173.277 275.57 173.362C275.89 173.437 276.2 173.474 276.498 173.474C276.893 173.474 277.245 173.453 277.554 173.41C277.864 173.357 278.162 173.309 278.45 173.266C278.749 173.224 279.064 173.202 279.394 173.202C279.768 173.202 280.104 173.272 280.402 173.41C280.712 173.538 280.968 173.762 281.17 174.082V169.666C281.17 169.389 281.144 169.181 281.09 169.042C281.048 168.893 280.973 168.776 280.866 168.69C280.781 168.616 280.669 168.562 280.53 168.53C280.402 168.488 280.232 168.466 280.018 168.466C279.698 168.466 279.4 168.53 279.122 168.658C278.856 168.776 278.616 168.925 278.402 169.106C278.189 169.288 278.018 169.49 277.89 169.714C277.762 169.928 277.698 170.136 277.698 170.338C277.698 170.498 277.746 170.642 277.842 170.77C277.938 170.898 278.162 170.962 278.514 170.962C278.664 170.962 278.792 170.957 278.898 170.946C279.016 170.936 279.128 170.92 279.234 170.898L279.346 172.034C279.24 172.066 279.096 172.098 278.914 172.13C278.744 172.152 278.53 172.162 278.274 172.162C277.794 172.162 277.368 172.029 276.994 171.762C276.621 171.496 276.434 171.058 276.434 170.45C276.434 170.098 276.525 169.741 276.706 169.378C276.898 169.005 277.165 168.664 277.506 168.354C277.837 168.056 278.216 167.81 278.642 167.618C279.069 167.426 279.528 167.33 280.018 167.33ZM284.082 165.826V166.962H272.322V165.826H284.082ZM288.336 165.826V166.962H286.656V175.778H285.424V168.274C285.296 167.912 285.104 167.602 284.848 167.346C284.603 167.09 284.283 166.962 283.888 166.962H283.76V165.826H284C284.256 165.826 284.523 165.912 284.8 166.082C285.077 166.242 285.301 166.493 285.472 166.834C285.461 166.781 285.451 166.658 285.44 166.466C285.429 166.274 285.424 166.109 285.424 165.97V164.77H286.288L286.64 165.826H288.336Z" fill="#141B34"/>
<defs>
<clipPath id="clip0_205_3042">
<rect width="64" height="64" fill="white" transform="translate(132.881 56.7783)"/>
</clipPath>
</defs>
</svg>
