<svg width="183" height="57" viewBox="0 0 183 57" fill="none" xmlns="http://www.w3.org/2000/svg">
<rect x="0.941406" y="0.251953" width="182" height="56" rx="8" fill="#141B34"/>
<path d="M54.1655 28.5218C54.1786 27.4932 54.4518 26.4849 54.9596 25.5903C55.4673 24.6958 56.1931 23.9441 57.0693 23.4054C56.5126 22.6105 55.7783 21.9562 54.9245 21.4947C54.0708 21.0331 53.1213 20.777 52.1512 20.7467C50.0821 20.5295 48.076 21.9849 47.0216 21.9849C45.9467 21.9849 44.3232 20.7683 42.575 20.8043C41.4442 20.8407 40.3422 21.1696 39.3762 21.7586C38.4103 22.3478 37.6134 23.1769 37.0633 24.1656C34.6801 28.2916 36.4578 34.3556 38.7407 37.6907C39.8828 39.324 41.2177 41.1482 42.9643 41.0835C44.6735 41.0126 45.3118 39.9935 47.375 39.9935C49.419 39.9935 50.0179 41.0835 51.7999 41.0423C53.634 41.0126 54.7895 39.4019 55.8916 37.7533C56.7122 36.5896 57.3438 35.3035 57.7626 33.9426C56.6971 33.4919 55.7878 32.7376 55.1482 31.7737C54.5085 30.8097 54.1667 29.6787 54.1655 28.5218Z" fill="white"/>
<path d="M50.8017 18.5532C51.8018 17.3528 52.2945 15.8098 52.1751 14.252C50.6473 14.4124 49.2362 15.1426 48.2227 16.297C47.7271 16.861 47.3475 17.517 47.1058 18.2278C46.8639 18.9385 46.7646 19.6898 46.8134 20.439C47.5775 20.4469 48.3334 20.2813 49.0244 19.9546C49.7152 19.628 50.3229 19.1487 50.8017 18.5532Z" fill="white"/>
<path d="M74.2995 35.2074H69.0491L67.7883 38.9304H65.5645L70.5375 25.1562H72.848L77.821 38.9304H75.5592L74.2995 35.2074ZM69.5929 33.4894H73.7546L71.703 27.4473H71.6457L69.5929 33.4894Z" fill="white"/>
<path d="M88.4445 33.91C88.4445 37.0306 86.7743 39.0356 84.2536 39.0356C83.6151 39.0691 82.9801 38.922 82.4213 38.6112C81.8625 38.3005 81.4025 37.8387 81.0939 37.2786H81.0462V42.2528H78.9849V28.8881H80.9802V30.5585H81.018C81.3408 30.0011 81.8086 29.5417 82.3716 29.2291C82.9348 28.9164 83.572 28.7624 84.2157 28.7831C86.7645 28.7831 88.4445 30.7979 88.4445 33.91ZM86.3258 33.91C86.3258 31.8768 85.2751 30.5401 83.6719 30.5401C82.097 30.5401 81.0376 31.9049 81.0376 33.91C81.0376 35.9334 82.097 37.2885 83.6719 37.2885C85.2751 37.2885 86.3258 35.9616 86.3258 33.91Z" fill="white"/>
<path d="M99.4959 33.9099C99.4959 37.0306 97.8255 39.0356 95.305 39.0356C94.6664 39.069 94.0314 38.9219 93.4726 38.6112C92.9137 38.3005 92.4538 37.8387 92.1452 37.2786H92.0975V42.2528H90.0361V28.8881H92.0315V30.5585H92.0693C92.3921 30.0011 92.8598 29.5417 93.423 29.2291C93.986 28.9164 94.6233 28.7624 95.267 28.7831C97.8158 28.7831 99.4959 30.7979 99.4959 33.9099ZM97.3771 33.9099C97.3771 31.8767 96.3264 30.5401 94.7232 30.5401C93.1482 30.5401 92.0888 31.9049 92.0888 33.9099C92.0888 35.9334 93.1482 37.2884 94.7232 37.2884C96.3264 37.2884 97.3771 35.9616 97.3771 33.9099Z" fill="white"/>
<path d="M106.802 35.0928C106.955 36.4586 108.282 37.3555 110.095 37.3555C111.833 37.3555 113.083 36.4586 113.083 35.227C113.083 34.1579 112.329 33.5177 110.544 33.079L108.758 32.649C106.229 32.038 105.055 30.8551 105.055 28.9358C105.055 26.5592 107.126 24.9268 110.067 24.9268C112.977 24.9268 114.973 26.5592 115.04 28.9358H112.959C112.834 27.5611 111.698 26.7314 110.038 26.7314C108.377 26.7314 107.241 27.5709 107.241 28.7928C107.241 29.7666 107.967 30.3396 109.742 30.7783L111.259 31.1509C114.086 31.8192 115.26 32.9544 115.26 34.9692C115.26 37.5461 113.207 39.1601 109.942 39.1601C106.888 39.1601 104.825 37.584 104.692 35.0926L106.802 35.0928Z" fill="white"/>
<path d="M119.708 26.5117V28.8883H121.618V30.5207H119.708V36.057C119.708 36.9171 120.09 37.3178 120.93 37.3178C121.157 37.3139 121.383 37.298 121.608 37.2701V38.8928C121.231 38.9634 120.847 38.9953 120.463 38.9881C118.43 38.9881 117.637 38.2244 117.637 36.2769V30.5207H116.177V28.8883H117.637V26.5117H119.708Z" fill="white"/>
<path d="M122.723 33.9098C122.723 30.7501 124.584 28.7646 127.486 28.7646C130.398 28.7646 132.25 30.7501 132.25 33.9098C132.25 37.0783 130.407 39.0551 127.486 39.0551C124.566 39.0551 122.723 37.0783 122.723 33.9098ZM130.15 33.9098C130.15 31.7423 129.156 30.4631 127.486 30.4631C125.816 30.4631 124.823 31.7521 124.823 33.9098C124.823 36.086 125.816 37.3556 127.486 37.3556C129.156 37.3556 130.15 36.086 130.15 33.9098Z" fill="white"/>
<path d="M133.952 28.888H135.918V30.5973H135.966C136.099 30.0635 136.412 29.5917 136.852 29.2613C137.291 28.9308 137.832 28.762 138.381 28.783C138.619 28.7821 138.856 28.8079 139.087 28.8599V30.788C138.788 30.6964 138.475 30.6542 138.161 30.6634C137.862 30.6512 137.564 30.704 137.286 30.8182C137.009 30.9323 136.76 31.1051 136.556 31.3245C136.352 31.544 136.198 31.8051 136.104 32.0899C136.011 32.3745 135.98 32.6761 136.013 32.9739V38.9305H133.952V28.888Z" fill="white"/>
<path d="M148.594 35.9809C148.317 37.804 146.541 39.0551 144.269 39.0551C141.348 39.0551 139.535 37.0977 139.535 33.9575C139.535 30.8076 141.358 28.7646 144.183 28.7646C146.961 28.7646 148.708 30.6733 148.708 33.7181V34.4244H141.616V34.5489C141.583 34.9185 141.629 35.2909 141.751 35.6412C141.873 35.9915 142.069 36.3118 142.325 36.5809C142.58 36.8499 142.889 37.0615 143.233 37.2016C143.577 37.3417 143.946 37.407 144.317 37.3934C144.804 37.4391 145.293 37.3263 145.711 37.0717C146.128 36.8173 146.453 36.4347 146.636 35.9809H148.594ZM141.625 32.9837H146.646C146.664 32.6514 146.614 32.3189 146.498 32.0069C146.382 31.695 146.203 31.4104 145.971 31.1711C145.74 30.9318 145.462 30.7428 145.154 30.6161C144.846 30.4895 144.515 30.4278 144.183 30.4349C143.847 30.4329 143.514 30.4975 143.203 30.6247C142.893 30.7519 142.611 30.9395 142.373 31.1764C142.135 31.4134 141.947 31.6951 141.818 32.0053C141.69 32.3154 141.625 32.648 141.625 32.9837Z" fill="white"/>
<path d="M67.6149 15.5221C67.9854 15.4955 68.3571 15.5514 68.7035 15.6859C69.0497 15.8204 69.3618 16.0301 69.6171 16.2998C69.8725 16.5695 70.0649 16.8925 70.1803 17.2455C70.2958 17.5986 70.3314 17.9729 70.2848 18.3414C70.2848 20.1541 69.305 21.196 67.6149 21.196H65.5654V15.5221H67.6149ZM66.4466 20.3936H67.5164C67.7813 20.4094 68.0462 20.3661 68.292 20.2666C68.5378 20.167 68.7584 20.014 68.9377 19.8185C69.1169 19.6231 69.2503 19.3901 69.3281 19.1365C69.406 18.883 69.4264 18.6153 69.3877 18.353C69.4235 18.0916 69.4012 17.8256 69.3221 17.5739C69.243 17.3222 69.1093 17.0911 68.9305 16.8972C68.7517 16.7033 68.5321 16.5513 68.2877 16.4522C68.0432 16.3531 67.7798 16.3093 67.5164 16.3239H66.4466V20.3936Z" fill="white"/>
<path d="M71.2791 19.0528C71.2522 18.7714 71.2843 18.4875 71.3736 18.2192C71.4628 17.951 71.6071 17.7044 71.7972 17.4952C71.9874 17.286 72.2191 17.1189 72.4776 17.0045C72.7362 16.8901 73.0157 16.8311 73.2983 16.8311C73.5811 16.8311 73.8606 16.8901 74.1191 17.0045C74.3776 17.1189 74.6094 17.286 74.7995 17.4952C74.9897 17.7044 75.1339 17.951 75.2232 18.2192C75.3124 18.4875 75.3446 18.7714 75.3177 19.0528C75.3451 19.3344 75.3133 19.6188 75.2243 19.8874C75.1353 20.156 74.9911 20.4031 74.8009 20.6128C74.6107 20.8224 74.3788 20.9898 74.12 21.1044C73.8613 21.2191 73.5814 21.2782 73.2983 21.2782C73.0154 21.2782 72.7355 21.2191 72.4768 21.1044C72.2179 20.9898 71.986 20.8224 71.7958 20.6128C71.6057 20.4031 71.4615 20.156 71.3724 19.8874C71.2834 19.6188 71.2517 19.3344 71.2791 19.0528ZM74.4485 19.0528C74.4485 18.1246 74.0315 17.5818 73.2998 17.5818C72.5652 17.5818 72.152 18.1246 72.152 19.0528C72.152 19.9884 72.5653 20.527 73.2998 20.527C74.0315 20.527 74.4485 19.9847 74.4485 19.0528Z" fill="white"/>
<path d="M80.6856 21.196H79.809L78.924 18.0423H78.8571L77.9758 21.196H77.1075L75.9272 16.9141H76.7844L77.5514 20.1814H77.6147L78.4949 16.9141H79.3057L80.186 20.1814H80.2529L81.0162 16.9141H81.8613L80.6856 21.196Z" fill="white"/>
<path d="M82.8555 16.9141H83.669V17.5943H83.7321C83.8392 17.35 84.02 17.1452 84.2489 17.0084C84.478 16.8717 84.744 16.8098 85.0099 16.8314C85.2182 16.8158 85.4274 16.8471 85.622 16.9233C85.8165 16.9995 85.9915 17.1184 86.1339 17.2714C86.2762 17.4243 86.3822 17.6074 86.4442 17.8069C86.5062 18.0064 86.5226 18.2173 86.492 18.424V21.1959H85.647V18.6362C85.647 17.9481 85.3479 17.6059 84.723 17.6059C84.5815 17.5993 84.4403 17.6234 84.309 17.6764C84.1777 17.7296 84.0595 17.8104 83.9623 17.9135C83.8653 18.0166 83.7916 18.1393 83.7464 18.2736C83.7012 18.4078 83.6855 18.5501 83.7006 18.691V21.196H82.8555V16.9141Z" fill="white"/>
<path d="M87.8369 15.2422H88.6819V21.1956H87.8369V15.2422Z" fill="white"/>
<path d="M89.8606 19.0529C89.8337 18.7714 89.8659 18.4875 89.9551 18.2193C90.0444 17.951 90.1888 17.7044 90.3788 17.4952C90.569 17.2861 90.8008 17.1189 91.0593 17.0045C91.3179 16.8901 91.5975 16.8311 91.8802 16.8311C92.1629 16.8311 92.4424 16.8901 92.7009 17.0045C92.9595 17.1189 93.1912 17.2861 93.3814 17.4952C93.5716 17.7044 93.7158 17.951 93.8051 18.2193C93.8944 18.4875 93.9265 18.7714 93.8996 19.0529C93.9271 19.3345 93.8953 19.6189 93.8063 19.8875C93.7172 20.1561 93.5729 20.4032 93.3827 20.6128C93.1925 20.8224 92.9606 20.9899 92.7019 21.1045C92.443 21.2191 92.1632 21.2783 91.8802 21.2783C91.5971 21.2783 91.3172 21.2191 91.0585 21.1045C90.7996 20.9899 90.5677 20.8224 90.3775 20.6128C90.1873 20.4032 90.0431 20.1561 89.9541 19.8875C89.8651 19.6189 89.8332 19.3345 89.8606 19.0529ZM93.03 19.0529C93.03 18.1247 92.613 17.5819 91.8813 17.5819C91.1467 17.5819 90.7335 18.1247 90.7335 19.0529C90.7335 19.9885 91.1468 20.5271 91.8813 20.5271C92.613 20.5271 93.03 19.9847 93.03 19.0529Z" fill="white"/>
<path d="M94.7896 19.9847C94.7896 19.2139 95.3634 18.7696 96.3821 18.7065L97.542 18.6395V18.27C97.542 17.8177 97.243 17.5623 96.6653 17.5623C96.1936 17.5623 95.8667 17.7356 95.773 18.0382H94.9548C95.0412 17.3028 95.733 16.8311 96.7044 16.8311C97.7779 16.8311 98.3834 17.3655 98.3834 18.27V21.1956H97.5699V20.5938H97.503C97.3673 20.8097 97.1767 20.9857 96.9508 21.1038C96.7248 21.2219 96.4715 21.2779 96.2169 21.2661C96.0371 21.2849 95.8554 21.2657 95.6835 21.2099C95.5116 21.154 95.3534 21.0628 95.2189 20.9421C95.0844 20.8214 94.9767 20.6738 94.9028 20.5089C94.8288 20.3439 94.7902 20.1655 94.7896 19.9847ZM97.542 19.6188V19.2608L96.4964 19.3277C95.9067 19.3672 95.6392 19.5677 95.6392 19.9452C95.6392 20.3306 95.9735 20.5549 96.4332 20.5549C96.568 20.5685 96.704 20.5549 96.8334 20.5148C96.9627 20.4749 97.0826 20.4092 97.1861 20.3219C97.2895 20.2346 97.3743 20.1273 97.4355 20.0065C97.4966 19.8857 97.5329 19.7539 97.542 19.6188Z" fill="white"/>
<path d="M99.4922 19.0528C99.4922 17.6998 100.188 16.8427 101.27 16.8427C101.537 16.8304 101.803 16.8945 102.035 17.0275C102.268 17.1605 102.458 17.357 102.583 17.5939H102.646V15.2422H103.491V21.1956H102.681V20.5191H102.614C102.48 20.7545 102.283 20.9485 102.046 21.0802C101.809 21.2119 101.541 21.2763 101.27 21.2662C100.18 21.2663 99.4922 20.4091 99.4922 19.0528ZM100.365 19.0528C100.365 19.961 100.793 20.5075 101.509 20.5075C102.222 20.5075 102.662 19.9531 102.662 19.0565C102.662 18.1642 102.217 17.6019 101.509 17.6019C100.798 17.6019 100.365 18.1521 100.365 19.0528Z" fill="white"/>
<path d="M106.987 19.0528C106.96 18.7714 106.992 18.4875 107.081 18.2192C107.17 17.951 107.315 17.7044 107.505 17.4952C107.695 17.286 107.927 17.1189 108.185 17.0045C108.444 16.8901 108.723 16.8311 109.006 16.8311C109.289 16.8311 109.568 16.8901 109.827 17.0045C110.085 17.1189 110.317 17.286 110.507 17.4952C110.697 17.7044 110.842 17.951 110.931 18.2192C111.02 18.4875 111.052 18.7714 111.025 19.0528C111.053 19.3344 111.021 19.6188 110.932 19.8874C110.843 20.156 110.699 20.4031 110.508 20.6128C110.318 20.8224 110.086 20.9898 109.828 21.1044C109.569 21.2191 109.289 21.2782 109.006 21.2782C108.723 21.2782 108.443 21.2191 108.184 21.1044C107.925 20.9898 107.694 20.8224 107.503 20.6128C107.313 20.4031 107.169 20.156 107.08 19.8874C106.991 19.6188 106.959 19.3344 106.987 19.0528ZM110.156 19.0528C110.156 18.1246 109.739 17.5818 109.007 17.5818C108.273 17.5818 107.86 18.1246 107.86 19.0528C107.86 19.9884 108.273 20.527 109.007 20.527C109.739 20.527 110.156 19.9847 110.156 19.0528Z" fill="white"/>
<path d="M112.158 16.9141H112.972V17.5943H113.035C113.142 17.35 113.323 17.1452 113.552 17.0084C113.781 16.8717 114.047 16.8098 114.313 16.8314C114.521 16.8158 114.73 16.8471 114.925 16.9233C115.119 16.9995 115.294 17.1184 115.437 17.2714C115.579 17.4243 115.685 17.6074 115.747 17.8069C115.809 18.0064 115.825 18.2173 115.795 18.424V21.1959H114.95V18.6362C114.95 17.9481 114.651 17.6059 114.026 17.6059C113.884 17.5993 113.743 17.6234 113.612 17.6764C113.48 17.7296 113.362 17.8104 113.265 17.9135C113.168 18.0166 113.094 18.1393 113.049 18.2736C113.004 18.4078 112.988 18.5501 113.003 18.691V21.196H112.158V16.9141Z" fill="white"/>
<path d="M120.572 15.8477V16.9332H121.499V17.6451H120.572V19.8468C120.572 20.2954 120.757 20.4917 121.177 20.4917C121.285 20.4914 121.392 20.4849 121.499 20.4722V21.1761C121.348 21.2033 121.194 21.2178 121.04 21.2193C120.1 21.2193 119.726 20.8888 119.726 20.0632V17.645H119.046V16.9332H119.726V15.8477H120.572Z" fill="white"/>
<path d="M122.65 15.2422H123.488V17.6019H123.555C123.667 17.3552 123.853 17.1493 124.086 17.012C124.32 16.8747 124.59 16.8129 124.861 16.8348C125.068 16.8235 125.275 16.8581 125.467 16.9362C125.66 17.0141 125.832 17.1337 125.973 17.2861C126.114 17.4386 126.22 17.6202 126.282 17.8182C126.345 18.0161 126.363 18.2254 126.335 18.4311V21.1956H125.489V18.6396C125.489 17.9556 125.171 17.6093 124.574 17.6093C124.428 17.5973 124.282 17.6173 124.146 17.6678C124.009 17.7182 123.885 17.798 123.782 17.9013C123.679 18.0047 123.601 18.1294 123.551 18.2664C123.502 18.4034 123.483 18.5497 123.495 18.6948V21.1956H122.65V15.2422Z" fill="white"/>
<path d="M131.263 20.0395C131.148 20.4308 130.9 20.7694 130.561 20.9959C130.221 21.2223 129.813 21.3223 129.408 21.2783C129.126 21.2858 128.845 21.2317 128.586 21.12C128.327 21.0082 128.096 20.8414 127.907 20.6311C127.719 20.4209 127.579 20.1721 127.497 19.9022C127.414 19.6324 127.391 19.3477 127.43 19.0682C127.392 18.7877 127.416 18.5026 127.498 18.2318C127.58 17.9612 127.719 17.7113 127.907 17.4992C128.094 17.287 128.325 17.1176 128.583 17.0024C128.841 16.8871 129.122 16.8287 129.404 16.8311C130.596 16.8311 131.315 17.6451 131.315 18.9897V19.2846H128.291V19.332C128.277 19.489 128.297 19.6472 128.349 19.7963C128.4 19.9453 128.483 20.0819 128.589 20.1975C128.697 20.313 128.827 20.4048 128.973 20.467C129.117 20.5292 129.274 20.5604 129.431 20.5586C129.633 20.5829 129.838 20.5465 130.019 20.454C130.201 20.3616 130.35 20.2173 130.45 20.0395H131.263ZM128.291 18.6596H130.454C130.465 18.5159 130.445 18.3715 130.396 18.2358C130.348 18.1001 130.271 17.976 130.173 17.8715C130.073 17.7671 129.953 17.6846 129.82 17.6292C129.687 17.5739 129.544 17.5471 129.399 17.5503C129.253 17.5485 129.108 17.576 128.973 17.631C128.837 17.6861 128.715 17.7678 128.611 17.8712C128.508 17.9745 128.427 18.0976 128.372 18.233C128.316 18.3684 128.289 18.5134 128.291 18.6596Z" fill="white"/>
</svg>
