<svg width="183" height="57" viewBox="0 0 183 57" fill="none" xmlns="http://www.w3.org/2000/svg">
<rect x="0.941406" y="0.251953" width="182" height="56" rx="8" fill="#141B34"/>
<path d="M73.1451 17.8548C73.1626 18.2467 73.1006 18.6382 72.9629 19.0056C72.8252 19.3729 72.6144 19.7087 72.3435 19.9924C72.0398 20.3059 71.6734 20.5518 71.2682 20.7138C70.863 20.8759 70.4281 20.9505 69.9921 20.933C69.5535 20.9427 69.1175 20.8625 68.7113 20.697C68.3049 20.5316 67.9369 20.2844 67.6299 19.9711C67.3132 19.6638 67.0635 19.2944 66.8961 18.8861C66.7287 18.4778 66.6475 18.0394 66.6573 17.5982C66.646 17.1553 66.7266 16.7148 66.8939 16.3046C67.0613 15.8943 67.312 15.5233 67.6299 15.2147C68.1061 14.7494 68.7091 14.4353 69.3634 14.3117C70.0175 14.1881 70.6936 14.2605 71.3067 14.52C71.6921 14.6784 72.0359 14.9235 72.3114 15.2361L71.7449 15.8026C71.5327 15.5469 71.2638 15.3442 70.9595 15.2106C70.6552 15.077 70.3239 15.0162 69.9921 15.033C69.6583 15.0314 69.3275 15.0972 69.0196 15.2265C68.7118 15.3558 68.4333 15.5459 68.2007 15.7854C67.9682 16.025 67.7864 16.309 67.6663 16.6205C67.5461 16.932 67.4901 17.2646 67.5017 17.5982C67.4947 18.0964 67.6354 18.5855 67.906 19.0039C68.1767 19.4222 68.5653 19.7511 69.0225 19.9488C69.4799 20.1467 69.9855 20.2046 70.4758 20.1153C70.966 20.0261 71.4187 19.7936 71.777 19.4473C72.1066 19.0903 72.2997 18.6286 72.3221 18.1434H69.9921V17.3738H73.1024C73.1263 17.5331 73.1405 17.6937 73.1451 17.8548Z" fill="white" stroke="white" stroke-width="0.27" stroke-miterlimit="10"/>
<path d="M78.0403 15.1825H75.1545V17.2133H77.7838V17.9829H75.1545V20.0137H78.0403V20.8046H74.3208V14.3916H78.0403V15.1825Z" fill="white" stroke="white" stroke-width="0.27" stroke-miterlimit="10"/>
<path d="M81.5459 20.8046H80.7229V15.1825H78.9272V14.3916H83.3843V15.1825H81.5459V20.8046Z" fill="white" stroke="white" stroke-width="0.27" stroke-miterlimit="10"/>
<path d="M86.5269 20.8046V14.3916H87.3499V20.8046H86.5269Z" fill="white" stroke="white" stroke-width="0.27" stroke-miterlimit="10"/>
<path d="M91.0049 20.8046H90.1819V15.1825H88.3862V14.3916H92.7898V15.1825H91.0049V20.8046Z" fill="white" stroke="white" stroke-width="0.27" stroke-miterlimit="10"/>
<path d="M101.139 19.9712C100.831 20.2802 100.464 20.5253 100.06 20.6926C99.657 20.8598 99.2245 20.9458 98.7878 20.9458C98.351 20.9458 97.9186 20.8598 97.5151 20.6926C97.1116 20.5253 96.745 20.2802 96.4363 19.9712C96.1254 19.6613 95.8816 19.2907 95.7198 18.8825C95.558 18.4743 95.4818 18.0373 95.4958 17.5984C95.4818 17.1596 95.558 16.7226 95.7198 16.3145C95.8816 15.9063 96.1254 15.5357 96.4363 15.2257C96.7384 14.908 97.1037 14.6573 97.5088 14.4898C97.9139 14.3222 98.3496 14.2416 98.7878 14.253C99.2254 14.2461 99.6597 14.3288 100.064 14.4961C100.469 14.6634 100.834 14.9117 101.139 15.2257C101.446 15.5383 101.688 15.9093 101.85 16.3169C102.011 16.7244 102.09 17.1602 102.08 17.5984C102.094 18.0373 102.018 18.4743 101.856 18.8825C101.694 19.2907 101.45 19.6613 101.139 19.9712ZM97.0456 19.4368C97.2732 19.6676 97.5445 19.8508 97.8436 19.9758C98.1426 20.1009 98.4636 20.1653 98.7878 20.1653C99.1119 20.1653 99.4329 20.1009 99.732 19.9758C100.031 19.8508 100.302 19.6676 100.53 19.4368C100.767 19.1943 100.952 18.9065 101.075 18.5906C101.198 18.2747 101.256 17.9372 101.246 17.5984C101.251 17.2566 101.186 16.9174 101.056 16.6013C100.925 16.2853 100.732 15.9991 100.487 15.7601C100.26 15.5294 99.9883 15.3461 99.6892 15.2211C99.3902 15.096 99.0692 15.0316 98.745 15.0316C98.4208 15.0316 98.0999 15.096 97.8008 15.2211C97.5018 15.3461 97.2305 15.5294 97.0028 15.7601C96.7738 16.0062 96.5961 16.2956 96.4805 16.6113C96.3648 16.927 96.3135 17.2626 96.3295 17.5984C96.3192 17.9372 96.3772 18.2747 96.5004 18.5906C96.6234 18.9065 96.8088 19.1943 97.0456 19.4368Z" fill="white" stroke="white" stroke-width="0.27" stroke-miterlimit="10"/>
<path d="M103.244 20.8046V14.3916H104.238L107.359 19.3831V18.1432V14.3916H108.182V20.8046H107.327L104.067 15.578V16.8072V20.8046H103.244Z" fill="white" stroke="white" stroke-width="0.27" stroke-miterlimit="10"/>
<path d="M93.4844 29.9936C92.656 29.9956 91.8467 30.2465 91.159 30.7146C90.4712 31.1828 89.9359 31.8471 89.6207 32.6235C89.3055 33.4 89.2244 34.2538 89.388 35.077C89.5515 35.9001 89.9522 36.6556 90.5394 37.2479C91.1266 37.8403 91.8738 38.2429 92.6867 38.4047C93.4996 38.5666 94.3416 38.4806 95.1063 38.1574C95.8709 37.8342 96.5239 37.2886 96.9824 36.5893C97.4411 35.8901 97.6849 35.0687 97.6829 34.229C97.691 33.6689 97.5876 33.1128 97.3793 32.594C97.1708 32.0751 96.8616 31.6041 96.4699 31.2089C96.078 30.8137 95.6119 30.5025 95.099 30.2936C94.5862 30.0848 94.037 29.9828 93.4844 29.9936ZM93.4844 36.8001C92.9767 36.8361 92.4699 36.7165 92.0302 36.4567C91.5904 36.197 91.2379 35.8091 91.0184 35.3436C90.799 34.8781 90.7228 34.3564 90.7998 33.8465C90.8768 33.3365 91.1034 32.8618 91.45 32.4841C91.7967 32.1063 92.2475 31.843 92.7438 31.7284C93.2401 31.6138 93.7589 31.6531 94.2329 31.8413C94.7068 32.0296 95.1139 32.3578 95.4013 32.7837C95.6887 33.2095 95.843 33.7131 95.8442 34.229C95.8601 34.5559 95.8112 34.8827 95.7004 35.1901C95.5897 35.4975 95.4193 35.7794 95.1993 36.019C94.9795 36.2587 94.7144 36.4512 94.4198 36.5854C94.1253 36.7195 93.8072 36.7926 93.4844 36.8001ZM84.3204 29.9936C83.4921 29.9956 82.6827 30.2465 81.995 30.7146C81.3073 31.1828 80.772 31.8471 80.4567 32.6235C80.1415 33.4 80.0605 34.2538 80.224 35.077C80.3875 35.9001 80.7882 36.6556 81.3754 37.2479C81.9626 37.8403 82.7099 38.2429 83.5227 38.4047C84.3357 38.5666 85.1777 38.4806 85.9423 38.1574C86.7069 37.8342 87.3599 37.2886 87.8185 36.5893C88.2772 35.8901 88.5209 35.0687 88.519 34.229C88.527 33.6689 88.4237 33.1128 88.2153 32.594C88.0069 32.0751 87.6976 31.6041 87.3059 31.2089C86.9141 30.8137 86.4479 30.5025 85.9351 30.2936C85.4222 30.0848 84.873 29.9828 84.3204 29.9936ZM84.3204 36.8001C83.8127 36.8361 83.3059 36.7165 82.8662 36.4567C82.4264 36.197 82.0739 35.8091 81.8544 35.3436C81.6351 34.8781 81.5589 34.3564 81.6359 33.8465C81.7129 33.3365 81.9394 32.8618 82.2861 32.4841C82.6328 32.1063 83.0835 31.843 83.5799 31.7284C84.0761 31.6138 84.595 31.6531 85.0689 31.8413C85.5428 32.0296 85.9499 32.3578 86.2373 32.7837C86.5247 33.2095 86.679 33.7131 86.6803 34.229C86.6961 34.5559 86.6472 34.8827 86.5364 35.1901C86.4257 35.4975 86.2553 35.7794 86.0354 36.019C85.8155 36.2587 85.5504 36.4512 85.2558 36.5854C84.9613 36.7195 84.6433 36.7926 84.3204 36.8001ZM73.426 31.2991V33.0929H77.6736C77.6071 33.9378 77.2605 34.735 76.6904 35.3551C76.2643 35.7951 75.7519 36.1396 75.1861 36.3661C74.6204 36.5928 74.014 36.6965 73.4063 36.6706C72.1546 36.6706 70.9541 36.1666 70.069 35.2695C69.1839 34.3725 68.6867 33.1558 68.6867 31.887C68.6867 30.6184 69.1839 29.4017 70.069 28.5046C70.9541 27.6075 72.1546 27.1035 73.4063 27.1035C74.6063 27.0855 75.765 27.5473 76.6314 28.3891L77.8801 27.1234C77.2941 26.536 76.5982 26.0729 75.8335 25.7615C75.0686 25.4501 74.2501 25.2964 73.426 25.3097C72.5518 25.2752 71.6799 25.4199 70.8622 25.7352C70.0446 26.0504 69.2982 26.5298 68.6678 27.1444C68.0372 27.759 67.5357 28.4963 67.1931 29.3121C66.8505 30.1279 66.6738 31.0054 66.6738 31.892C66.6738 32.7787 66.8505 33.6562 67.1931 34.4719C67.5357 35.2877 68.0372 36.0251 68.6678 36.6397C69.2982 37.2544 70.0446 37.7336 70.8622 38.0489C71.6799 38.3642 72.5518 38.5089 73.426 38.4744C74.267 38.5085 75.1058 38.3618 75.887 38.0441C76.6681 37.7263 77.3742 37.2446 77.9588 36.6307C78.9913 35.4811 79.5415 33.9691 79.4927 32.4152C79.4962 32.0412 79.4666 31.6677 79.4042 31.2991H73.426ZM117.977 32.6943C117.721 31.9297 117.241 31.262 116.602 30.7798C115.963 30.2974 115.195 30.0233 114.398 29.9936C113.86 29.9926 113.328 30.1033 112.834 30.319C112.34 30.5347 111.895 30.8508 111.527 31.2478C111.158 31.6448 110.874 32.1142 110.691 32.6269C110.509 33.1396 110.432 33.685 110.465 34.229C110.457 35.1388 110.739 36.0268 111.27 36.7606C111.8 37.4943 112.551 38.0344 113.409 38.3002C114.268 38.5659 115.188 38.543 116.033 38.2349C116.877 37.9269 117.601 37.3501 118.095 36.5909L116.67 35.5943C116.457 35.9534 116.156 36.2498 115.795 36.4543C115.435 36.6589 115.028 36.7644 114.615 36.7603C114.188 36.7781 113.767 36.6649 113.405 36.4355C113.044 36.206 112.759 35.8711 112.589 35.4747L118.184 33.1328L117.977 32.6943ZM112.274 34.1094C112.255 33.8004 112.296 33.4904 112.396 33.1977C112.496 32.9051 112.653 32.6358 112.857 32.4055C113.061 32.1751 113.309 31.9886 113.586 31.8567C113.862 31.725 114.162 31.6506 114.467 31.6379C114.783 31.6175 115.098 31.6915 115.372 31.8511C115.647 32.0105 115.869 32.2483 116.011 32.5348L112.274 34.1094ZM107.732 38.2153H109.571V25.7581H107.732V38.2153ZM104.723 30.9403H104.654C104.375 30.6324 104.034 30.3885 103.654 30.2252C103.274 30.0619 102.864 29.9829 102.452 29.9936C101.377 30.0464 100.364 30.5162 99.6219 31.3056C98.8798 32.0951 98.4659 33.1436 98.4659 34.234C98.4659 35.3243 98.8798 36.3729 99.6219 37.1623C100.364 37.9518 101.377 38.4216 102.452 38.4744C102.869 38.4828 103.282 38.3979 103.663 38.2256C104.044 38.0534 104.382 37.798 104.654 37.4778H104.723V38.0857C104.723 39.7101 103.868 40.5771 102.491 40.5771C102.031 40.5669 101.585 40.4184 101.208 40.1505C100.832 39.8825 100.543 39.5073 100.377 39.0723L98.7842 39.74C99.0787 40.4897 99.5907 41.1311 100.253 41.5796C100.914 42.028 101.695 42.2622 102.491 42.2514C104.644 42.2514 106.424 40.9658 106.424 37.8366V30.2427H104.723V30.9403ZM102.609 36.8001C101.965 36.7595 101.36 36.4714 100.918 35.9946C100.476 35.5178 100.23 34.8882 100.23 34.234C100.23 33.5798 100.476 32.9502 100.918 32.4734C101.36 31.9966 101.965 31.7086 102.609 31.6678C102.924 31.6815 103.233 31.7594 103.517 31.8967C103.802 32.0339 104.056 32.2278 104.266 32.4667C104.475 32.7057 104.634 32.9849 104.735 33.2876C104.835 33.5904 104.875 33.9105 104.851 34.229C104.878 34.5486 104.84 34.8704 104.741 35.1749C104.642 35.4794 104.482 35.7603 104.273 36.0007C104.063 36.2411 103.808 36.4358 103.522 36.5732C103.236 36.7106 102.925 36.7879 102.609 36.8001ZM126.591 25.7581H122.186V38.2153H124.024V33.4915H126.591C127.115 33.5297 127.641 33.458 128.136 33.2809C128.632 33.104 129.086 32.8254 129.471 32.4626C129.855 32.0998 130.162 31.6606 130.371 31.1724C130.582 30.6841 130.69 30.1573 130.69 29.6248C130.69 29.0924 130.582 28.5656 130.371 28.0773C130.162 27.5891 129.855 27.1499 129.471 26.7871C129.086 26.4243 128.632 26.1457 128.136 25.9687C127.641 25.7917 127.115 25.72 126.591 25.7581ZM126.591 31.7376H124.024V27.4922H126.63C127.188 27.4922 127.723 27.7169 128.118 28.1168C128.513 28.5167 128.734 29.0593 128.734 29.6248C128.734 30.1905 128.513 30.7329 128.118 31.1328C127.723 31.5329 127.188 31.7575 126.63 31.7575L126.591 31.7376ZM137.937 29.9537C137.268 29.9118 136.601 30.0699 136.019 30.4081C135.437 30.7465 134.966 31.2502 134.663 31.8571L136.286 32.5448C136.45 32.2452 136.696 32.0002 136.993 31.8392C137.292 31.6784 137.631 31.6084 137.967 31.6379C138.2 31.6103 138.437 31.63 138.663 31.696C138.888 31.7621 139.099 31.873 139.282 32.0223C139.465 32.1717 139.617 32.3564 139.729 32.5659C139.841 32.7754 139.91 33.0054 139.933 33.2424V33.362C139.342 33.047 138.684 32.8828 138.016 32.8836C136.266 32.8836 134.476 33.8802 134.476 35.6939C134.494 36.0795 134.587 36.4575 134.752 36.8057C134.916 37.1538 135.148 37.465 135.433 37.7206C135.718 37.9763 136.052 38.1712 136.412 38.2938C136.773 38.4165 137.155 38.4643 137.534 38.4345C137.995 38.4604 138.456 38.3615 138.867 38.1478C139.279 37.9341 139.626 37.6135 139.874 37.2187H139.933V38.2153H141.703V33.4218C141.703 31.2393 140.071 29.9736 137.977 29.9736L137.937 29.9537ZM137.711 36.7802C137.111 36.7802 136.276 36.4713 136.276 35.7238C136.276 34.7273 137.318 34.3884 138.242 34.3884C138.826 34.3739 139.403 34.5184 139.914 34.807C139.852 35.3482 139.599 35.8484 139.201 36.2149C138.804 36.5814 138.288 36.7893 137.751 36.8001L137.711 36.7802ZM148.153 30.2427L146.049 35.6441H145.99L143.807 30.2427H141.841L145.115 37.7967L143.247 41.9923H145.213L150.199 30.2427H148.153ZM131.635 38.2153H133.464V25.7581H131.635V38.2153Z" fill="white"/>
<path d="M33.6192 14.9693C33.2786 15.3905 33.1105 15.9254 33.149 16.4657V40.1083C33.1126 40.6538 33.2931 41.1916 33.6513 41.6046L33.7261 41.6901L46.9369 28.4473V28.1266L33.694 14.8945L33.6192 14.9693Z" fill="url(#paint0_linear_263_1123)"/>
<path d="M51.3192 32.8611L46.937 28.4468V28.1262L51.3192 23.7119L51.4154 23.776L56.6634 26.7474C58.1598 27.5918 58.1598 28.9813 56.6634 29.8363L51.4368 32.8077L51.3192 32.8611Z" fill="url(#paint1_linear_263_1123)"/>
<path d="M51.4502 32.8083L46.9397 28.2871L33.6221 41.6048C33.9241 41.8736 34.3107 42.0282 34.7148 42.0419C35.119 42.0556 35.5151 41.9274 35.8346 41.6796L51.4502 32.8083Z" fill="url(#paint2_linear_263_1123)"/>
<path d="M51.4502 23.7771L35.8346 14.9058C35.5172 14.6545 35.1213 14.5232 34.7167 14.5349C34.312 14.5466 33.9244 14.7007 33.6221 14.9699L46.9397 28.2876L51.4502 23.7771Z" fill="url(#paint3_linear_263_1123)"/>
<path opacity="0.2" d="M51.3219 32.7012L35.8346 41.519C35.5267 41.7514 35.1515 41.8771 34.7657 41.8771C34.3801 41.8771 34.0048 41.7514 33.6969 41.519L33.6221 41.5939L33.6969 41.6794C34.0048 41.9117 34.3801 42.0374 34.7657 42.0374C35.1515 42.0374 35.5267 41.9117 35.8346 41.6794L51.4502 32.8081L51.3219 32.7012Z" fill="white"/>
<path opacity="0.12" d="M33.62 41.4553C33.2767 41.0313 33.1084 40.4922 33.1497 39.9482V40.1086C33.1133 40.654 33.2939 41.1918 33.6521 41.6049L33.7269 41.5301L33.62 41.4553Z" fill="white"/>
<path opacity="0.12" d="M56.665 29.6766L51.3208 32.7014L51.417 32.8083L56.665 29.8262C56.9747 29.6952 57.2435 29.4831 57.4429 29.2123C57.6422 28.9414 57.7649 28.6219 57.7979 28.2871C57.7311 28.5913 57.5938 28.8755 57.397 29.1168C57.2001 29.3582 56.9495 29.5499 56.665 29.6766Z" fill="white"/>
<path opacity="0.25" d="M35.8351 15.0554L56.6667 26.8981C56.9512 27.0247 57.2018 27.2165 57.3987 27.4578C57.5955 27.6992 57.7328 27.9834 57.7996 28.2876C57.7666 27.9528 57.6439 27.6332 57.4446 27.3624C57.2452 27.0915 56.9764 26.8794 56.6667 26.7484L35.8351 14.9057C34.3494 14.0507 33.1523 14.7561 33.1523 16.4662V16.6266C33.1523 14.9164 34.3494 14.211 35.8351 15.0554Z" fill="white"/>
<defs>
<linearGradient id="paint0_linear_263_1123" x1="45.7612" y1="16.2199" x2="27.8262" y2="34.1549" gradientUnits="userSpaceOnUse">
<stop stop-color="#00A0FF"/>
<stop offset="0.01" stop-color="#00A1FF"/>
<stop offset="0.26" stop-color="#00BEFF"/>
<stop offset="0.51" stop-color="#00D2FF"/>
<stop offset="0.76" stop-color="#00DFFF"/>
<stop offset="1" stop-color="#00E3FF"/>
</linearGradient>
<linearGradient id="paint1_linear_263_1123" x1="58.6194" y1="28.2865" x2="32.7643" y2="28.2865" gradientUnits="userSpaceOnUse">
<stop stop-color="#FFE000"/>
<stop offset="0.41" stop-color="#FFBD00"/>
<stop offset="0.78" stop-color="#FFA500"/>
<stop offset="1" stop-color="#FF9C00"/>
</linearGradient>
<linearGradient id="paint2_linear_263_1123" x1="49.0026" y1="30.7454" x2="24.676" y2="55.0614" gradientUnits="userSpaceOnUse">
<stop stop-color="#FF3A44"/>
<stop offset="1" stop-color="#C31162"/>
</linearGradient>
<linearGradient id="paint3_linear_263_1123" x1="30.266" y1="7.10328" x2="41.1253" y2="17.9627" gradientUnits="userSpaceOnUse">
<stop stop-color="#32A071"/>
<stop offset="0.07" stop-color="#2DA771"/>
<stop offset="0.48" stop-color="#15CF74"/>
<stop offset="0.8" stop-color="#06E775"/>
<stop offset="1" stop-color="#00F076"/>
</linearGradient>
</defs>
</svg>
