<svg width="65" height="50" viewBox="0 0 65 50" fill="none" xmlns="http://www.w3.org/2000/svg">
<path d="M58.287 20.7026C54.955 23.0926 50.2779 26.271 48.1682 26.271C47.7504 26.271 47.6163 26.145 47.5188 26.0265C46.6573 24.9646 46.8903 21.241 48.2129 14.9636C48.3437 14.3419 48.0159 13.7168 47.4328 13.471C46.8496 13.2238 46.1724 13.4263 45.8189 13.9518C41.2671 20.7385 39.1825 22.1621 38.2377 22.1621C36.8975 22.1621 35.5355 18.3072 34.1837 10.7031C34.0761 10.0962 33.5641 9.65399 32.9559 9.61878V9.61133C32.943 9.61133 32.9308 9.61404 32.918 9.61404C32.9051 9.61404 32.8909 9.61133 32.8787 9.61133V9.61878C32.2725 9.65399 31.7619 10.0962 31.6522 10.7031C30.299 18.3072 28.9357 22.1621 27.5968 22.1621C26.6514 22.1621 24.5682 20.7378 20.017 13.9518C19.6642 13.4263 18.987 13.2238 18.4025 13.471C17.8187 13.7168 17.4909 14.3419 17.6223 14.9636C18.9443 21.241 19.1793 24.9646 18.3158 26.0265C18.2203 26.1457 18.0842 26.271 17.667 26.271C15.5574 26.271 10.8803 23.0933 7.54687 20.7026C7.01997 20.324 6.29734 20.3857 5.8402 20.8442C5.38238 21.3006 5.32211 22.0233 5.70001 22.5508C13.3211 32.2978 11.8867 43.4846 11.8867 43.4846C11.8589 43.6397 11.844 43.7982 11.844 43.9648C11.844 46.713 15.6921 47.8007 19.0438 48.4414C22.7369 49.1491 27.6009 49.5433 32.769 49.5568V49.5582C32.8184 49.5582 32.8685 49.5582 32.918 49.5568C32.9674 49.5582 33.0168 49.5582 33.0676 49.5582V49.5568C38.2344 49.5426 43.099 49.1484 46.7907 48.4414C50.1431 47.8007 53.9919 46.711 53.9919 43.9648C53.9919 43.7982 53.977 43.6404 53.9492 43.4846C53.9492 43.4846 52.5155 32.2958 60.1352 22.5508C60.5138 22.0239 60.4542 21.3006 59.9964 20.8442C59.5365 20.387 58.8153 20.3247 58.287 20.7026ZM33.0663 45.7649H33.0561C33.0087 45.7649 32.9633 45.7669 32.9166 45.7669C32.8692 45.7669 32.8252 45.7649 32.7778 45.7649H32.7676C24.5546 45.7412 19.1251 44.7856 16.729 43.9654C19.1251 43.1439 24.5546 42.1883 32.7676 42.1653H32.7872C32.8299 42.1653 32.8726 42.1653 32.9159 42.1653C32.9593 42.1653 32.9999 42.1653 33.0446 42.1653H33.0649C41.2772 42.1883 46.7061 43.1439 49.1028 43.9654C46.7074 44.7856 41.2786 45.7412 33.0663 45.7649Z" fill="#001C99"/>
<path d="M32.9178 8.00757C35.1298 8.00757 36.923 6.21436 36.923 4.00232C36.923 1.79028 35.1298 -0.00292969 32.9178 -0.00292969C30.7057 -0.00292969 28.9125 1.79028 28.9125 4.00232C28.9125 6.21436 30.7057 8.00757 32.9178 8.00757Z" fill="#001C99"/>
<path d="M16.0093 12.1789C17.8525 12.1789 19.3468 10.6846 19.3468 8.84139C19.3468 6.99815 17.8525 5.50391 16.0093 5.50391C14.1661 5.50391 12.6718 6.99815 12.6718 8.84139C12.6718 10.6846 14.1661 12.1789 16.0093 12.1789Z" fill="#001C99"/>
<path d="M49.5463 12.1789C51.3896 12.1789 52.8838 10.6846 52.8838 8.84139C52.8838 6.99815 51.3896 5.50391 49.5463 5.50391C47.7031 5.50391 46.2089 6.99815 46.2089 8.84139C46.2089 10.6846 47.7031 12.1789 49.5463 12.1789Z" fill="#001C99"/>
<path d="M3.13062 20.6002C4.37316 20.6002 5.38044 19.5929 5.38044 18.3504C5.38044 17.1079 4.37316 16.1006 3.13062 16.1006C1.88808 16.1006 0.880798 17.1079 0.880798 18.3504C0.880798 19.5929 1.88808 20.6002 3.13062 20.6002Z" fill="#001C99"/>
<path d="M62.6306 20.6002C63.8732 20.6002 64.8804 19.5929 64.8804 18.3504C64.8804 17.1079 63.8732 16.1006 62.6306 16.1006C61.3881 16.1006 60.3808 17.1079 60.3808 18.3504C60.3808 19.5929 61.3881 20.6002 62.6306 20.6002Z" fill="#001C99"/>
</svg>
