<svg width="25" height="24" viewBox="0 0 25 24" fill="none" xmlns="http://www.w3.org/2000/svg">
<path d="M4.11719 18.6458V8.05426C4.11719 5.20025 4.11719 3.77325 4.99587 2.88663C5.87455 2 7.28876 2 10.1172 2H14.1172C16.9456 2 18.3598 2 19.2385 2.88663C20.1172 3.77325 20.1172 5.20025 20.1172 8.05426V18.6458C20.1172 20.1575 20.1172 20.9133 19.6552 21.2108C18.9003 21.6971 17.7333 20.6774 17.1463 20.3073C16.6613 20.0014 16.4189 19.8485 16.1497 19.8397C15.8589 19.8301 15.6121 19.9768 15.0881 20.3073L13.1772 21.5124C12.6617 21.8374 12.404 22 12.1172 22C11.8304 22 11.5727 21.8374 11.0572 21.5124L9.14632 20.3073C8.66134 20.0014 8.41885 19.8485 8.14972 19.8397C7.85891 19.8301 7.61212 19.9768 7.08806 20.3073C6.50114 20.6774 5.33406 21.6971 4.57914 21.2108C4.11719 20.9133 4.11719 20.1575 4.11719 18.6458Z" stroke="#0047FF" stroke-width="2.5" stroke-linecap="round" stroke-linejoin="round"/>
<path d="M11.1172 11H8.11719" stroke="#0047FF" stroke-width="2.5" stroke-linecap="round" stroke-linejoin="round"/>
<path d="M14.1172 7H8.11719" stroke="#0047FF" stroke-width="2.5" stroke-linecap="round" stroke-linejoin="round"/>
</svg>
