<svg width="33" height="33" viewBox="0 0 33 33" fill="none" xmlns="http://www.w3.org/2000/svg">
<rect x="0.883057" y="0.369141" width="32" height="32" rx="8" fill="url(#paint0_linear_68_2899)"/>
<g clip-path="url(#clip0_68_2899)">
<path d="M20.8831 8.36914H12.8831C10.6431 8.36914 8.88306 10.1291 8.88306 12.3691V20.3691C8.88306 22.6091 10.6431 24.3691 12.8831 24.3691H20.8831C23.1231 24.3691 24.8831 22.6091 24.8831 20.3691V12.3691C24.8831 10.1291 23.1231 8.36914 20.8831 8.36914ZM23.2831 20.3691C23.2831 21.7291 22.2431 22.7691 20.8831 22.7691H12.8831C11.5231 22.7691 10.4831 21.7291 10.4831 20.3691V12.3691C10.4831 11.0091 11.5231 9.96914 12.8831 9.96914H20.8831C22.2431 9.96914 23.2831 11.0091 23.2831 12.3691V20.3691Z" fill="white"/>
<path d="M16.8831 12.3691C14.6431 12.3691 12.8831 14.1291 12.8831 16.3691C12.8831 18.6091 14.6431 20.3691 16.8831 20.3691C19.1231 20.3691 20.8831 18.6091 20.8831 16.3691C20.8831 14.1291 19.1231 12.3691 16.8831 12.3691ZM16.8831 18.7691C15.5231 18.7691 14.4831 17.7291 14.4831 16.3691C14.4831 15.0091 15.5231 13.9691 16.8831 13.9691C18.2431 13.9691 19.2831 15.0091 19.2831 16.3691C19.2831 17.7291 18.2431 18.7691 16.8831 18.7691Z" fill="white"/>
<path d="M20.8823 13.1684C21.3241 13.1684 21.6823 12.8102 21.6823 12.3684C21.6823 11.9265 21.3241 11.5684 20.8823 11.5684C20.4404 11.5684 20.0823 11.9265 20.0823 12.3684C20.0823 12.8102 20.4404 13.1684 20.8823 13.1684Z" fill="white"/>
</g>
<defs>
<linearGradient id="paint0_linear_68_2899" x1="10.3376" y1="3.27823" x2="19.0649" y2="30.9146" gradientUnits="userSpaceOnUse">
<stop stop-color="#7A0BE8"/>
<stop offset="0.372702" stop-color="#DE3174"/>
<stop offset="0.60055" stop-color="#E64860"/>
<stop offset="1" stop-color="#FCB966"/>
</linearGradient>
<clipPath id="clip0_68_2899">
<rect width="16" height="16" fill="white" transform="translate(8.88306 8.36914)"/>
</clipPath>
</defs>
</svg>
