<svg width="33" height="33" viewBox="0 0 33 33" fill="none" xmlns="http://www.w3.org/2000/svg">
<rect x="0.883057" y="0.369141" width="32" height="32" rx="8" fill="#0059B2"/>
<path d="M25.1557 24.6455L25.1598 24.6448V18.5745C25.1598 15.6048 24.5205 13.3172 21.0488 13.3172C19.3798 13.3172 18.2598 14.2331 17.8026 15.1014H17.7543V13.5945H14.4625V24.6448H17.8901V19.1731C17.8901 17.7324 18.1632 16.3393 19.9474 16.3393C21.7053 16.3393 21.7315 17.9835 21.7315 19.2655V24.6455H25.1557Z" fill="white"/>
<path d="M8.88116 13.5951H12.3129V24.6454H8.88116V13.5951Z" fill="white"/>
<path d="M10.5956 8.09375C9.49841 8.09375 8.60806 8.98409 8.60806 10.0813C8.60806 11.1786 9.49841 12.0875 10.5956 12.0875C11.6929 12.0875 12.5832 11.1786 12.5832 10.0813C12.5825 8.98409 11.6922 8.09375 10.5956 8.09375Z" fill="white"/>
</svg>
