<svg width="25" height="24" viewBox="0 0 25 24" fill="none" xmlns="http://www.w3.org/2000/svg">
<path d="M15.6548 18.592C14.5484 19.5 12.9047 19.5 9.61719 19.5C6.32971 19.5 4.68597 19.5 3.57962 18.592C3.37708 18.4258 3.19137 18.2401 3.02515 18.0376C2.11719 16.9312 2.11719 15.2875 2.11719 12C2.11719 8.71252 2.11719 7.06878 3.02515 5.96243C3.19137 5.75989 3.37708 5.57418 3.57962 5.40796C4.68597 4.5 6.32971 4.5 9.61719 4.5C12.9047 4.5 14.5484 4.5 15.6548 5.40796C15.8573 5.57418 16.043 5.75989 16.2092 5.96243C17.1172 7.06878 17.1172 8.71252 17.1172 12C17.1172 15.2875 17.1172 16.9312 16.2092 18.0376C16.043 18.2401 15.8573 18.4258 15.6548 18.592Z" stroke="#FF4D4D" stroke-width="2.5" stroke-linejoin="round"/>
<path d="M17.1172 13V11L19.7172 7.53333C19.969 7.19759 20.3642 7 20.7839 7C21.5202 7 22.1172 7.59695 22.1172 8.33333V15.6667C22.1172 16.403 21.5202 17 20.7839 17C20.3642 17 19.969 16.8024 19.7172 16.4667L17.1172 13Z" stroke="#FF4D4D" stroke-width="2.5" stroke-linejoin="round"/>
<path d="M9.61719 13.5C10.4456 13.5 11.1172 12.8284 11.1172 12C11.1172 11.1716 10.4456 10.5 9.61719 10.5M9.61719 13.5C8.78876 13.5 8.11719 12.8284 8.11719 12C8.11719 11.1716 8.78876 10.5 9.61719 10.5M9.61719 13.5V10.5" stroke="#FF4D4D" stroke-width="2.5" stroke-linejoin="round"/>
</svg>
