<svg width="33" height="33" viewBox="0 0 33 33" fill="none" xmlns="http://www.w3.org/2000/svg">
<path d="M27.7191 7.17024C27.7191 6.11941 26.8672 5.26758 25.8163 5.26758H24.5778C23.8116 5.26758 8.66617 5.26758 8.15999 5.26758C7.69626 5.26758 4.69636 5.26758 4.09461 5.26758C3.04389 5.26758 2.19189 6.11946 2.19189 7.17024V28.8918C2.19189 29.4357 2.42046 29.9258 2.78632 30.2726H25.8163V30.7946H29.1492C29.9681 30.7946 30.6661 30.2772 30.9344 29.5514C31.1567 28.9638 31.2353 30.0873 27.7191 7.17024Z" fill="#BABABA"/>
<path d="M28.8811 28.8919V14.743L27.7192 7.17024C27.7192 6.11941 26.8673 5.26758 25.8164 5.26758C25.1935 5.26758 10.1896 5.26758 9.32204 5.26758H8.16016H7.69542C6.61919 5.26758 6.98121 5.26758 5.25672 5.26758C4.206 5.26758 3.354 6.11941 3.354 7.17024V28.8918C3.354 29.4357 3.58257 29.9258 3.94843 30.2726H25.8165V30.7946H26.9784C28.0291 30.7946 28.8811 29.9428 28.8811 28.8919Z" fill="#A8A8A8"/>
<path d="M25.8163 5.26758C25.1505 5.26758 9.25649 5.26758 8.15999 5.26758C7.5035 5.26758 4.53846 5.26758 4.09461 5.26758C3.04389 5.26758 2.19189 6.11946 2.19189 7.17024V28.8918C2.19189 29.9427 3.04389 30.7946 4.09461 30.7946H25.8163C26.8671 30.7946 27.719 29.9427 27.719 28.8918V7.17024C27.7191 6.11946 26.8671 5.26758 25.8163 5.26758Z" fill="#E6E6E6"/>
<path d="M3.35378 28.8919V7.17024C3.35378 6.11941 4.20577 5.26758 5.25649 5.26758C4.60159 5.26758 4.7516 5.26758 4.09461 5.26758C3.04389 5.26758 2.19189 6.11946 2.19189 7.17024V28.8918C2.19189 29.9427 3.04389 30.7946 4.09461 30.7946H5.25649C4.20583 30.7946 3.35378 29.9428 3.35378 28.8919Z" fill="#CCCBCA"/>
<path d="M25.8163 5.26758C25.0604 5.26758 9.42165 5.26758 8.15999 5.26758C3.65521 5.26758 8.31147 5.26758 4.09461 5.26758C3.04389 5.26758 2.19189 6.11946 2.19189 7.17024V12.0579H27.7191V7.17024C27.7191 6.11946 26.8671 5.26758 25.8163 5.26758Z" fill="#EA473B"/>
<path d="M3.35378 7.17024C3.35378 6.11941 4.20577 5.26758 5.25649 5.26758C4.60159 5.26758 4.7516 5.26758 4.09461 5.26758C3.04389 5.26758 2.19189 6.11946 2.19189 7.17024V12.0579H3.35378V7.17024Z" fill="#D63322"/>
<path d="M22.5673 6.96875V7.36485C22.5673 7.74991 22.2552 7.77153 21.8701 7.77153H21.6377C21.2527 7.77153 20.9406 7.74991 20.9406 7.36485V6.96881C20.572 7.22604 20.3306 7.65299 20.3306 8.1366C20.3306 8.92271 20.9678 9.55994 21.7539 9.55994C23.148 9.55988 23.7018 7.76049 22.5673 6.96875Z" fill="#414356"/>
<path d="M15.3641 6.96875V7.36485C15.3641 7.74991 15.0521 7.71342 14.667 7.71342H14.4346C14.0496 7.71342 13.7375 7.74991 13.7375 7.36485V6.96881C13.3688 7.22604 13.1274 7.65299 13.1274 8.1366C13.1274 8.92271 13.7647 9.55994 14.5508 9.55994C15.3369 9.55994 15.9741 8.92271 15.9741 8.1366C15.9741 7.65299 15.7327 7.22598 15.3641 6.96875Z" fill="#414356"/>
<path d="M8.15992 6.96875V7.36485C8.15992 7.81376 7.73742 7.77153 7.23039 7.77153C6.84538 7.77153 6.53325 7.74991 6.53325 7.36485V6.96881C5.39761 7.76134 5.95425 9.55994 7.34656 9.55994C8.13267 9.55994 8.76989 8.92271 8.76989 8.1366C8.76989 7.65299 8.52849 7.22598 8.15992 6.96875Z" fill="#414356"/>
<path d="M21.5526 8.13654C21.5526 8.10957 21.5536 8.08288 21.555 8.0563C21.21 8.01446 20.9425 7.72113 20.9425 7.36479V6.96875C20.5739 7.22598 20.3325 7.65294 20.3325 8.13654C20.3325 8.92266 20.9698 9.55988 21.7559 9.55988C21.9742 9.55988 22.181 9.51061 22.3659 9.4227C21.885 9.19425 21.5526 8.70428 21.5526 8.13654Z" fill="#2F3242"/>
<path d="M14.3475 8.13654C14.3475 8.10957 14.3485 8.08288 14.35 8.0563C14.0049 8.01446 13.7375 7.72113 13.7375 7.36479V6.96875C13.3688 7.22598 13.1274 7.65294 13.1274 8.13654C13.1274 8.92266 13.7647 9.55988 14.5508 9.55988C14.7691 9.55988 14.9759 9.51061 15.1608 9.4227C14.68 9.19425 14.3475 8.70428 14.3475 8.13654Z" fill="#2F3242"/>
<path d="M7.14685 8.0563C6.80182 8.01446 6.53434 7.72113 6.53434 7.36479V6.96875C6.16573 7.22598 5.92432 7.65294 5.92432 8.13654C5.92432 9.18484 7.01924 9.86864 7.95762 9.4227C7.44778 9.18039 7.11385 8.65078 7.14685 8.0563Z" fill="#2F3242"/>
<path d="M27.7192 12.0586H2.19189V13.6853H27.7192V12.0586Z" fill="#F77C79"/>
<path d="M3.35378 12.0586H2.19189V13.6853H3.35378V12.0586Z" fill="#DD6464"/>
<path d="M7.46518 2.79492C7.85024 2.79492 8.16232 3.10706 8.16232 3.49206V7.36507C8.16232 7.75013 7.85024 8.06221 7.46518 8.06221H7.23278C6.84778 8.06221 6.53564 7.75013 6.53564 7.36507V3.49206C6.53564 3.10706 6.84778 2.79492 7.23278 2.79492H7.46518Z" fill="#585A60"/>
<path d="M14.6683 2.79492C15.0534 2.79492 15.3654 3.10706 15.3654 3.49206V7.36507C15.3654 7.75013 15.0534 8.06221 14.6683 8.06221H14.4359C14.0509 8.06221 13.7388 7.75013 13.7388 7.36507V3.49206C13.7388 3.10706 14.0509 2.79492 14.4359 2.79492H14.6683Z" fill="#585A60"/>
<path d="M21.8714 2.79492C22.2565 2.79492 22.5686 3.10706 22.5686 3.49206V7.36507C22.5686 7.75013 22.2565 8.06221 21.8714 8.06221H21.639C21.254 8.06221 20.9419 7.75013 20.9419 7.36507V3.49206C20.9419 3.10706 21.254 2.79492 21.639 2.79492H21.8714Z" fill="#585A60"/>
<path d="M7.46518 2.79492C7.85024 2.79492 8.16232 3.10706 8.16232 3.49206V7.36507C8.16232 7.75013 7.85024 8.06221 7.46518 8.06221H7.23278C6.84778 8.06221 6.53564 7.75013 6.53564 7.36507V3.49206C6.53564 3.10706 6.84778 2.79492 7.23278 2.79492H7.46518Z" fill="#585A60"/>
<path d="M14.6683 2.79492C15.0534 2.79492 15.3654 3.10706 15.3654 3.49206V7.36507C15.3654 7.75013 15.0534 8.06221 14.6683 8.06221H14.4359C14.0509 8.06221 13.7388 7.75013 13.7388 7.36507V3.49206C13.7388 3.10706 14.0509 2.79492 14.4359 2.79492H14.6683Z" fill="#585A60"/>
<path d="M21.8714 2.79492C22.2565 2.79492 22.5686 3.10706 22.5686 3.49206V7.36507C22.5686 7.75013 22.2565 8.06221 21.8714 8.06221H21.639C21.254 8.06221 20.9419 7.75013 20.9419 7.36507V3.49206C20.9419 3.10706 21.254 2.79492 21.639 2.79492H21.8714Z" fill="#585A60"/>
<path d="M7.34896 7.36507V3.49206C7.34896 3.21084 7.51586 2.96915 7.75564 2.85889C7.66712 2.81823 7.56897 2.79492 7.46518 2.79492H7.23278C6.84778 2.79492 6.53564 3.10706 6.53564 3.49206V7.36507C6.53564 7.75013 6.84778 8.06221 7.23278 8.06221H7.46518C7.56902 8.06221 7.66717 8.0389 7.75564 7.99824C7.51586 7.88804 7.34896 7.64629 7.34896 7.36507Z" fill="#414356"/>
<path d="M14.5521 7.36507V3.49206C14.5521 3.21084 14.719 2.96915 14.9588 2.85889C14.8702 2.81823 14.7721 2.79492 14.6683 2.79492H14.4359C14.0509 2.79492 13.7388 3.10706 13.7388 3.49206V7.36507C13.7388 7.75013 14.0509 8.06221 14.4359 8.06221H14.6683C14.7721 8.06221 14.8703 8.0389 14.9588 7.99824C14.719 7.88804 14.5521 7.64629 14.5521 7.36507Z" fill="#414356"/>
<path d="M21.7552 7.36507V3.49206C21.7552 3.21084 21.9221 2.96915 22.1619 2.85889C22.0734 2.81823 21.9752 2.79492 21.8714 2.79492H21.639C21.254 2.79492 20.9419 3.10706 20.9419 3.49206V7.36507C20.9419 7.75013 21.254 8.06221 21.639 8.06221H21.8714C21.9753 8.06221 22.0734 8.0389 22.1619 7.99824C21.9221 7.88804 21.7552 7.64629 21.7552 7.36507Z" fill="#414356"/>
<path d="M11.6871 16.3545H10.2526C10.012 16.3545 9.81689 16.5496 9.81689 16.7902C9.81689 17.0309 10.012 17.226 10.2526 17.226H11.6871C11.9278 17.226 12.1229 17.0309 12.1229 16.7902C12.1229 16.5496 11.9278 16.3545 11.6871 16.3545Z" fill="#585A60"/>
<path d="M15.6756 16.3545H14.2409C14.0003 16.3545 13.8052 16.5496 13.8052 16.7902C13.8052 17.0309 14.0003 17.226 14.2409 17.226H15.6756C15.9162 17.226 16.1113 17.0309 16.1113 16.7902C16.1113 16.5496 15.9162 16.3545 15.6756 16.3545Z" fill="#585A60"/>
<path d="M19.6639 16.3545H18.2292C17.9886 16.3545 17.7935 16.5496 17.7935 16.7902C17.7935 17.0309 17.9886 17.226 18.2292 17.226H19.6639C19.9045 17.226 20.0996 17.0309 20.0996 16.7902C20.0996 16.5496 19.9045 16.3545 19.6639 16.3545Z" fill="#585A60"/>
<path d="M23.6502 16.3545H22.2155C21.9749 16.3545 21.7798 16.5496 21.7798 16.7902C21.7798 17.0309 21.9749 17.226 22.2155 17.226H23.6502C23.8909 17.226 24.0859 17.0309 24.0859 16.7902C24.0859 16.5496 23.8909 16.3545 23.6502 16.3545Z" fill="#585A60"/>
<path d="M7.69901 19.8652H6.26435C6.02373 19.8652 5.82861 20.0603 5.82861 20.301C5.82861 20.5416 6.02373 20.7367 6.26435 20.7367H7.69901C7.93969 20.7367 8.13475 20.5417 8.13475 20.301C8.13469 20.0603 7.93969 19.8652 7.69901 19.8652Z" fill="#585A60"/>
<path d="M11.6871 19.8652H10.2526C10.012 19.8652 9.81689 20.0603 9.81689 20.301C9.81689 20.5416 10.012 20.7367 10.2526 20.7367H11.6871C11.9278 20.7367 12.1229 20.5417 12.1229 20.301C12.1229 20.0603 11.9278 19.8652 11.6871 19.8652Z" fill="#585A60"/>
<path d="M15.6756 19.8652H14.2409C14.0003 19.8652 13.8052 20.0603 13.8052 20.301C13.8052 20.5416 14.0003 20.7367 14.2409 20.7367H15.6756C15.9162 20.7367 16.1113 20.5417 16.1113 20.301C16.1113 20.0603 15.9162 19.8652 15.6756 19.8652Z" fill="#585A60"/>
<path d="M19.6639 19.8652H18.2292C17.9886 19.8652 17.7935 20.0603 17.7935 20.301C17.7935 20.5416 17.9886 20.7367 18.2292 20.7367H19.6639C19.9045 20.7367 20.0996 20.5417 20.0996 20.301C20.0996 20.0603 19.9045 19.8652 19.6639 19.8652Z" fill="#585A60"/>
<path d="M23.6502 19.8652H22.2155C21.9749 19.8652 21.7798 20.0603 21.7798 20.301C21.7798 20.5416 21.9749 20.7367 22.2155 20.7367H23.6502C23.8909 20.7367 24.0859 20.5417 24.0859 20.301C24.0859 20.0603 23.8909 19.8652 23.6502 19.8652Z" fill="#585A60"/>
<path d="M7.69901 23.376H6.26435C6.02373 23.376 5.82861 23.571 5.82861 23.8117C5.82861 24.0524 6.02373 24.2475 6.26435 24.2475H7.69901C7.93969 24.2475 8.13475 24.0524 8.13475 23.8117C8.13475 23.571 7.93969 23.376 7.69901 23.376Z" fill="#585A60"/>
<path d="M11.6871 23.376H10.2526C10.012 23.376 9.81689 23.571 9.81689 23.8117C9.81689 24.0524 10.012 24.2475 10.2526 24.2475H11.6871C11.9278 24.2475 12.1229 24.0524 12.1229 23.8117C12.1229 23.571 11.9278 23.376 11.6871 23.376Z" fill="#585A60"/>
<path d="M15.6756 23.376H14.2409C14.0003 23.376 13.8052 23.571 13.8052 23.8117C13.8052 24.0524 14.0003 24.2475 14.2409 24.2475H15.6756C15.9162 24.2475 16.1113 24.0524 16.1113 23.8117C16.1113 23.571 15.9162 23.376 15.6756 23.376Z" fill="#585A60"/>
<path d="M19.6639 23.376H18.2292C17.9886 23.376 17.7935 23.571 17.7935 23.8117C17.7935 24.0524 17.9886 24.2475 18.2292 24.2475H19.6639C19.9045 24.2475 20.0996 24.0524 20.0996 23.8117C20.0996 23.571 19.9045 23.376 19.6639 23.376Z" fill="#585A60"/>
<path d="M23.6502 23.376H22.2155C21.9749 23.376 21.7798 23.571 21.7798 23.8117C21.7798 24.0524 21.9749 24.2475 22.2155 24.2475H23.6502C23.8909 24.2475 24.0859 24.0524 24.0859 23.8117C24.0859 23.571 23.8909 23.376 23.6502 23.376Z" fill="#585A60"/>
<path d="M7.69901 26.8867H6.26435C6.02373 26.8867 5.82861 27.0818 5.82861 27.3225C5.82861 27.5631 6.02373 27.7582 6.26435 27.7582H7.69901C7.93969 27.7582 8.13475 27.5631 8.13475 27.3225C8.13469 27.0818 7.93969 26.8867 7.69901 26.8867Z" fill="#585A60"/>
<path d="M11.6871 26.8867H10.2526C10.012 26.8867 9.81689 27.0818 9.81689 27.3225C9.81689 27.5631 10.012 27.7582 10.2526 27.7582H11.6871C11.9278 27.7582 12.1229 27.5631 12.1229 27.3225C12.1229 27.0818 11.9278 26.8867 11.6871 26.8867Z" fill="#585A60"/>
<path d="M15.6756 26.8867H14.2409C14.0003 26.8867 13.8052 27.0818 13.8052 27.3225C13.8052 27.5631 14.0003 27.7582 14.2409 27.7582H15.6756C15.9162 27.7582 16.1113 27.5631 16.1113 27.3225C16.1113 27.0818 15.9162 26.8867 15.6756 26.8867Z" fill="#585A60"/>
<path d="M19.6639 26.8867H18.2292C17.9886 26.8867 17.7935 27.0818 17.7935 27.3225C17.7935 27.5631 17.9886 27.7582 18.2292 27.7582H19.6639C19.9045 27.7582 20.0996 27.5631 20.0996 27.3225C20.0996 27.0818 19.9045 26.8867 19.6639 26.8867Z" fill="#585A60"/>
</svg>
