<svg width="25" height="24" viewBox="0 0 25 24" fill="none" xmlns="http://www.w3.org/2000/svg">
<path d="M15.1172 7.5C15.1172 7.5 15.6172 7.5 16.1172 8.5C16.1172 8.5 17.7054 6 19.1172 5.5" stroke="#0047FF" stroke-width="2" stroke-linecap="round"/>
<path d="M22.1172 7C22.1172 9.76142 19.8786 12 17.1172 12C14.3558 12 12.1172 9.76142 12.1172 7C12.1172 4.23858 14.3558 2 17.1172 2C19.8786 2 22.1172 4.23858 22.1172 7Z" stroke="#0047FF" stroke-width="2" stroke-linecap="round"/>
<path d="M22.8672 13.2445C22.8665 12.8302 22.5301 12.495 22.1159 12.4958C21.7017 12.4965 21.3665 12.8329 21.3672 13.2471L22.8672 13.2445ZM9.18301 6.75292C9.59722 6.75057 9.9311 6.41289 9.92876 5.99869C9.92641 5.58448 9.58873 5.2506 9.17453 5.25294L9.18301 6.75292ZM13.6172 21.2504H10.6172V22.7504H13.6172V21.2504ZM10.6172 21.2504C8.7203 21.2504 7.36072 21.2493 6.31614 21.1313C5.28535 21.0148 4.66078 20.7931 4.18948 20.4209L3.25982 21.5981C4.04319 22.2168 4.98561 22.4905 6.14777 22.6218C7.29615 22.7515 8.75551 22.7504 10.6172 22.7504V21.2504ZM1.36719 14.0004C1.36719 15.7493 1.36576 17.1321 1.50481 18.2226C1.64651 19.3337 1.944 20.2394 2.61017 20.9866L3.72981 19.9884C3.34318 19.5547 3.11427 18.9856 2.99277 18.0328C2.86862 17.0593 2.86719 15.789 2.86719 14.0004H1.36719ZM4.18948 20.4209C4.02264 20.2892 3.86889 20.1444 3.72981 19.9884L2.61017 20.9866C2.80787 21.2084 3.0253 21.4129 3.25982 21.5981L4.18948 20.4209ZM21.3672 14.0004C21.3672 15.789 21.3658 17.0593 21.2416 18.0328C21.1201 18.9856 20.8912 19.5547 20.5046 19.9884L21.6242 20.9866C22.2904 20.2394 22.5879 19.3337 22.7296 18.2226C22.8686 17.1321 22.8672 15.7493 22.8672 14.0004H21.3672ZM13.6172 22.7504C15.4789 22.7504 16.9382 22.7515 18.0866 22.6218C19.2488 22.4905 20.1912 22.2168 20.9746 21.5981L20.0449 20.4209C19.5736 20.7931 18.949 21.0148 17.9182 21.1313C16.8737 21.2493 15.5141 21.2504 13.6172 21.2504V22.7504ZM20.5046 19.9884C20.3655 20.1444 20.2118 20.2892 20.0449 20.4209L20.9746 21.5981C21.2091 21.4129 21.4265 21.2084 21.6242 20.9866L20.5046 19.9884ZM2.86719 14.0004C2.86719 12.2118 2.86862 10.9415 2.99277 9.96799C3.11427 9.01519 3.34318 8.44606 3.72981 8.0124L2.61017 7.0142C1.944 7.76141 1.64651 8.66709 1.50481 9.77825C1.36576 10.8687 1.36719 12.2515 1.36719 14.0004H2.86719ZM3.25982 6.40268C3.0253 6.58789 2.80787 6.79245 2.61017 7.0142L3.72981 8.0124C3.86889 7.8564 4.02264 7.71161 4.18948 7.57986L3.25982 6.40268ZM22.8672 14.0004C22.8672 13.7412 22.8676 13.4875 22.8672 13.2445L21.3672 13.2471C21.3676 13.4885 21.3672 13.7376 21.3672 14.0004H22.8672ZM9.17453 5.25294C7.76697 5.26091 6.6213 5.29333 5.68277 5.44144C4.7302 5.59178 3.93581 5.86882 3.25982 6.40268L4.18948 7.57986C4.59675 7.25822 5.11843 7.04907 5.91661 6.92311C6.72883 6.79492 7.76858 6.76092 9.18301 6.75292L9.17453 5.25294Z" fill="#0047FF"/>
<path d="M3.72465 21.0095L4.18948 20.4209M4.18948 20.4209C4.66078 20.7931 5.28535 21.0148 6.31614 21.1313C7.36072 21.2493 8.7203 21.2504 10.6172 21.2504M4.18948 20.4209L3.25982 21.5981M4.18948 20.4209C4.02264 20.2892 3.86889 20.1444 3.72981 19.9884M3.16999 20.4875L3.72981 19.9884M3.72981 19.9884L2.61017 20.9866M3.72981 19.9884C3.34318 19.5547 3.11427 18.9856 2.99277 18.0328C2.86862 17.0593 2.86719 15.789 2.86719 14.0004M21.0644 20.4875L20.5046 19.9884M20.5046 19.9884C20.8912 19.5547 21.1201 18.9856 21.2416 18.0328C21.3658 17.0593 21.3672 15.789 21.3672 14.0004M20.5046 19.9884L21.6242 20.9866M20.5046 19.9884C20.3655 20.1444 20.2118 20.2892 20.0449 20.4209M20.5097 21.0095L20.0449 20.4209M20.0449 20.4209L20.9746 21.5981M20.0449 20.4209C19.5736 20.7931 18.949 21.0148 17.9182 21.1313C16.8737 21.2493 15.5141 21.2504 13.6172 21.2504M3.72465 6.99127L3.25982 6.40268M3.25982 6.40268C3.0253 6.58789 2.80787 6.79245 2.61017 7.0142M3.25982 6.40268L4.18948 7.57986M3.25982 6.40268C3.93581 5.86882 4.7302 5.59178 5.68277 5.44144C6.6213 5.29333 7.76697 5.26091 9.17453 5.25294M3.16999 7.5133L3.72981 8.0124M3.72981 8.0124C3.34318 8.44606 3.11427 9.01519 2.99277 9.96799C2.86862 10.9415 2.86719 12.2118 2.86719 14.0004M3.72981 8.0124L2.61017 7.0142M3.72981 8.0124C3.86889 7.8564 4.02264 7.71161 4.18948 7.57986M22.8672 13.2445C22.8665 12.8302 22.5301 12.495 22.1159 12.4958C21.7017 12.4965 21.3665 12.8329 21.3672 13.2471M22.8672 13.2445L21.3672 13.2471M22.8672 13.2445C22.8676 13.4875 22.8672 13.7412 22.8672 14.0004M21.3672 13.2471C21.3676 13.4885 21.3672 13.7376 21.3672 14.0004M9.18301 6.75292C9.59722 6.75057 9.9311 6.41289 9.92876 5.99869C9.92641 5.58448 9.58873 5.2506 9.17453 5.25294M9.18301 6.75292L9.17453 5.25294M9.18301 6.75292C7.76858 6.76092 6.72883 6.79492 5.91661 6.92311C5.11843 7.04907 4.59675 7.25822 4.18948 7.57986M13.6172 21.2504H10.6172M13.6172 21.2504V22.7504M10.6172 21.2504V22.7504M10.6172 22.7504H13.6172M10.6172 22.7504C8.75551 22.7504 7.29615 22.7515 6.14777 22.6218C4.98561 22.4905 4.04319 22.2168 3.25982 21.5981M13.6172 22.7504C15.4789 22.7504 16.9382 22.7515 18.0866 22.6218C19.2488 22.4905 20.1912 22.2168 20.9746 21.5981M3.25982 21.5981C3.0253 21.4129 2.80787 21.2084 2.61017 20.9866M1.36719 14.0004C1.36719 15.7493 1.36576 17.1321 1.50481 18.2226C1.64651 19.3337 1.944 20.2394 2.61017 20.9866M1.36719 14.0004H2.86719M1.36719 14.0004C1.36719 12.2515 1.36576 10.8687 1.50481 9.77825C1.64651 8.66709 1.944 7.76141 2.61017 7.0142M21.3672 14.0004H22.8672M21.6242 20.9866C22.2904 20.2394 22.5879 19.3337 22.7296 18.2226C22.8686 17.1321 22.8672 15.7493 22.8672 14.0004M21.6242 20.9866C21.4265 21.2084 21.2091 21.4129 20.9746 21.5981" stroke="#0047FF" stroke-linecap="round"/>
<path d="M10.1172 18H11.6172" stroke="#0047FF" stroke-width="2" stroke-linecap="round"/>
<path d="M14.6172 18H18.1172" stroke="#0047FF" stroke-width="2" stroke-linecap="round"/>
<path d="M2.61719 11H10.1172" stroke="#0047FF" stroke-width="2" stroke-linecap="round"/>
</svg>
