<svg width="80" height="81" viewBox="0 0 80 81" fill="none" xmlns="http://www.w3.org/2000/svg">
<g clip-path="url(#clip0_237_1854)">
<path fill-rule="evenodd" clip-rule="evenodd" d="M26.3397 0.181641H53.4331L77.3491 24.1021V70.0365C77.3491 75.6143 72.7862 80.1816 67.2039 80.1816H26.3398C20.762 80.1816 16.1992 75.6143 16.1992 70.0365V10.3268C16.1992 4.74898 20.762 0.181641 26.3397 0.181641Z" fill="#E5252A"/>
<path fill-rule="evenodd" clip-rule="evenodd" d="M53.4336 0.181641L77.3495 24.1021H56.0122C54.5903 24.1021 53.4336 22.9409 53.4336 21.519V0.181641Z" fill="#B71D21"/>
<path fill-rule="evenodd" clip-rule="evenodd" d="M4.875 34.2471H59.9716C61.1969 34.2471 62.1981 35.2483 62.1981 36.4736V56.6861C62.1981 57.9114 61.1969 58.9127 59.9716 58.9127H4.875C3.64969 58.9127 2.64844 57.9114 2.64844 56.6861V36.4736C2.64844 35.2483 3.64984 34.2471 4.875 34.2471Z" fill="#B71D21"/>
<path d="M18.3987 38.3691H14.2427C13.5295 38.3691 12.9512 38.9474 12.9512 39.6607V46.4729V48.1507V53.4954C12.9512 54.2087 13.5295 54.787 14.2427 54.787C14.956 54.787 15.5343 54.2087 15.5343 53.4954V49.4423H18.3985C21.4023 49.4423 23.846 46.9985 23.846 43.9949V43.8166C23.8462 40.8129 21.4024 38.3691 18.3987 38.3691ZM21.263 43.9948C21.263 45.5741 19.978 46.859 18.3987 46.859H15.5343V46.4727V40.9521H18.3985C19.9779 40.9521 21.2629 42.2371 21.2629 43.8163V43.9948H21.263ZM32.2974 38.3691H28.1416C27.4284 38.3691 26.8501 38.9474 26.8501 39.6607V53.4954C26.8501 54.2087 27.4284 54.787 28.1416 54.787H32.2974C35.3012 54.787 37.7449 52.3432 37.7449 49.3396V43.8166C37.7449 40.8129 35.3012 38.3691 32.2974 38.3691ZM35.1618 49.3395C35.1618 50.9188 33.8768 52.2037 32.2974 52.2037H29.4332V40.9521H32.2974C33.8768 40.9521 35.1618 42.2371 35.1618 43.8163V49.3395ZM43.5832 40.9523V44.5276H49.5702C50.2835 44.5276 50.8618 45.1059 50.8618 45.8191C50.8618 46.5324 50.2835 47.1107 49.5702 47.1107H43.5832V53.4954C43.5832 54.2087 43.0049 54.787 42.2916 54.787C41.5784 54.787 41.0001 54.2087 41.0001 53.4954V39.6607C41.0001 38.9474 41.5784 38.3691 42.2916 38.3691H50.6034C51.3166 38.3691 51.8949 38.9474 51.8949 39.6607C51.8949 40.374 51.3166 40.9523 50.6034 40.9523H43.5832Z" fill="white"/>
</g>
<defs>
<clipPath id="clip0_237_1854">
<rect width="80" height="80" fill="white" transform="translate(0 0.181641)"/>
</clipPath>
</defs>
</svg>
