<svg width="49" height="49" viewBox="0 0 49 49" fill="none" xmlns="http://www.w3.org/2000/svg">
<rect x="0.883057" y="0.369141" width="48" height="48" rx="8" fill="black"/>
<path d="M16.2661 14.6853C16.0185 14.9915 15.8963 15.3803 15.9243 15.7732V32.9623C15.8978 33.3589 16.0291 33.75 16.2895 34.0502L16.3438 34.1124L25.9486 24.4843V24.2512L16.3205 14.6309L16.2661 14.6853Z" fill="url(#paint0_linear_68_2880)"/>
<path d="M29.1344 27.6939L25.9484 24.4845V24.2514L29.1344 21.042L29.2044 21.0886L33.0199 23.2489C34.1078 23.8628 34.1078 24.873 33.0199 25.4947L29.2199 27.655L29.1344 27.6939Z" fill="url(#paint1_linear_68_2880)"/>
<path d="M29.2286 27.6552L25.9493 24.3682L16.2668 34.0507C16.4864 34.2461 16.7675 34.3585 17.0613 34.3685C17.3551 34.3784 17.6431 34.2853 17.8754 34.1051L29.2286 27.6552Z" fill="url(#paint2_linear_68_2880)"/>
<path d="M29.2286 21.0891L17.8754 14.6393C17.6447 14.4566 17.3568 14.3611 17.0626 14.3697C16.7684 14.3782 16.4866 14.4902 16.2668 14.6859L25.9493 24.3684L29.2286 21.0891Z" fill="url(#paint3_linear_68_2880)"/>
<path opacity="0.2" d="M29.1353 27.5771L17.8754 33.9881C17.6516 34.157 17.3787 34.2484 17.0983 34.2484C16.8179 34.2484 16.5451 34.157 16.3212 33.9881L16.2668 34.0425L16.3212 34.1047C16.5451 34.2736 16.8179 34.365 17.0983 34.365C17.3787 34.365 17.6516 34.2736 17.8754 34.1047L29.2286 27.6549L29.1353 27.5771Z" fill="white"/>
<path opacity="0.12" d="M16.2667 33.9424C16.0171 33.6341 15.8948 33.2421 15.9248 32.8467V32.9632C15.8983 33.3598 16.0296 33.7508 16.29 34.0512L16.3444 33.9968L16.2667 33.9424Z" fill="white"/>
<path opacity="0.12" d="M33.0203 25.3784L29.1349 27.5775L29.2048 27.6552L33.0203 25.4872C33.2455 25.3919 33.4409 25.2377 33.5859 25.0408C33.7308 24.8439 33.82 24.6115 33.844 24.3682C33.7954 24.5893 33.6956 24.796 33.5525 24.9714C33.4094 25.1469 33.2272 25.2863 33.0203 25.3784Z" fill="white"/>
<path opacity="0.25" d="M17.8765 14.7473L33.0219 23.3574C33.2288 23.4495 33.411 23.5889 33.5541 23.7644C33.6972 23.9398 33.797 24.1465 33.8456 24.3676C33.8216 24.1242 33.7324 23.8919 33.5875 23.695C33.4425 23.4981 33.2471 23.3438 33.0219 23.2486L17.8765 14.6385C16.7963 14.0168 15.926 14.5297 15.926 15.773V15.8896C15.926 14.6463 16.7963 14.1334 17.8765 14.7473Z" fill="white"/>
<defs>
<linearGradient id="paint0_linear_68_2880" x1="25.0938" y1="15.5944" x2="12.0544" y2="28.6339" gradientUnits="userSpaceOnUse">
<stop stop-color="#00A0FF"/>
<stop offset="0.01" stop-color="#00A1FF"/>
<stop offset="0.26" stop-color="#00BEFF"/>
<stop offset="0.51" stop-color="#00D2FF"/>
<stop offset="0.76" stop-color="#00DFFF"/>
<stop offset="1" stop-color="#00E3FF"/>
</linearGradient>
<linearGradient id="paint1_linear_68_2880" x1="34.4419" y1="24.3679" x2="15.6442" y2="24.3679" gradientUnits="userSpaceOnUse">
<stop stop-color="#FFE000"/>
<stop offset="0.41" stop-color="#FFBD00"/>
<stop offset="0.78" stop-color="#FFA500"/>
<stop offset="1" stop-color="#FF9C00"/>
</linearGradient>
<linearGradient id="paint2_linear_68_2880" x1="27.4491" y1="26.1555" x2="9.76262" y2="43.8342" gradientUnits="userSpaceOnUse">
<stop stop-color="#FF3A44"/>
<stop offset="1" stop-color="#C31162"/>
</linearGradient>
<linearGradient id="paint3_linear_68_2880" x1="13.8268" y1="8.96656" x2="21.7219" y2="16.8618" gradientUnits="userSpaceOnUse">
<stop stop-color="#32A071"/>
<stop offset="0.07" stop-color="#2DA771"/>
<stop offset="0.48" stop-color="#15CF74"/>
<stop offset="0.8" stop-color="#06E775"/>
<stop offset="1" stop-color="#00F076"/>
</linearGradient>
</defs>
</svg>
