<svg width="25" height="24" viewBox="0 0 25 24" fill="none" xmlns="http://www.w3.org/2000/svg">
<path d="M12.1172 22C17.64 22 22.1172 17.5228 22.1172 12C22.1172 6.47715 17.64 2 12.1172 2C6.59434 2 2.11719 6.47715 2.11719 12C2.11719 17.5228 6.59434 22 12.1172 22Z" stroke="#0047FF" stroke-width="2.5"/>
<path d="M9.61719 11.1998V12.8002C9.61719 14.3195 9.61719 15.0791 10.0729 15.3862C10.5287 15.6932 11.152 15.3535 12.3987 14.6741L13.8669 13.8738C15.3671 13.0562 16.1172 12.6474 16.1172 12C16.1172 11.3526 15.3671 10.9438 13.8669 10.1262L12.3987 9.32594C11.152 8.6465 10.5287 8.30678 10.0729 8.61382C9.61719 8.92086 9.61719 9.6805 9.61719 11.1998Z" fill="#0047FF"/>
</svg>
