<svg width="27" height="21" viewBox="0 0 27 21" fill="none" xmlns="http://www.w3.org/2000/svg">
<path opacity="0.3" d="M24.3698 1.79929C25.8196 3.41694 26.6895 5.18164 26.6895 8.12282C26.6895 13.2699 23.065 17.8287 17.9907 20.1816L16.6859 18.2699C21.4702 15.6228 22.4851 12.2405 22.7751 10.0346C22.0502 10.4758 21.0353 10.6228 20.0204 10.4758C17.4108 10.1816 15.3811 8.12282 15.3811 5.3287C15.3811 4.00517 15.961 2.68164 16.8309 1.65223C17.8457 0.622817 19.0056 0.181641 20.4554 0.181641C22.0502 0.181641 23.5 0.916935 24.3698 1.79929ZM9.87182 1.79929C11.3216 3.41694 12.1915 5.18164 12.1915 8.12282C12.1915 13.2699 8.567 17.8287 3.4927 20.1816L2.18788 18.2699C6.97222 15.6228 7.98708 12.2405 8.27704 10.0346C7.55214 10.4758 6.53728 10.6228 5.52242 10.4758C2.91278 10.1816 0.883057 7.97576 0.883057 5.3287C0.883057 4.00517 1.46298 2.68164 2.33286 1.65223C3.34772 0.622817 4.50756 0.181641 5.95736 0.181641C7.55214 0.181641 9.00194 0.916935 9.87182 1.79929Z" fill="#585A5E"/>
</svg>
