<svg width="25" height="24" viewBox="0 0 25 24" fill="none" xmlns="http://www.w3.org/2000/svg">
<path d="M2.61719 6C2.61719 4.45956 2.61719 3.68934 2.96392 3.12353C3.15793 2.80693 3.42412 2.54074 3.74072 2.34673C4.30653 2 5.07675 2 6.61719 2C8.15763 2 8.92785 2 9.49366 2.34673C9.81026 2.54074 10.0764 2.80693 10.2705 3.12353C10.6172 3.68934 10.6172 4.45956 10.6172 6C10.6172 7.54044 10.6172 8.31066 10.2705 8.87647C10.0764 9.19307 9.81026 9.45926 9.49366 9.65327C8.92785 10 8.15763 10 6.61719 10C5.07675 10 4.30653 10 3.74072 9.65327C3.42412 9.45926 3.15793 9.19307 2.96392 8.87647C2.61719 8.31066 2.61719 7.54044 2.61719 6Z" stroke="#0047FF" stroke-width="1.5"/>
<path d="M3.89885 14.7817C4.94571 13.7348 5.46914 13.2114 6.08929 13.0625C6.43629 12.9792 6.79809 12.9792 7.14509 13.0625C7.76524 13.2114 8.28867 13.7348 9.33553 14.7817C10.3824 15.8285 10.9058 16.3519 11.0547 16.9721C11.138 17.3191 11.138 17.6809 11.0547 18.0279C10.9058 18.6481 10.3824 19.1715 9.33553 20.2183C8.28867 21.2652 7.76524 21.7886 7.1451 21.9375C6.79809 22.0208 6.43629 22.0208 6.08929 21.9375C5.46914 21.7886 4.94571 21.2652 3.89885 20.2183C2.85199 19.1715 2.32856 18.6481 2.17967 18.0279C2.09636 17.6809 2.09636 17.3191 2.17967 16.9721C2.32856 16.3519 2.85199 15.8285 3.89885 14.7817Z" stroke="#0047FF" stroke-width="1.5"/>
<path d="M14.1172 18C14.1172 16.4596 14.1172 15.6893 14.4639 15.1235C14.6579 14.8069 14.9241 14.5407 15.2407 14.3467C15.8065 14 16.5768 14 18.1172 14C19.6576 14 20.4279 14 20.9937 14.3467C21.3103 14.5407 21.5765 14.8069 21.7705 15.1235C22.1172 15.6893 22.1172 16.4596 22.1172 18C22.1172 19.5404 22.1172 20.3107 21.7705 20.8765C21.5765 21.1931 21.3103 21.4593 20.9937 21.6533C20.4279 22 19.6576 22 18.1172 22C16.5768 22 15.8065 22 15.2407 21.6533C14.9241 21.4593 14.6579 21.1931 14.4639 20.8765C14.1172 20.3107 14.1172 19.5404 14.1172 18Z" stroke="#0047FF" stroke-width="1.5"/>
<path d="M18.1172 2V10M22.1172 6H14.1172" stroke="#0047FF" stroke-width="1.5" stroke-linecap="round" stroke-linejoin="round"/>
</svg>
