<svg width="80" height="81" viewBox="0 0 80 81" fill="none" xmlns="http://www.w3.org/2000/svg">
<g clip-path="url(#clip0_237_1897)">
<path d="M79.2188 35.4941L65 44.8691V79.4004H15V44.8691L0.78125 35.4941L15 10.3379L29.0625 5.65039L32.1875 0.962891H47.8125L50.9375 5.65039L65 10.3379L79.2188 35.4941Z" fill="#D84861"/>
<path d="M39.2188 11.9004H40.7812V79.4004H39.2188V11.9004Z" fill="#C22945"/>
<path d="M50.9375 5.65039H29.0625L40 22.8379L50.9375 5.65039Z" fill="#C22945"/>
<path d="M15 44.8691V22.6816L7 39.5879L15 44.8691Z" fill="#C22945"/>
<path d="M65 44.8691V22.6816L73 39.5879L65 44.8691Z" fill="#C22945"/>
<path d="M47.0312 39.0879L52.5 42.2129L57.9688 39.0879V29.7129H47.0312V39.0879Z" fill="#E17084"/>
<path d="M15 58.1816C17.0625 62.0879 19.1562 66.8066 17.8125 67.8066C17.1875 68.2754 16.1562 67.8848 15 67.0723V74.7754C15.0156 74.7441 15.0469 74.6973 15.0781 74.666C15.9219 73.7285 20.3281 76.166 22.9219 77.7285C24.6562 75.5723 26 73.1348 27.0156 70.6191C25.0625 67.541 22.2031 62.7285 23.0156 62.2754C23.7813 61.8535 26.7656 63.2598 28.9375 64.4473C30.5938 57.3066 30.2812 51.1191 30.2812 51.1191C28.1406 51.1191 26.1719 51.3223 24.375 51.6973C24.8906 54.5879 25.4531 58.3848 24.8438 58.6348C24.2031 58.8848 22.4531 55.2598 21.2656 52.5723C18.8281 53.4473 16.7656 54.666 15 56.1348V58.1816Z" fill="#EC788C"/>
<path d="M15 75.4629V79.4004H17.8125C16.5312 77.9941 15.2969 76.4473 15 75.4629Z" fill="#EC788C"/>
<path d="M66.5156 22.7129C67.9688 22.1191 69.4062 21.3691 70.7031 20.4316L65 10.3379L63.6719 9.90039C62.7031 10.2598 61.75 10.6973 60.8437 11.2285C62.7969 12.9316 65.375 15.4941 64.6094 16.5254C63.8594 17.541 59.9063 15.6348 57.1406 14.1191C55.9375 15.4004 54.9531 16.9629 54.2656 18.8535C56.0937 19.666 58.5625 20.8379 58.3906 21.2754C58.2188 21.6973 55.6406 21.3066 53.6719 20.9629C53.4219 22.1816 53.2812 23.4941 53.2812 24.9473C53.2812 24.9473 57.4844 25.1504 62.3281 24.041C61.5156 22.5723 60.5625 20.5566 60.8594 20.041C61.1562 19.4629 64.4219 21.4004 66.5156 22.7129Z" fill="#EC788C"/>
<path d="M42.1869 45.9316C42.1869 45.9316 46.8588 50.7598 43.9056 52.416C40.9525 54.0723 39.9994 47.5566 39.9994 47.5566C39.9994 47.5566 39.0463 54.0723 36.0931 52.416C33.14 50.7598 37.8119 45.9316 37.8119 45.9316C37.8119 45.9316 31.1088 46.0723 32.3431 42.9941C33.5775 39.916 38.8119 43.541 38.8119 43.541C38.8119 43.541 35.5463 37.0566 39.9994 37.0566C44.4525 37.0566 41.2025 43.541 41.2025 43.541C41.2025 43.541 46.4213 39.916 47.6713 42.9941C48.9056 46.0723 42.1869 45.9316 42.1869 45.9316Z" fill="#EC788C"/>
<path d="M58.2961 79.4005H64.9993V62.4786C64.0149 60.2286 62.4211 58.588 59.8586 59.3067C53.3274 61.1349 61.2024 71.6974 61.2024 71.6974C61.2024 71.6974 50.6555 63.8224 48.8118 70.3536C46.9836 76.8849 60.4055 77.1036 60.4055 77.1036C60.4055 77.1036 59.4368 78.0411 58.2961 79.4005Z" fill="#EC788C"/>
<path d="M17.8897 23.4164C17.8897 23.4164 13.0147 33.1508 19.6866 33.1508C26.3585 33.1508 21.4835 23.4164 21.4835 23.4164C21.4835 23.4164 29.3116 28.8539 31.171 24.2446C33.0303 19.6352 22.9678 19.8539 22.9678 19.8539C22.9678 19.8539 29.9835 12.6196 25.546 10.1196C21.1085 7.63518 19.6866 17.4008 19.6866 17.4008C19.6866 17.4008 18.7803 11.2289 16.1866 9.94768L14.9991 10.3383L12.7178 14.3696C13.7178 17.0727 16.4053 19.8539 16.4053 19.8539C16.4053 19.8539 10.4366 19.7289 8.54596 21.7758L8.04596 22.6664C7.92096 23.1196 7.96784 23.6508 8.20221 24.2602C10.0616 28.8539 17.8897 23.4164 17.8897 23.4164Z" fill="#EC788C"/>
<path d="M32.1875 0.962891L29.0625 5.65039L24.375 13.6191H32.1875V17.0254L40 22.8379L32.1875 0.962891Z" fill="#E17084"/>
<path d="M47.8125 0.962891L50.9375 5.65039L55.625 13.6191H47.8125V17.0254L40 22.8379L47.8125 0.962891Z" fill="#E17084"/>
</g>
<defs>
<clipPath id="clip0_237_1897">
<rect width="80" height="80" fill="white" transform="translate(0 0.181641)"/>
</clipPath>
</defs>
</svg>
