<svg width="17" height="17" viewBox="0 0 17 17" fill="none" xmlns="http://www.w3.org/2000/svg">
<path d="M8.21139 1.53347C8.48717 0.978432 9.27895 0.978432 9.55472 1.53347L11.0693 4.5818C11.1785 4.8016 11.3883 4.95405 11.6311 4.99L14.9983 5.48845C15.6114 5.57921 15.8561 6.33224 15.4134 6.76603L12.9823 9.14846C12.807 9.32024 12.7268 9.56693 12.7677 9.80894L13.3341 13.1653C13.4373 13.7765 12.7967 14.2419 12.2474 13.9549L9.23029 12.379C9.01274 12.2654 8.75337 12.2654 8.53582 12.379L5.51875 13.9549C4.9694 14.2419 4.32884 13.7765 4.43198 13.1653L4.99842 9.80894C5.03927 9.56693 4.95911 9.32024 4.78382 9.14846L2.35272 6.76603C1.91006 6.33224 2.15473 5.57921 2.76783 5.48845L6.13499 4.99C6.37778 4.95405 6.58762 4.8016 6.69682 4.5818L8.21139 1.53347Z" fill="#FFB800"/>
</svg>
