<svg width="21" height="21" viewBox="0 0 21 21" fill="none" xmlns="http://www.w3.org/2000/svg">
<path d="M13.8436 9.7102C14.1119 9.79154 14.3965 9.83529 14.6913 9.83529C16.3021 9.83529 17.608 8.52945 17.608 6.91862C17.608 5.30779 16.3021 4.00195 14.6913 4.00195C13.1789 4.00195 11.9353 5.15312 11.7891 6.62706" fill="url(#paint0_linear_263_1109)"/>
<path d="M13.8436 9.7102C14.1119 9.79154 14.3965 9.83529 14.6913 9.83529C16.3021 9.83529 17.608 8.52945 17.608 6.91862C17.608 5.30779 16.3021 4.00195 14.6913 4.00195C13.1789 4.00195 11.9353 5.15312 11.7891 6.62706" stroke="white" stroke-width="1.25" stroke-linecap="round" stroke-linejoin="round"/>
<path d="M10.0963 6.62706C9.95001 5.15312 8.70644 4.00195 7.19401 4.00195C5.58318 4.00195 4.27734 5.30779 4.27734 6.91862C4.27734 8.52945 5.58318 9.83529 7.19401 9.83529C7.48885 9.83529 7.77347 9.79154 8.04174 9.7102" fill="url(#paint1_linear_263_1109)"/>
<path d="M10.0963 6.62706C9.95001 5.15312 8.70644 4.00195 7.19401 4.00195C5.58318 4.00195 4.27734 5.30779 4.27734 6.91862C4.27734 8.52945 5.58318 9.83529 7.19401 9.83529C7.48885 9.83529 7.77347 9.79154 8.04174 9.7102" stroke="white" stroke-width="1.25" stroke-linecap="round" stroke-linejoin="round"/>
<path d="M19.2747 14.0026C19.2747 11.7014 17.2227 9.83594 14.6914 9.83594L19.2747 14.0026Z" fill="url(#paint2_linear_263_1109)"/>
<path d="M19.2747 14.0026C19.2747 11.7014 17.2227 9.83594 14.6914 9.83594" stroke="white" stroke-width="1.25" stroke-linecap="round" stroke-linejoin="round"/>
<path d="M15.5221 16.5026C15.5221 14.2014 13.4701 12.3359 10.9388 12.3359C8.40749 12.3359 6.35547 14.2014 6.35547 16.5026" fill="url(#paint3_linear_263_1109)"/>
<path d="M15.5221 16.5026C15.5221 14.2014 13.4701 12.3359 10.9388 12.3359C8.40749 12.3359 6.35547 14.2014 6.35547 16.5026" stroke="white" stroke-width="1.25" stroke-linecap="round" stroke-linejoin="round"/>
<path d="M7.1888 9.83594C4.65749 9.83594 2.60547 11.7014 2.60547 14.0026L7.1888 9.83594Z" fill="url(#paint4_linear_263_1109)"/>
<path d="M7.1888 9.83594C4.65749 9.83594 2.60547 11.7014 2.60547 14.0026" stroke="white" stroke-width="1.25" stroke-linecap="round" stroke-linejoin="round"/>
<path d="M13.8607 9.41862C13.8607 7.80779 12.5548 6.50195 10.944 6.50195C9.33318 6.50195 8.02734 7.80779 8.02734 9.41862C8.02734 11.0295 9.33318 12.3353 10.944 12.3353C12.5548 12.3353 13.8607 11.0295 13.8607 9.41862Z" stroke="white" stroke-width="1.25" stroke-linecap="round" stroke-linejoin="round"/>
<defs>
<linearGradient id="paint0_linear_263_1109" x1="14.6985" y1="9.83529" x2="14.6985" y2="4.00195" gradientUnits="userSpaceOnUse">
<stop stop-color="#0064E1"/>
<stop offset="0.9944" stop-color="#26B7FF"/>
</linearGradient>
<linearGradient id="paint1_linear_263_1109" x1="7.1868" y1="9.83529" x2="7.1868" y2="4.00195" gradientUnits="userSpaceOnUse">
<stop stop-color="#0064E1"/>
<stop offset="0.9944" stop-color="#26B7FF"/>
</linearGradient>
<linearGradient id="paint2_linear_263_1109" x1="16.9831" y1="14.0026" x2="16.9831" y2="9.83594" gradientUnits="userSpaceOnUse">
<stop stop-color="#0064E1"/>
<stop offset="0.9944" stop-color="#26B7FF"/>
</linearGradient>
<linearGradient id="paint3_linear_263_1109" x1="10.9388" y1="16.5026" x2="10.9388" y2="12.3359" gradientUnits="userSpaceOnUse">
<stop stop-color="#0064E1"/>
<stop offset="0.9944" stop-color="#26B7FF"/>
</linearGradient>
<linearGradient id="paint4_linear_263_1109" x1="4.89714" y1="14.0026" x2="4.89714" y2="9.83594" gradientUnits="userSpaceOnUse">
<stop stop-color="#0064E1"/>
<stop offset="0.9944" stop-color="#26B7FF"/>
</linearGradient>
</defs>
</svg>
