<svg width="33" height="33" viewBox="0 0 33 33" fill="none" xmlns="http://www.w3.org/2000/svg">
<g clip-path="url(#clip0_263_1002)">
<path d="M16.2749 24.7949C20.417 24.7949 23.7749 21.4371 23.7749 17.2949C23.7749 13.1528 20.417 9.79492 16.2749 9.79492C12.1328 9.79492 8.7749 13.1528 8.7749 17.2949C8.7749 21.4371 12.1328 24.7949 16.2749 24.7949Z" fill="#F51E1E"/>
<path fill-rule="evenodd" clip-rule="evenodd" d="M7.7749 4.33442C3.5599 7.10592 0.774902 11.8779 0.774902 17.2949C0.774902 25.8494 7.7199 32.7949 16.2749 32.7949C24.8299 32.7949 31.7749 25.8494 31.7749 17.2949C31.7749 11.8779 28.9899 7.10592 24.7749 4.33442V3.29492C24.7749 1.91442 23.6549 0.794922 22.2749 0.794922C19.1999 0.794922 13.3499 0.794922 10.2749 0.794922C8.8949 0.794922 7.7749 1.91442 7.7749 3.29492V4.33442ZM24.7749 5.54942V6.29492C24.7749 7.67542 23.6549 8.79492 22.2749 8.79492C19.1999 8.79492 13.3499 8.79492 10.2749 8.79492C8.8949 8.79492 7.7749 7.67542 7.7749 6.29492V5.54942C4.1399 8.18542 1.7749 12.4659 1.7749 17.2949C1.7749 25.2979 8.2699 31.7949 16.2749 31.7949C24.2799 31.7949 30.7749 25.2979 30.7749 17.2949C30.7749 12.4659 28.4099 8.18542 24.7749 5.54942Z" fill="#F51E1E"/>
<path fill-rule="evenodd" clip-rule="evenodd" d="M14.3797 13.3534C14.2432 13.2749 14.0757 13.2754 13.9397 13.3549C13.8037 13.4344 13.7202 13.5809 13.7202 13.7394V20.8504C13.7202 21.0089 13.8037 21.1554 13.9397 21.2349C14.0757 21.3144 14.2432 21.3149 14.3797 21.2364L20.5537 17.6809C20.6907 17.6019 20.7757 17.4544 20.7757 17.2949C20.7757 17.1354 20.6907 16.9879 20.5537 16.9089L14.3797 13.3534Z" fill="white"/>
<path fill-rule="evenodd" clip-rule="evenodd" d="M20.7749 4.29492V3.79492H21.7749C22.0509 3.79492 22.2749 3.57092 22.2749 3.29492C22.2749 3.01892 22.0509 2.79492 21.7749 2.79492H20.2749C19.9989 2.79492 19.7749 3.01892 19.7749 3.29492V6.29492C19.7749 6.57092 19.9989 6.79492 20.2749 6.79492H21.7749C22.0509 6.79492 22.2749 6.57092 22.2749 6.29492C22.2749 6.01892 22.0509 5.79492 21.7749 5.79492H20.7749V5.29492H21.7749C22.0509 5.29492 22.2749 5.07092 22.2749 4.79492C22.2749 4.51892 22.0509 4.29492 21.7749 4.29492H20.7749Z" fill="white"/>
<path fill-rule="evenodd" clip-rule="evenodd" d="M17.8005 3.13707L17.275 4.71407L16.7495 3.13707C16.662 2.87507 16.3785 2.73357 16.117 2.82057C15.855 2.90807 15.7135 3.19157 15.8005 3.45307L16.8005 6.45306C16.8685 6.65756 17.06 6.79507 17.275 6.79507C17.49 6.79507 17.6815 6.65756 17.7495 6.45306L18.7495 3.45307C18.8365 3.19157 18.695 2.90807 18.433 2.82057C18.1715 2.73357 17.888 2.87507 17.8005 3.13707Z" fill="white"/>
<path fill-rule="evenodd" clip-rule="evenodd" d="M14.7749 6.29492V3.29492C14.7749 3.01892 14.5509 2.79492 14.2749 2.79492C13.9989 2.79492 13.7749 3.01892 13.7749 3.29492V6.29492C13.7749 6.57092 13.9989 6.79492 14.2749 6.79492C14.5509 6.79492 14.7749 6.57092 14.7749 6.29492Z" fill="white"/>
<path fill-rule="evenodd" clip-rule="evenodd" d="M10.2749 3.29492V6.29492C10.2749 6.57092 10.4989 6.79492 10.7749 6.79492H12.2749C12.5509 6.79492 12.7749 6.57092 12.7749 6.29492C12.7749 6.01892 12.5509 5.79492 12.2749 5.79492H11.2749V3.29492C11.2749 3.01892 11.0509 2.79492 10.7749 2.79492C10.4989 2.79492 10.2749 3.01892 10.2749 3.29492Z" fill="white"/>
</g>
<defs>
<clipPath id="clip0_263_1002">
<rect width="32" height="32" fill="white" transform="translate(0.274902 0.794922)"/>
</clipPath>
</defs>
</svg>
