<svg width="33" height="33" viewBox="0 0 33 33" fill="none" xmlns="http://www.w3.org/2000/svg">
<rect x="0.883057" y="0.369141" width="32" height="32" rx="8" fill="#ED1F24"/>
<path d="M24.8188 12.1132C24.628 11.4041 24.069 10.8451 23.36 10.6542C22.0647 10.2998 16.8837 10.2998 16.8837 10.2998C16.8837 10.2998 11.7029 10.2998 10.4077 10.6408C9.71236 10.8315 9.13965 11.4042 8.94892 12.1132C8.60806 13.4083 8.60806 16.0942 8.60806 16.0942C8.60806 16.0942 8.60806 18.7937 8.94892 20.0753C9.13985 20.7843 9.69872 21.3432 10.4078 21.5342C11.7166 21.8887 16.8839 21.8887 16.8839 21.8887C16.8839 21.8887 22.0647 21.8887 23.36 21.5477C24.0691 21.3569 24.628 20.7979 24.819 20.0889C25.1597 18.7937 25.1597 16.1079 25.1597 16.1079C25.1597 16.1079 25.1734 13.4083 24.8188 12.1132ZM15.2342 18.5756V13.6129L19.5425 16.0942L15.2342 18.5756Z" fill="white"/>
</svg>
