<svg width="22" height="15" viewBox="0 0 22 15" fill="none" xmlns="http://www.w3.org/2000/svg">
<path d="M10.5 1H19.196C19.8208 1 20.1332 1 20.3619 1.10084C21.3736 1.5469 20.9213 2.67075 20.7511 3.4784C20.7205 3.6235 20.621 3.747 20.4816 3.8132C19.9033 4.0876 19.4982 4.6081 19.3919 5.2134L18.7993 8.5878C18.5386 10.0725 18.4495 12.1943 17.1484 13.2402C16.1938 14 14.8184 14 12.0675 14H9.9325C7.18162 14 5.8062 14 4.8516 13.2402C3.55052 12.1942 3.46138 10.0725 3.20066 8.5878L2.60807 5.2134C2.50177 4.6081 2.09673 4.0876 1.51841 3.8132C1.37896 3.747 1.27952 3.6235 1.24894 3.4784C1.07874 2.67075 0.626402 1.5469 1.63812 1.10084C1.86684 1 2.17922 1 2.80397 1H6.5" stroke="#141B34" stroke-width="1.5" stroke-linecap="round"/>
</svg>
