<svg width="21" height="20" viewBox="0 0 21 20" fill="none" xmlns="http://www.w3.org/2000/svg">
<path d="M16.7165 4.16663L10.8831 1.66663L5.0498 4.16663L7.96647 5.41663V7.08329C7.96647 7.08329 8.9387 6.66663 10.8831 6.66663C12.8276 6.66663 13.7998 7.08329 13.7998 7.08329V5.41663L16.7165 4.16663ZM16.7165 4.16663V7.49996V4.16663Z" fill="#141B34"/>
<path d="M16.7165 4.16663L10.8831 1.66663L5.0498 4.16663L7.96647 5.41663V7.08329C7.96647 7.08329 8.9387 6.66663 10.8831 6.66663C12.8276 6.66663 13.7998 7.08329 13.7998 7.08329V5.41663L16.7165 4.16663ZM16.7165 4.16663V7.49996" stroke="#141B34" stroke-width="1.5" stroke-linecap="round" stroke-linejoin="round"/>
<path d="M13.7992 7.08337V7.91671C13.7992 9.52754 12.4933 10.8334 10.8825 10.8334C9.27165 10.8334 7.96582 9.52754 7.96582 7.91671V7.08337" stroke="#141B34" stroke-width="1.5" stroke-linecap="round" stroke-linejoin="round"/>
<path d="M7.36861 13.9194C6.45162 14.4899 4.04736 15.6545 5.51171 17.1119C6.22705 17.8238 7.02374 18.3329 8.02537 18.3329H13.7409C14.7426 18.3329 15.5392 17.8238 16.2546 17.1119C17.7189 15.6545 15.3146 14.4899 14.3976 13.9194C12.2474 12.5819 9.51889 12.5819 7.36861 13.9194Z" fill="#141B34" stroke="#141B34" stroke-width="1.5" stroke-linecap="round" stroke-linejoin="round"/>
</svg>
